<svg xmlns="http://www.w3.org/2000/svg" viewBox="0 0 1694.59 281.99"><defs><style>.cls-1{fill:#fff;}</style></defs><g id="Layer_12" data-name="Layer 12"><path class="cls-1" d="M860.55,15.11,724,282H607.68L470,15.11H577.15l62.21,141.06,25.92,66.34,25.92-66.34L753.41,15.11Z"/><path class="cls-1" d="M996.48,70.39v46.52h163v53.37h-163v56.43h173.38V282H906.63V15.11h263.23V70.39Z"/><path class="cls-1" d="M1250.49,15.11h93.32V282h-93.32Z"/><path class="cls-1" d="M1694.59,226.71V282H1436V15.11h91.59v211.6Z"/><path class="cls-1" d="M290.89,98.51c23.17-4.5,41.26-3.05,55.69,2.65C331.37,83.57,309.71,75,276.46,82.77,123.15,118.7,140.3,50.2,41.76,227.41,133,68.73,122,131.26,290.89,98.51Z"/><path d="M41.76,230.41a3,3,0,0,1-1.48-.39A3,3,0,0,1,39.14,226C110.62,97.39,122.69,96.65,180.67,93.12c22-1.34,52-3.17,95.1-13.27,31.53-7.39,55.43-1.06,73.08,19.35a3,3,0,0,1-3.38,4.75c-14.82-5.86-32.48-6.67-54-2.5h0c-48.59,9.43-82.88,11-107.91,12.18-31.14,1.45-49.94,2.32-68.53,16.43-18.08,13.72-36.57,39.59-70.66,98.85A3,3,0,0,1,41.76,230.41ZM299.33,82.9a97.32,97.32,0,0,0-22.19,2.79C233.57,95.9,203.21,97.75,181,99.11c-33.12,2-50.35,3.07-73,28.81,1.11-.92,2.21-1.8,3.31-2.64,20.08-15.23,39.58-16.14,71.88-17.64,24.85-1.16,58.89-2.74,107-12.08,17.17-3.33,32.1-3.61,45.24-.82C325.47,86.83,313.46,82.9,299.33,82.9Z"/><path class="cls-1" d="M311.46,142.61c64-32.92,107.59,28,131.34,78.67-15.94-53.09-51.11-120.79-124.93-100.87-121.12,32.69-156.54-13.51-205.66,27.2C160.66,135,207.09,196.26,311.46,142.61Z"/><path d="M442.8,224.28a3,3,0,0,1-2.71-1.73c-14.75-31.45-39.44-71.38-73.34-82.94-17.11-5.84-35.25-3.93-53.92,5.66-67.8,34.86-111.73,21.94-147,11.56-19.41-5.71-36.17-10.63-52.84-6.31a3,3,0,0,1-2.67-5.22c25.83-21.4,48.22-19.64,79.21-17.19,30.45,2.4,68.35,5.4,127.59-10.59,34-9.19,63.35-1.15,87.12,23.88,17.21,18.11,31.16,44.7,41.47,79a3,3,0,0,1-1.81,3.67A3.07,3.07,0,0,1,442.8,224.28Zm-95.86-94a66.84,66.84,0,0,1,21.74,3.64c15,5.1,35.41,18,56.41,49.38-7.36-15.21-15.8-27.85-25.23-37.78-22.14-23.31-49.46-30.79-81.21-22.22C258.41,139.57,218.31,136.4,189,134.09c-26.47-2.09-45.19-3.57-65.21,8.81,14-.56,28,3.57,43.67,8.17,34.27,10.08,76.93,22.62,142.6-11.13C322.59,133.51,334.92,130.29,346.94,130.29Z"/><path class="cls-1" d="M112.22,147.61c49.11-40.7,84.54,5.49,205.65-27.2,23.27-6.28,42.7-3.85,58.9,4.09-17.07-22.07-42.63-34.38-85.88-26C144.34,126.93,133.26,83.6,73.23,175.37,87.05,159,99.7,150.86,112.22,147.61Z"/><path d="M73.23,178.37a3,3,0,0,1-2.51-4.64c41.06-62.76,60.53-63.67,112.56-66.09,24.85-1.16,58.88-2.74,107-12.08,39.71-7.7,68.76,1.16,88.82,27.1a3,3,0,0,1-3.69,4.53c-16.78-8.22-35.89-9.52-56.8-3.88-60.24,16.26-100.34,13.1-129.62,10.78-30.68-2.42-50.95-4-74.9,15.83a3,3,0,0,1-1.16.6c-12.75,3.3-25,12.07-37.45,26.79A3,3,0,0,1,73.23,178.37ZM316.59,98.82a132.13,132.13,0,0,0-25.13,2.63c-48.59,9.42-82.87,11-107.9,12.18-43.49,2-62.48,2.91-91.34,40a61.9,61.9,0,0,1,18.6-8.77c25.6-21,47.9-19.2,78.68-16.77,30.45,2.41,68.35,5.4,127.59-10.59,17.54-4.74,34-4.87,49-.41C353,104.82,336.83,98.82,316.59,98.82Z"/><path class="cls-1" d="M77,188.56c69.78-71.65,102.57,30.32,234.42-37.46,39.48-20.3,70.37-10,93.8,11.66-23.89-25.67-55.1-40-93.8-20.15-147.85,76-179.44-78.53-265.2,72.8C57.09,203.11,67.29,194.43,77,188.56Z"/><path d="M46.26,218.41a2.93,2.93,0,0,1-1.74-.56,3,3,0,0,1-.87-3.92c22.09-39,42.26-60.55,63.49-67.92,19.8-6.86,38.59-1.34,60.35,5.06,34.27,10.08,76.93,22.63,142.6-11.13,35-18,67.79-11,97.37,20.77a3,3,0,0,1-4.24,4.25c-26.58-24.6-57-28.36-90.39-11.19-68.88,35.4-111.38,25.09-145.52,16.81-32.2-7.81-55.46-13.46-88.12,20.07a2.75,2.75,0,0,1-.6.48c-10,6-19.79,14.58-30.08,26.26A3,3,0,0,1,46.26,218.41Zm80.07-69.53a51.9,51.9,0,0,0-17.22,2.8C93.37,157.14,78,171.38,61.67,196a108.25,108.25,0,0,1,13.49-9.76c34.92-35.67,62.1-29.08,93.56-21.44,33.18,8.05,74.48,18.07,141.37-16.32q24.75-12.72,47.41-11.17-21.57-3.82-44.67,8c-67.8,34.86-111.73,21.94-147,11.56C151.63,152.66,138.78,148.88,126.33,148.88Z"/><path class="cls-1" d="M235.45,212.28c19.73-3.86,41.41-12.36,65.72-28.44,66.56-44,115.39-3,144.26,38-22.59-48.84-65.29-106-134-70.72C179.61,218.88,146.82,116.91,77,188.56,132.6,155.12,173.69,212.85,235.45,212.28Z"/><path d="M445.44,224.82a3,3,0,0,1-2.46-1.27c-17.47-24.83-36.54-41.59-56.68-49.82-26.4-10.79-54.48-6.55-83.47,12.62C280,201.46,258.12,210.9,236,215.23a3.41,3.41,0,0,1-.55.05h-.95c-25.46,0-47.08-9.43-68-18.55-30.26-13.2-56.4-24.59-87.93-5.61a3,3,0,0,1-3.7-4.66c35.05-36,62.29-29.38,93.83-21.72,33.18,8.05,74.48,18.07,141.37-16.32,23.19-11.92,45.32-14.4,65.78-7.36,19.26,6.62,47.44,25.79,72.29,79.49a3,3,0,0,1-2.72,4.26ZM112.7,175.1c19.21,0,37.39,7.93,56.22,16.14,20.36,8.87,41.41,18,65.62,18h.61c21.21-4.2,42.27-13.34,64.37-27.95,30.75-20.32,60.7-24.75,89.05-13.17,13.82,5.65,27.11,15,39.7,28C415,174.93,397,154.67,373.92,146.74c-18.86-6.48-39.41-4.12-61.09,7-68.88,35.4-111.38,25.09-145.52,16.81C140,164,119.18,158.9,93.6,177.87A66.67,66.67,0,0,1,112.7,175.1Z"/><path class="cls-1" d="M235.48,212.28C149.54,213.09,103.62,101,3.11,278.59,88.5,137.91,138.44,231.3,235.48,212.28Z"/><path d="M3.11,281.59A3,3,0,0,1,.5,277.11C33.37,219,62.58,187.62,92.44,178.23c27.12-8.53,51.1,1.93,76.48,13,20.62,9,42,18.29,66.53,18.05h0a3,3,0,0,1,.57,5.94c-33.36,6.54-61.62,0-86.55-5.85-49.37-11.5-88.37-20.58-143.82,70.78A3,3,0,0,1,3.11,281.59ZM112.65,181.15A60.63,60.63,0,0,0,94.24,184C78.94,188.77,63.7,199.89,47.86,218c36-30.11,67.82-22.71,103-14.51,17.92,4.17,36.28,8.45,56.73,8.45H208c-14.65-3.55-28.21-9.46-41.49-15.25C148.28,188.77,130.79,181.15,112.65,181.15Z"/><path class="cls-1" d="M301.17,212.4C414.27,154.15,476,279,476,279h0s-61.9-169.75-174.8-95.14C157.23,279,105.82,109.19,3,278.77H3C105.83,145.85,173.6,278.11,301.17,212.4Z"/><path d="M476,282a3,3,0,0,1-2.72-1.73c-.26-.52-29.16-57.87-82.13-75.3-27.91-9.18-57.71-5.78-88.57,10.12h0c-56.5,29.1-102.17,19.87-142.46,11.74-52.47-10.6-97.79-19.76-154.68,53.8a3,3,0,0,1-5-3.39C58.2,181.94,101.14,192,150.85,203.53c39.89,9.3,85.09,19.83,148.67-22.19,28.64-18.93,56.66-24.08,83.29-15.29,17.95,5.92,44.95,21.8,71.64,63.87a273.91,273.91,0,0,1,24.33,48,3,3,0,0,1-1.66,3.8A3.14,3.14,0,0,1,476,282Zm-371.4-79.69c-24,0-47.44,9.35-74.34,42.42,17.06-15.08,34.39-24.33,53-28.45,26.18-5.82,51.4-.73,78.09,4.66,41.25,8.34,83.89,17,138.52-11.19h0c32.73-16.85,64.43-20.26,94.23-10.13,27,9.18,47.72,27.8,61.9,44.56-15.37-27-40.75-61.12-75-72.42-24.79-8.17-51.07-3.26-78.09,14.61-65.73,43.44-112.28,32.6-153.34,23C133.76,205.71,119.07,202.29,104.57,202.29Z"/><ellipse cx="239.48" cy="109.65" rx="101.79" ry="104.64"/><path class="cls-1" d="M239.48,219.29c-58.88,0-106.79-49.18-106.79-109.64S180.6,0,239.48,0,346.27,49.19,346.27,109.65,298.37,219.29,239.48,219.29Zm0-209.28c-53.37,0-96.79,44.7-96.79,99.64s43.42,99.64,96.79,99.64,96.79-44.7,96.79-99.64S292.85,10,239.48,10Z"/><path class="cls-1" d="M301.17,226.12C424.52,183.85,475.93,278.92,476,279h0s-61.69-124.83-174.8-66.58C173.58,278.12,105.82,145.82,3,278.82l61.83,0C147,194.5,177.86,268.38,301.17,226.12Z"/><path d="M476,282a3,3,0,0,1-2.64-1.57c-.52-1-13-23.53-40.34-41.34a126.85,126.85,0,0,0-53-19.57c-24-3.19-50.2,0-77.83,9.46-54.14,18.56-91.41,14.91-121.35,12-39.67-3.89-68.33-6.7-113.82,40a3,3,0,0,1-2.15.91h0L3,281.82A3,3,0,0,1,.63,277c27-34.9,53.21-54.2,82.54-60.72,26.19-5.82,51.41-.73,78.11,4.66,41.25,8.34,83.89,17,138.52-11.19,32.35-16.66,63.72-20.18,93.23-10.47,55.37,18.24,84.42,75.94,85.63,78.39A3,3,0,0,1,476,282ZM9.19,275.82l54.38,0c47-47.82,78.28-44.76,117.82-40.88,30.89,3,65.9,6.46,118.81-11.67l1,2.83-1-2.83c64.87-22.24,109.9-6.36,136.25,10.88q2.91,1.89,5.6,3.86C429,224.75,411.91,211.79,391.14,205c-27.92-9.19-57.73-5.79-88.59,10.11-56.5,29.1-102.17,19.88-142.46,11.74C108.79,216.44,64.31,207.46,9.19,275.82Z"/><path class="cls-1" d="M195.51,253c12.53-5.22,23.39-9.44,33-12.76C160.75,242.63,127.9,214,64.69,279,116.72,243.93,148.19,250.45,195.51,253Z"/><path d="M64.69,282a3,3,0,0,1-2.15-5.09c47.58-48.92,79-45.84,118.86-41.94,14.46,1.42,29.41,2.89,47,2.25a3,3,0,0,1,1.08,5.84c-9.34,3.21-20.09,7.36-32.86,12.69a3.15,3.15,0,0,1-1.32.23c-5-.27-9.79-.58-14.44-.87-39.95-2.57-68.82-4.42-114.54,26.38A3,3,0,0,1,64.69,282Zm86.71-43c-20.72,0-40.19,4.6-63.82,23.2C122.17,245.3,149,247,181.3,249.1c4.42.28,9,.58,13.69.83,6-2.49,11.51-4.72,16.67-6.72-11.2-.36-21.45-1.36-30.85-2.29C170.42,239.91,160.78,239,151.4,239Z"/><path class="cls-1" d="M301.17,226.12c-4.87,1.67-9.58,3.14-14.18,4.47,12.05,1.14,23.9,4.49,38.56,9.29C431.36,224.92,476,279,476,279S424.56,183.84,301.17,226.12Z"/><path d="M476,282a3,3,0,0,1-2.32-1.09c-.1-.13-11.21-13.31-34.84-24.52C417,246,379.69,235.26,326,242.85a2.82,2.82,0,0,1-1.35-.12c-14.76-4.83-26.25-8-37.91-9.15a3,3,0,0,1-.55-5.87c4.85-1.4,9.44-2.85,14-4.42h0c64.89-22.24,109.92-6.35,136.28,10.89,28.58,18.7,41.59,42.37,42.13,43.37A3,3,0,0,1,476,282ZM361.16,234.3c36.5,0,63.23,8.53,80.57,16.81a144.38,144.38,0,0,1,16.29,9.1,134.93,134.93,0,0,0-25-21.15,127,127,0,0,0-53-19.57c-24-3.18-50.18,0-77.81,9.47h0l-1.92.65a249.29,249.29,0,0,1,25.59,7.21A256.54,256.54,0,0,1,361.16,234.3Z"/><path class="cls-1" d="M64.69,279h72c23.14-10.57,42.42-19.16,58.85-26C148.19,250.45,116.72,243.93,64.69,279Z"/><path d="M136.66,282h-72A3,3,0,0,1,63,276.49c47.42-31.94,78.69-29.94,118.28-27.39,4.63.3,9.42.6,14.37.87a3,3,0,0,1,1,5.76c-15.17,6.33-33.3,14.34-58.76,26A3,3,0,0,1,136.66,282ZM74.6,276H136c19-8.68,33.9-15.33,46.56-20.79l-1.66-.1C119.38,251.14,97.52,261.05,74.6,276Z"/><path class="cls-1" d="M325.55,239.88c28.56,9.36,67.81,24.23,140.13,39.1H476S431.36,224.92,325.55,239.88Z"/><path d="M476,282H465.69a3.08,3.08,0,0,1-.61-.06c-61.94-12.74-99.67-25.47-127.22-34.76-4.69-1.58-9.08-3.06-13.24-4.43a3,3,0,0,1,.51-5.82c55.4-7.83,94,3.4,116.6,14.2,24.69,11.8,36.08,25.39,36.55,26A3,3,0,0,1,476,282Zm-10-6h2.76a123.24,123.24,0,0,0-29.94-19.61c-20-9.48-52.92-19.29-99.53-15.06l.5.16C367.13,250.7,404.59,263.34,466,276Z"/><path class="cls-1" d="M465.68,279c-205.63-42.28-143.94-84.57-329,0C321.74,241.81,260.05,260.39,465.68,279Z"/><path d="M136.66,282a3,3,0,0,1-1.24-5.73c62.37-28.5,99.06-43.73,126.45-47.85,27.07-4.07,46.21,2.38,77.91,13.08,27.4,9.24,64.93,21.9,126.51,34.56a3,3,0,0,1-.88,5.93c-61.84-5.59-99.51-11.18-127-15.26-63.93-9.48-72.14-10.7-201.12,15.21A3.05,3.05,0,0,1,136.66,282Zm141.07-27.51c19,0,35.84,2.5,61.53,6.31,19.46,2.88,44,6.52,78.66,10.39-35.35-8.93-60.32-17.35-80.06-24-59.23-20-70.22-23.69-176.19,23.79C222.43,259,252.09,254.47,277.73,254.47Z"/><path class="cls-1" d="M465.68,279c-205.63-18.59-143.94-37.17-329,0h329"/><path d="M465.69,282h-329a3,3,0,0,1-.59-5.94c130-26.11,138.34-24.88,203.19-15.26,27.44,4.07,65,9.64,126.7,15.21a3,3,0,0,1-.27,6Zm-298.51-6h240c-29.51-3.44-51.23-6.66-68.8-9.27C279.8,258,268,256.28,167.18,276Z"/></g></svg>