<svg xmlns="http://www.w3.org/2000/svg" width="171" height="16" viewBox="0 0 171 16" fill="none">
<path d="M92.4767 9.31822L86.4663 0H83.0102V15.6424H87.3465V8.17879L92.0258 15.6424H92.9277L97.607 8.17879V15.6424H101.943V0H98.4874L92.4767 9.31822ZM156.961 9.16202L159.688 4.0668L162.392 9.16202H156.961ZM162.006 0H157.348L148.354 15.6424H153.484L154.901 13.0057H164.453L165.87 15.6424H171L162.006 0ZM131.717 5.92169L131.696 3.61996H138.78C139.617 3.61996 140.025 3.97755 140.025 4.78198C140.025 5.58669 139.617 5.92169 138.78 5.92169H131.717ZM137.985 8.06694H139.531C142.472 8.06694 144.361 6.61455 144.361 4.13403C144.361 1.6535 142.558 0 139.531 0H127.403V15.6424H131.739L131.717 9.34082H134.508C135.302 9.34082 135.968 9.4973 136.483 9.83229C136.998 10.1676 137.513 10.7263 138.05 11.5307C138.587 12.3574 139.359 13.7206 140.39 15.6424H145.67C144.811 13.7875 144.039 12.3574 143.352 11.3296C141.978 9.2736 140.411 8.22342 137.985 8.06694ZM73.9512 8.17879C73.9512 10.6593 72.5131 11.9775 70.0875 11.9775C67.6618 11.9775 66.2235 10.6593 66.2235 8.17879V0H61.8875V7.50852C61.8875 13.9886 64.9573 16 70.0875 16C75.2177 16 78.2872 13.9886 78.2872 7.50852V0H73.9512V8.17879ZM118.086 11.7764H111.26L111.238 9.47498H118.086C118.837 9.47498 119.331 9.8772 119.331 10.6816C119.331 11.4188 118.923 11.7764 118.086 11.7764ZM117.614 3.84366C118.386 3.84366 118.859 4.11171 118.859 4.89383C118.859 5.67595 118.408 5.92169 117.614 5.92169H111.238L111.217 3.84366H117.614ZM119.031 7.68704C121.671 7.53084 123.195 6.36854 123.195 4.13403C123.195 2.90506 122.766 1.89924 121.929 1.13943C121.07 0.379903 119.889 0 118.365 0H106.881V15.6424H118.837C121.735 15.6424 123.689 13.9663 123.689 11.4858C123.689 9.0948 121.929 7.75426 119.031 7.68704ZM10.5182 5.92169H4.31462V3.61996H10.5182C11.3555 3.61996 11.7633 3.99986 11.7633 4.78198C11.7633 5.58669 11.3555 5.92169 10.5182 5.92169ZM11.0552 0H0V15.6424H4.33605V9.54193H11.0552C14.0601 9.54193 16.0994 7.84352 16.0994 4.78198C16.0994 3.9106 15.8848 3.10617 15.477 2.3684C14.6399 0.916006 13.0513 0 11.0552 0ZM19.749 15.6424H34.8824V11.799H24.0853V9.51961H34.6893V5.87706H24.0853V3.84366H34.8824V0H19.749V15.6424ZM52.6138 8.62564L42.8038 0H39.3908V15.6424H43.7268V7.01677L53.5152 15.6424H56.9499V0H52.6138V8.62564Z" fill="white"/>
</svg>