<svg width="16" height="16" viewBox="0 0 16 16" fill="none" xmlns="http://www.w3.org/2000/svg">
    <path id="Vector" fill-rule="evenodd" clip-rule="evenodd" d="M7.99937 0.666626C8.25311 0.666626 8.48486 0.810674 8.59717 1.03821L10.5022 4.8976L14.7625 5.5203C15.0135 5.557 15.2219 5.733 15.3002 5.97434C15.3785 6.21568 15.3129 6.48051 15.1312 6.65753L12.049 9.65954L12.7764 13.9006C12.8193 14.1507 12.7165 14.4035 12.5112 14.5527C12.3059 14.7018 12.0337 14.7215 11.8091 14.6033L7.99937 12.5999L4.18967 14.6033C3.96506 14.7215 3.69286 14.7018 3.48755 14.5527C3.28223 14.4035 3.1794 14.1507 3.2223 13.9006L3.94969 9.65954L0.867547 6.65753C0.685801 6.48051 0.620286 6.21568 0.698538 5.97434C0.776789 5.733 0.985243 5.557 1.23628 5.5203L5.49653 4.8976L7.40156 1.03821C7.51388 0.810674 7.74562 0.666626 7.99937 0.666626Z" fill="#F49C43"/>
</svg>
