<svg width="134" height="12" viewBox="0 0 134 12" fill="none" xmlns="http://www.w3.org/2000/svg">
<path d="M41.0723 6.46958L33.4147 0.00209373H30.7499V11.7323H34.1342V5.26477L41.7751 11.7323H44.4567V0.00209373H41.0723V6.46958ZM15.4178 11.7323H27.2316V8.84992H18.8022V7.14101H27.081V4.40927H18.8022V2.88444H27.2316V0.00209373H15.4178V11.7323ZM8.63029 0.00209373H0V11.7323H3.38435V7.15775H8.63029C10.9772 7.15775 12.5689 5.88391 12.5689 3.58933C12.5689 2.93673 12.4016 2.33223 12.0837 1.78003C11.4311 0.690258 10.1907 0.00418426 8.63238 0.00418426L8.63029 0.00209373ZM8.21196 4.44274H3.3697V2.7171H8.21196C8.86456 2.7171 9.18459 3.00157 9.18459 3.58933C9.18459 4.1771 8.86665 4.44483 8.21196 4.44483V4.44274ZM92.921 5.76678C94.9813 5.64964 96.1715 4.77741 96.1715 3.10197C96.1715 2.17954 95.8368 1.42653 95.1821 0.855498C94.5128 0.28656 93.5904 0 92.4002 0H83.4352V11.7302H92.7683C95.0315 11.7302 96.5564 10.4731 96.5564 8.61356C96.5564 6.75405 95.1821 5.81488 92.9189 5.76468L92.921 5.76678ZM91.8166 2.88444C92.419 2.88444 92.7892 3.08524 92.7892 3.673C92.7892 4.26076 92.4378 4.44483 91.8166 4.44483H86.8405L86.8238 2.88653H91.8166V2.88444ZM92.1847 8.83319H86.8551L86.8384 7.10755H92.1847C92.7704 7.10755 93.1574 7.40875 93.1574 8.01325C93.1574 8.56545 92.8394 8.83528 92.1847 8.83528V8.83319ZM57.7305 6.13491C57.7305 7.99442 56.6073 8.98379 54.7143 8.98379C52.8213 8.98379 51.6981 7.99442 51.6981 6.13491V0.00209373H48.3137V5.63291C48.3137 10.4919 50.7108 12 54.7143 12C58.7178 12 61.1149 10.4919 61.1149 5.63291V0.00209373H57.7305V6.13491ZM107.72 6.05125H108.927C111.223 6.05125 112.698 4.96148 112.698 3.10197C112.698 1.24246 111.29 0.00209373 108.927 0.00209373H99.4596V11.7323H102.844L102.827 7.00715H105.005C105.624 7.00715 106.145 7.12428 106.546 7.37528C106.948 7.62629 107.352 8.04462 107.77 8.64912C108.188 9.26826 108.793 10.2911 109.596 11.7323H113.719C113.049 10.3413 112.445 9.26826 111.909 8.49852C110.836 6.95695 109.613 6.16838 107.72 6.05125ZM102.825 4.44274L102.808 2.7171H108.339C108.991 2.7171 109.311 2.98484 109.311 3.58933C109.311 4.19383 108.994 4.44483 108.339 4.44483H102.825V4.44274ZM126.472 0.00209373H122.834L115.812 11.7323H119.818L120.924 9.75562H128.381L129.488 11.7323H133.493L126.472 0.00209373ZM122.533 6.87328L124.66 3.05177L126.771 6.87328H122.531H122.533ZM72.1924 6.99041L67.5008 0.00209373H64.8025V11.7323H68.1868V6.13491L71.8389 11.7323H72.5438L76.1959 6.13491V11.7323H79.5802V0.00209373H76.882L72.1903 6.99041H72.1924Z" fill="#FAFAFA"/>
</svg>
