<svg xmlns="http://www.w3.org/2000/svg" viewBox="0 0 500 500"><defs><style>.cls-1{fill:#fff;}</style></defs><g id="Layer_12" data-name="Layer 12"><path class="cls-1" d="M301.28,207.51c23.17-4.49,41.26-3,55.69,2.66-15.21-17.6-36.87-26.19-70.12-18.39C133.54,227.7,150.69,159.2,52.15,336.42,143.43,177.74,132.41,240.26,301.28,207.51Z"/><path d="M52.15,339.42a3.06,3.06,0,0,1-1.48-.39A3,3,0,0,1,49.53,335C121,206.4,133.08,205.66,191.06,202.12c22-1.33,52-3.17,95.11-13.27,31.53-7.39,55.42-1,73.07,19.36a3,3,0,0,1-3.38,4.75c-14.81-5.86-32.48-6.68-54-2.5h0c-48.59,9.42-82.88,11-107.91,12.18C162.8,224.09,144,225,125.41,239.07c-18.08,13.72-36.57,39.58-70.66,98.84A3,3,0,0,1,52.15,339.42ZM309.72,191.91a97.32,97.32,0,0,0-22.19,2.79c-43.57,10.21-73.93,12.06-96.1,13.41-33.12,2-50.35,3.07-73,28.82,1.11-.93,2.21-1.8,3.31-2.64,20.08-15.24,39.58-16.14,71.88-17.64,24.85-1.16,58.89-2.74,107-12.08h0c17.17-3.33,32.1-3.62,45.24-.83C335.86,195.84,323.85,191.91,309.72,191.91Z"/><path class="cls-1" d="M321.85,251.61c64-32.92,107.59,28,131.34,78.67-15.94-53.08-51.11-120.79-124.93-100.86-121.12,32.69-156.54-13.52-205.66,27.2C171.05,244.05,217.48,305.26,321.85,251.61Z"/><path d="M453.2,333.28a3,3,0,0,1-2.72-1.72c-14.75-31.46-39.44-71.38-73.34-82.95-17.11-5.83-35.25-3.93-53.92,5.67-67.8,34.85-111.73,21.94-147,11.55-19.41-5.7-36.17-10.63-52.84-6.31a3,3,0,0,1-2.67-5.21c25.83-21.41,48.22-19.64,79.21-17.19,30.45,2.4,68.35,5.39,127.59-10.6,34-9.18,63.35-1.15,87.12,23.89,17.21,18.11,31.16,44.69,41.47,79a3,3,0,0,1-1.8,3.66A2.93,2.93,0,0,1,453.2,333.28Zm-95.87-94a67.1,67.1,0,0,1,21.74,3.63c15,5.11,35.41,18,56.41,49.39-7.36-15.22-15.8-27.86-25.23-37.78-22.14-23.32-49.46-30.79-81.21-22.23-60.24,16.27-100.34,13.1-129.62,10.79-26.47-2.09-45.19-3.57-65.21,8.81,14-.56,28,3.56,43.67,8.17,34.27,10.08,76.93,22.62,142.59-11.14h0C333,242.52,345.31,239.3,357.33,239.3Z"/><path class="cls-1" d="M122.61,256.62c49.11-40.7,84.54,5.49,205.65-27.2,23.27-6.28,42.7-3.85,58.9,4.08-17.07-22.07-42.63-34.38-85.88-26-146.55,28.42-157.63-14.9-217.66,76.87C97.44,268,110.09,259.86,122.61,256.62Z"/><path d="M83.62,287.38a3,3,0,0,1-2.51-4.64c41.06-62.77,60.53-63.67,112.56-66.09,24.85-1.16,58.88-2.74,107-12.08,39.71-7.7,68.76,1.16,88.82,27.1a3,3,0,0,1-3.69,4.53C369.06,228,350,226.67,329,232.31c-60.24,16.27-100.34,13.1-129.62,10.79-30.68-2.42-50.95-4-74.9,15.83a3,3,0,0,1-1.16.59c-12.75,3.31-25,12.07-37.45,26.8A3,3,0,0,1,83.62,287.38ZM327,207.83a132.22,132.22,0,0,0-25.13,2.63c-48.59,9.42-82.87,11-107.9,12.18-43.49,2-62.48,2.91-91.34,40a62,62,0,0,1,18.6-8.77c25.6-21,47.9-19.2,78.68-16.77,30.45,2.4,68.35,5.39,127.59-10.6,17.54-4.73,34-4.86,49-.41C363.41,213.83,347.23,207.83,327,207.83Z"/><path class="cls-1" d="M87.43,297.57c69.78-71.65,102.57,30.31,234.42-37.46,39.48-20.3,70.37-10,93.8,11.66-23.89-25.68-55.1-40-93.8-20.16-147.85,76-179.44-78.52-265.2,72.8C67.48,312.12,77.68,303.44,87.43,297.57Z"/><path d="M56.65,327.41A3,3,0,0,1,54,322.93C76.12,284,96.3,262.38,117.53,255c19.8-6.87,38.59-1.34,60.35,5.06,34.27,10.08,76.93,22.62,142.6-11.14,35-18,67.79-11,97.37,20.78a3,3,0,0,1-4.24,4.25c-26.58-24.6-57-28.37-90.39-11.2-68.88,35.41-111.38,25.1-145.52,16.81-32.2-7.81-55.46-13.45-88.12,20.08a3.51,3.51,0,0,1-.6.48c-10,6-19.79,14.58-30.08,26.26A3,3,0,0,1,56.65,327.41Zm80.07-69.52a51.9,51.9,0,0,0-17.22,2.8c-15.74,5.46-31.08,19.7-47.44,44.27a108.25,108.25,0,0,1,13.49-9.76c34.92-35.68,62.1-29.08,93.56-21.45,33.18,8.05,74.47,18.07,141.37-16.31,16.5-8.49,32.34-12.21,47.41-11.17q-21.57-3.83-44.67,8c-67.8,34.85-111.73,21.93-147,11.55C162,261.67,149.17,257.89,136.72,257.89Z"/><path class="cls-1" d="M245.84,321.29c19.73-3.86,41.41-12.37,65.72-28.44,66.56-44,115.39-3.05,144.26,38-22.59-48.84-65.29-106-134-70.72C190,327.88,157.21,225.92,87.43,297.57,143,264.13,184.08,321.86,245.84,321.29Z"/><path d="M455.83,333.83a3,3,0,0,1-2.46-1.28c-17.47-24.82-36.54-41.59-56.68-49.81-26.4-10.8-54.48-6.55-83.47,12.61-22.86,15.11-44.71,24.56-66.8,28.88a2.57,2.57,0,0,1-.55.06c-25.83.24-47.77-9.31-69-18.55-30.26-13.19-56.4-24.59-87.93-5.6a3,3,0,0,1-3.7-4.67c35.05-36,62.29-29.37,93.83-21.72,33.18,8.05,74.47,18.07,141.37-16.31,23.19-11.92,45.33-14.4,65.78-7.36,19.26,6.62,47.44,25.79,72.29,79.49a3,3,0,0,1-1.23,3.85A2.89,2.89,0,0,1,455.83,333.83ZM123.09,284.11c19.21,0,37.39,7.92,56.22,16.13,20.36,8.88,41.41,18.05,65.62,18.05h.61c21.21-4.2,42.27-13.34,64.37-27.94,30.75-20.32,60.71-24.75,89-13.17,13.82,5.65,27.11,15,39.7,28-13.27-21.25-31.3-41.51-54.35-49.44-18.85-6.48-39.41-4.12-61.09,7-68.88,35.41-111.38,25.1-145.52,16.81-27.27-6.61-48.12-11.67-73.71,7.3A66.33,66.33,0,0,1,123.09,284.11Z"/><path class="cls-1" d="M245.87,321.29C159.93,322.09,114,210,13.5,387.6,98.89,246.92,148.83,340.31,245.87,321.29Z"/><path d="M13.5,390.6a3,3,0,0,1-2.61-4.48c32.87-58.07,62.08-89.49,91.94-98.88,27.12-8.53,51.1,1.93,76.48,13,20.62,9,41.89,18.27,66.53,18.06a3,3,0,0,1,3,2.69,3,3,0,0,1-2.41,3.25c-33.36,6.54-61.62,0-86.55-5.85-49.37-11.5-88.37-20.59-143.82,70.77A3,3,0,0,1,13.5,390.6ZM123,290.15A60.94,60.94,0,0,0,104.63,293c-15.3,4.81-30.54,15.94-46.38,34.09,36-30.12,67.82-22.71,103-14.51C179.17,316.71,197.53,321,218,321h.42c-14.65-3.55-28.21-9.47-41.48-15.26C158.67,297.78,141.18,290.15,123,290.15Z"/><path class="cls-1" d="M311.56,321.41C424.66,263.16,486.35,388,486.36,388h0s-61.9-169.75-174.8-95.13C167.62,388,116.21,218.2,13.39,387.78h0C116.22,254.86,184,387.12,311.56,321.41Z"/><path d="M486.36,391a3,3,0,0,1-2.69-1.66c-.29-.58-29.32-58-82.22-75.38-27.9-9.16-57.68-5.75-88.51,10.13l-1.38-2.66,1.38,2.66c-56.5,29.1-102.17,19.88-142.46,11.74C118,325.21,72.69,316.06,15.8,389.61a3,3,0,0,1-2.37,1.17,3.05,3.05,0,0,1-2.64-1.53,3,3,0,0,1,0-3C68.59,291,111.53,301,161.24,312.54c39.89,9.29,85.09,19.83,148.67-22.19,28.64-18.93,56.66-24.08,83.29-15.3,17.95,5.92,44.95,21.81,71.64,63.87a275.51,275.51,0,0,1,24.34,48,3,3,0,0,1-1.64,3.78A2.9,2.9,0,0,1,486.36,391ZM115,311.29c-24,0-47.44,9.36-74.34,42.42,17.06-15.08,34.39-24.32,53-28.45,26.19-5.82,51.4-.72,78.09,4.67,41.25,8.33,83.89,16.95,138.52-11.19,32.32-16.64,63.65-20.18,93.13-10.5,27.56,9,48.64,27.95,63,44.94-15.37-27-40.75-61.14-75-72.43-24.8-8.17-51.07-3.26-78.09,14.6-65.73,43.45-112.28,32.6-153.34,23C144.15,314.72,129.46,311.29,115,311.29Z"/><ellipse cx="249.87" cy="218.66" rx="101.79" ry="104.64"/><path class="cls-1" d="M249.87,328.3c-58.88,0-106.79-49.19-106.79-109.64S191,109,249.87,109,356.66,158.2,356.66,218.66,308.76,328.3,249.87,328.3Zm0-209.29c-53.37,0-96.79,44.7-96.79,99.65s43.42,99.64,96.79,99.64,96.79-44.7,96.79-99.64S303.24,119,249.87,119Z"/><path class="cls-1" d="M311.56,335.13c123.35-42.27,174.76,52.79,174.8,52.85h0s-61.69-124.83-174.8-66.57C184,387.13,116.21,254.83,13.39,387.82l61.83,0C157.37,303.51,188.25,377.39,311.56,335.13Z"/><path d="M486.36,391a3,3,0,0,1-2.64-1.56c-.52-1-13-23.54-40.34-41.34a127,127,0,0,0-53-19.58c-24-3.18-50.2,0-77.83,9.47l-1-2.84,1,2.84c-54.14,18.55-91.41,14.9-121.35,12-39.67-3.89-68.33-6.7-113.82,40a3,3,0,0,1-2.15.9h0l-61.83,0A3,3,0,0,1,11,386c27-34.91,53.21-54.2,82.54-60.72,26.19-5.83,51.41-.73,78.11,4.66,41.25,8.33,83.89,16.95,138.52-11.19,32.35-16.66,63.72-20.19,93.23-10.47,55.37,18.23,84.42,75.94,85.63,78.39a3,3,0,0,1-1.31,4A3,3,0,0,1,486.36,391ZM19.58,384.83H74C121,337,152.24,340.09,191.78,344c30.89,3,65.9,6.45,118.81-11.68,64.87-22.23,109.9-6.35,136.25,10.88q2.91,1.9,5.61,3.87C439.36,333.76,422.3,320.8,401.53,314c-27.92-9.18-57.73-5.78-88.59,10.11-56.5,29.11-102.16,19.88-142.46,11.74C119.17,325.45,74.71,316.47,19.58,384.83Z"/><path class="cls-1" d="M205.9,362c12.53-5.23,23.39-9.44,33-12.76C171.14,351.64,138.29,323,75.08,388,127.11,352.94,158.58,359.46,205.9,362Z"/><path d="M75.08,391a3,3,0,0,1-2.15-5.1C120.51,337,152,340.06,191.79,344c14.46,1.42,29.41,2.88,47.05,2.25a3,3,0,0,1,3,2.45,3,3,0,0,1-2,3.38c-9.34,3.21-20.09,7.37-32.86,12.7a3,3,0,0,1-1.32.22c-5-.26-9.78-.57-14.43-.87-40-2.56-68.83-4.42-114.55,26.38A3,3,0,0,1,75.08,391Zm86.71-43c-20.72,0-40.2,4.6-63.82,23.19,34.58-16.85,61.38-15.13,93.72-13.05,4.42.28,9,.57,13.69.83,6-2.49,11.51-4.72,16.67-6.72-11.2-.36-21.45-1.37-30.85-2.29C180.81,348.91,171.17,348,161.79,348Z"/><path class="cls-1" d="M311.56,335.13c-4.87,1.67-9.58,3.14-14.18,4.47,12.05,1.14,23.9,4.49,38.56,9.29,105.81-15,150.42,39.1,150.42,39.1S435,292.85,311.56,335.13Z"/><path d="M486.36,391a3,3,0,0,1-2.32-1.1c-.1-.12-11.21-13.3-34.84-24.52-21.83-10.35-59.12-21.1-112.84-13.51a3.08,3.08,0,0,1-1.35-.12c-14.76-4.83-26.25-8.05-37.91-9.16a3,3,0,0,1-.55-5.87c4.84-1.39,9.44-2.84,14-4.42,64.88-22.23,109.92-6.34,136.28,10.9,28.58,18.7,41.59,42.37,42.13,43.37a3,3,0,0,1-1,3.91A2.94,2.94,0,0,1,486.36,391ZM371.55,343.3c36.5,0,63.23,8.54,80.57,16.82a142.83,142.83,0,0,1,16.29,9.1,134.56,134.56,0,0,0-25.05-21.16,127,127,0,0,0-53-19.56c-24-3.19-50.18,0-77.81,9.47h0l-1.92.65a246.54,246.54,0,0,1,25.59,7.2A258.12,258.12,0,0,1,371.55,343.3Z"/><path class="cls-1" d="M75.08,388h72c23.14-10.58,42.42-19.17,58.85-26C158.58,359.46,127.11,352.94,75.08,388Z"/><path d="M147.05,391h-72a3,3,0,0,1-1.67-5.49c47.42-31.95,78.69-29.94,118.28-27.39,4.63.29,9.43.6,14.37.86a3,3,0,0,1,1,5.77c-15.16,6.32-33.28,14.33-58.76,26A3,3,0,0,1,147.05,391ZM85,385H146.4c19-8.68,33.91-15.34,46.56-20.79l-1.65-.11C129.76,360.14,107.91,370.05,85,385Z"/><path class="cls-1" d="M335.94,348.89c28.56,9.35,67.81,24.22,140.14,39.1h10.28S441.75,333.93,335.94,348.89Z"/><path d="M486.36,391H476.08a3.08,3.08,0,0,1-.61-.07c-61.93-12.73-99.66-25.46-127.21-34.75-4.69-1.58-9.09-3.06-13.25-4.43a3,3,0,0,1,.51-5.82c55.4-7.83,94,3.4,116.6,14.2,24.69,11.79,36.08,25.38,36.55,26a3,3,0,0,1-2.31,4.91Zm-10-6h2.77a123.32,123.32,0,0,0-29.95-19.62c-20-9.47-52.91-19.28-99.53-15.06l.5.17C377.53,359.71,415,372.34,476.38,385Z"/><path class="cls-1" d="M476.08,388c-205.64-42.29-143.95-84.57-329,0C332.13,350.81,270.44,369.4,476.08,388Z"/><path d="M147.05,391a3,3,0,0,1-1.24-5.73c62.37-28.51,99.06-43.73,126.45-47.85,27.07-4.08,46.21,2.38,77.91,13.07,27.4,9.25,64.93,21.91,126.51,34.57a3,3,0,0,1-.88,5.92c-61.84-5.59-99.52-11.17-127-15.25-63.93-9.48-72.14-10.7-201.12,15.21A3.05,3.05,0,0,1,147.05,391Zm141.07-27.51c19,0,35.84,2.49,61.53,6.3,19.46,2.89,44,6.53,78.66,10.39-35.35-8.92-60.32-17.34-80.06-24C289,336.19,278,332.47,172.06,380,232.82,368,262.48,363.48,288.12,363.48Z"/><path class="cls-1" d="M476.08,388c-205.64-18.59-143.95-37.18-329,0h329"/><path d="M476.08,391h-329a3,3,0,0,1-.59-5.95c130-26.11,138.34-24.87,203.19-15.26,27.44,4.07,65,9.64,126.7,15.22a3,3,0,0,1-.27,6Zm-298.51-6h240c-29.5-3.45-51.22-6.67-68.79-9.27C290.19,367,278.39,365.28,177.57,385Z"/></g></svg>