<svg id="2813508" viewBox="0 0 78 78" xmlns="http://www.w3.org/2000/svg" xmlns:xlink="http://www.w3.org/1999/xlink"><g transform="matrix(1,0,0,1,0,0)"><g id="2813508" opacity="1" style="mix-blend-mode:normal"><g><g><g transform="matrix(1,0,0,1,11.156,11.156)"><g id="2813468" opacity="1" style="mix-blend-mode:normal"><g><g><g transform="matrix(1,0,0,1,0,0)"><g id="I28134682813462" opacity="1" style="mix-blend-mode:normal"><g><g><g style="mix-blend-mode:NORMAL"><g><path id="I28134682813462_stroke_path" d="M56,28c0,-3.8668 -0.6524,-7.1428 -2.1308,-10.7156c-1.4784,-3.5728 -3.3348,-6.3476 -6.0704,-9.0832c-2.7356,-2.7356 -5.5104,-4.592 -9.0832,-6.0704c-3.5728,-1.4784 -6.8488,-2.1308 -10.7156,-2.1308" fill="none" stroke="rgb(132, 122, 91)" stroke-width="8" stroke-linecap="butt" stroke-linejoin="miter" stroke-dasharray="0 0" stroke-opacity="1"></path></g></g></g></g></g></g><g transform="matrix(-1,1.2246467991473532e-16,-1.2246467991473532e-16,-1,66,37)"><g id="I28134682813470" opacity="1" style="mix-blend-mode:normal"><g><g><path id="I28134682813470_fill_path" d="M 10 0 C 10 0, 1.3399999999999999 9.75, 1.3399999999999999 9.75 C 1.3399999999999999 9.75, 18.66 9.75, 18.66 9.75 C 18.66 9.75, 10 0, 10 0 Z" fill-rule="nonzero" fill="rgb(132, 122, 91)" fill-opacity="1" style="mix-blend-mode:NORMAL"></path></g></g></g></g></g></g></g></g><g transform="matrix(-0.5368579359867567,-0.8436726596068167,0.8436726596068167,-0.5368579359867567,30.565270914973325,77.81179767729779)"><g id="2813495" opacity="1" style="mix-blend-mode:normal"><g><g><g transform="matrix(1,0,0,1,0,0)"><g id="I28134952813462" opacity="1" style="mix-blend-mode:normal"><g><g><g style="mix-blend-mode:NORMAL"><g><path id="I28134952813462_stroke_path" d="M56,28c0,-3.8668 -0.6524,-7.1428 -2.1308,-10.7156c-1.4784,-3.5728 -3.3348,-6.3476 -6.0704,-9.0832c-2.7356,-2.7356 -5.5104,-4.592 -9.0832,-6.0704c-3.5728,-1.4784 -6.8488,-2.1308 -10.7156,-2.1308" fill="none" stroke="rgb(132, 122, 91)" stroke-width="8" stroke-linecap="butt" stroke-linejoin="miter" stroke-dasharray="0 0" stroke-opacity="1"></path></g></g></g></g></g></g><g transform="matrix(-1,1.2246467991473532e-16,-1.2246467991473532e-16,-1,66,37)"><g id="I28134952813470" opacity="1" style="mix-blend-mode:normal"><g><g><path id="I28134952813470_fill_path" d="M 10 0 C 10 0, 1.3399999999999999 9.75, 1.3399999999999999 9.75 C 1.3399999999999999 9.75, 18.66 9.75, 18.66 9.75 C 18.66 9.75, 10 0, 10 0 Z" fill-rule="nonzero" fill="rgb(132, 122, 91)" fill-opacity="1" style="mix-blend-mode:NORMAL"></path></g></g></g></g></g></g></g></g><g transform="matrix(-0.491055801632406,0.8711281189831694,-0.8711281189831694,-0.491055801632406,77.29686993120055,28.513917014978126)"><g id="2813497" opacity="1" style="mix-blend-mode:normal"><g><g><g transform="matrix(1,0,0,1,0,0)"><g id="I28134972813462" opacity="1" style="mix-blend-mode:normal"><g><g><g style="mix-blend-mode:NORMAL"><g><path id="I28134972813462_stroke_path" d="M56,28c0,-3.8668 -0.6524,-7.1428 -2.1308,-10.7156c-1.4784,-3.5728 -3.3348,-6.3476 -6.0704,-9.0832c-2.7356,-2.7356 -5.5104,-4.592 -9.0832,-6.0704c-3.5728,-1.4784 -6.8488,-2.1308 -10.7156,-2.1308" fill="none" stroke="rgb(132, 122, 91)" stroke-width="8" stroke-linecap="butt" stroke-linejoin="miter" stroke-dasharray="0 0" stroke-opacity="1"></path></g></g></g></g></g></g><g transform="matrix(-1,1.2246467991473532e-16,-1.2246467991473532e-16,-1,65,37)"><g id="I28134972813470" opacity="1" style="mix-blend-mode:normal"><g><g><path id="I28134972813470_fill_path" d="M 10 0 C 10 0, 1.3399999999999999 9.75, 1.3399999999999999 9.75 C 1.3399999999999999 9.75, 18.66 9.75, 18.66 9.75 C 18.66 9.75, 10 0, 10 0 Z" fill-rule="nonzero" fill="rgb(132, 122, 91)" fill-opacity="1" style="mix-blend-mode:NORMAL"></path></g></g></g></g></g></g></g></g></g></g></g></g><animateTransform href="#2813468" attributeName="transform" type="rotate" values="0 28 28;360 28 28" dur="5s" repeatCount="indefinite" calcMode="spline" keyTimes="0;1" keySplines="0 0 1 1" additive="sum" fill="freeze"></animateTransform><animateTransform href="#2813495" attributeName="transform" type="rotate" values="0 28 28;360 28 28" dur="5s" repeatCount="indefinite" calcMode="spline" keyTimes="0;1" keySplines="0 0 1 1" additive="sum" fill="freeze"></animateTransform><animateTransform href="#2813497" attributeName="transform" type="rotate" values="0 28 28;360 28 28" dur="5s" repeatCount="indefinite" calcMode="spline" keyTimes="0;1" keySplines="0 0 1 1" additive="sum" fill="freeze"></animateTransform></svg>