<?xml version="1.0" encoding="UTF-8" standalone="no"?>
<!-- Created with Inkscape (http://www.inkscape.org/) -->

<svg
   version="1.1"
   id="svg2"
   width="755.90533"
   height="755.90533"
   viewBox="0 0 755.90533 755.90533"
   sodipodi:docname="06-Penumbra-logo-symbol-color-transparent-background.ai"
   xmlns:inkscape="http://www.inkscape.org/namespaces/inkscape"
   xmlns:sodipodi="http://sodipodi.sourceforge.net/DTD/sodipodi-0.dtd"
   xmlns="http://www.w3.org/2000/svg"
   xmlns:svg="http://www.w3.org/2000/svg">
  <defs
     id="defs6">
    <radialGradient
       fx="0"
       fy="0"
       cx="0"
       cy="0"
       r="1"
       gradientUnits="userSpaceOnUse"
       gradientTransform="matrix(246.91818,0,0,-246.91818,287.24738,283.30325)"
       spreadMethod="pad"
       id="radialGradient38">
      <stop
         style="stop-opacity:1;stop-color:#563c70"
         offset="0"
         id="stop22" />
      <stop
         style="stop-opacity:1;stop-color:#563c70"
         offset="0.125946"
         id="stop24" />
      <stop
         style="stop-opacity:1;stop-color:#e1813b"
         offset="0.318298"
         id="stop26" />
      <stop
         style="stop-opacity:1;stop-color:#ff902f"
         offset="0.742265"
         id="stop28" />
      <stop
         style="stop-opacity:1;stop-color:#ff902f"
         offset="0.79999979"
         id="stop30" />
      <stop
         style="stop-opacity:1;stop-color:#8be4d9"
         offset="0.939375"
         id="stop32" />
      <stop
         style="stop-opacity:1;stop-color:#8be4d9"
         offset="0.9437689"
         id="stop34" />
      <stop
         style="stop-opacity:1;stop-color:#8be4d9"
         offset="1"
         id="stop36" />
    </radialGradient>
  </defs>
  <sodipodi:namedview
     id="namedview4"
     pagecolor="#ffffff"
     bordercolor="#000000"
     borderopacity="0.25"
     inkscape:showpageshadow="2"
     inkscape:pageopacity="0.0"
     inkscape:pagecheckerboard="0"
     inkscape:deskcolor="#d1d1d1" />
  <g
     id="g8"
     inkscape:groupmode="layer"
     inkscape:label="06-Penumbra-logo-symbol-color-transparent-background"
     transform="matrix(1.3333333,0,0,-1.3333333,0,755.90533)">
    <g
       id="g10">
      <g
         id="g12">
        <g
           id="g18">
          <g
             id="g20">
            <path
               d="m 389.654,527.656 c -18.516,-6.616 -36.659,-14.992 -54.206,-23.092 v 0 c -32.511,-15.009 -63.22,-29.181 -87.955,-27.7 v 0 c -8.521,0.512 -18.921,1.814 -30.962,3.322 v 0 c -44.685,5.596 -105.884,13.261 -137.209,-12.324 v 0 C 69.664,459.974 64.734,446.26 64.252,425.937 v 0 c -0.428,-18.073 2.619,-39.59 5.566,-60.399 v 0 c 4.72,-33.331 9.601,-67.796 0.281,-88.801 v 0 C 49.39,230.07 41.243,193.078 45.192,163.647 v 0 c 4.074,-30.362 20.983,-52.853 51.694,-68.759 v 0 c 18.709,-9.69 36.733,-12.265 55.815,-14.993 v 0 c 25.982,-3.714 55.432,-7.923 94.052,-30.908 v 0 c 18.67,-11.112 35.143,-16.439 51.556,-16.438 v 0 c 5.529,0 11.052,0.603 16.648,1.794 v 0 c 25.384,5.405 52.446,22.996 85.17,55.365 v 0 c 16.834,16.653 37.085,26.335 56.67,35.699 v 0 c 22.619,10.815 46.007,21.998 63.718,43.941 v 0 c 22.356,27.698 2.148,50.779 -19.247,75.215 v 0 c -12.574,14.364 -25.578,29.217 -30.996,45.943 v 0 c -11.844,36.57 -8.94,57.822 -4.546,89.991 v 0 c 2.518,18.434 5.652,41.377 6.427,72.731 v 0 c 0.9,36.503 -6.922,61 -23.254,72.812 v 0 c -7.39,5.345 -16.438,8.019 -27.061,8.019 v 0 c -9.49,0 -20.236,-2.134 -32.184,-6.403 m -54.001,-23.535 c 17.537,8.096 35.671,16.467 54.166,23.077 v 0 c 25.158,8.99 44.939,8.467 58.794,-1.554 v 0 c 16.194,-11.711 23.95,-36.071 23.051,-72.403 v 0 c -0.773,-31.328 -3.905,-54.255 -6.422,-72.678 v 0 c -4.402,-32.235 -7.311,-53.531 4.567,-90.208 v 0 c 0.364,-1.125 0.765,-2.241 1.195,-3.35 v 0 c -0.744,1.774 -1.417,3.568 -2,5.382 v 0 c -11.517,35.852 -9.44,56.872 -6.296,88.692 v 0 c 1.82,18.417 3.881,39.291 3.874,68.372 v 0 c -0.062,34.328 -8.21,57.59 -24.215,69.139 v 0 c -13.881,10.016 -33.385,10.98 -57.967,2.866 v 0 c -18.433,-6.063 -36.534,-13.91 -54.038,-21.499 v 0 c -30.154,-13.074 -58.686,-25.445 -82.363,-25.444 v 0 c -0.761,0 -1.52,0.013 -2.27,0.039 v 0 c -8.319,0.288 -18.626,1.236 -29.538,2.238 v 0 c -43.622,4.011 -103.364,9.503 -134.028,-16.629 v 0 C 60.771,441.805 66.317,398.875 71.682,357.358 v 0 c 4.098,-31.714 8.335,-64.508 0.16,-85.173 v 0 C 53.801,226.575 47.397,190.516 52.263,161.946 v 0 C 57.304,132.35 74.434,110.427 104.63,94.929 v 0 c 19.135,-9.816 37.696,-12.494 57.346,-15.33 v 0 c 25.247,-3.643 53.862,-7.773 90.569,-27.782 v 0 c 17.415,-9.493 32.888,-14.078 48.23,-14.078 v 0 c 6.194,0 12.367,0.748 18.638,2.221 v 0 c 24.643,5.795 50.642,22.924 81.817,53.906 v 0 c 16.019,15.964 34.986,25.758 53.329,35.23 v 0 c 21.698,11.206 44.135,22.792 60.976,44.573 v 0 c 21.084,27.136 2.16,50.007 -17.874,74.222 v 0 l -1.022,1.236 c 1.419,-1.635 2.844,-3.263 4.262,-4.885 v 0 c 21.256,-24.278 41.333,-47.209 19.235,-74.588 v 0 c -17.643,-21.857 -40.981,-33.016 -63.55,-43.807 v 0 c -19.62,-9.381 -39.909,-19.082 -56.802,-35.792 v 0 C 367.13,57.756 340.143,40.204 314.856,34.821 v 0 C 292.774,30.12 271.848,34.618 247.002,49.406 v 0 C 208.299,72.442 178.798,76.658 152.77,80.377 v 0 c -19.039,2.722 -37.024,5.292 -55.66,14.944 v 0 c -30.559,15.827 -47.384,38.198 -51.435,68.391 v 0 c -3.936,29.339 4.199,66.245 24.87,112.828 v 0 c 9.377,21.131 4.486,55.667 -0.244,89.066 v 0 c -2.944,20.789 -5.989,42.287 -5.561,60.319 v 0 c 0.479,20.173 5.349,33.767 14.891,41.56 v 0 c 16.782,13.705 42.233,17.812 69.119,17.812 v 0 c 23.042,0 47.139,-3.018 67.721,-5.595 v 0 c 12.049,-1.509 22.456,-2.813 30.992,-3.325 v 0 c 1.211,-0.073 2.434,-0.108 3.673,-0.108 v 0 c 24.185,0 53.535,13.549 84.517,27.852 m -5.112,-4.577 c 17.495,7.584 35.586,15.429 53.999,21.484 v 0 c 24.44,8.067 43.806,7.124 57.563,-2.804 v 0 c 15.883,-11.459 23.966,-34.598 24.028,-68.774 v 0 c 0.009,-29.057 -2.052,-49.92 -3.871,-68.327 v 0 c -3.149,-31.875 -5.229,-52.933 6.315,-88.873 v 0 c 0.598,-1.86 1.288,-3.697 2.053,-5.513 v 0 c -1.105,2.473 -2.081,4.983 -2.893,7.533 v 0 c -11.173,35.089 -9.898,56.98 -8.131,87.276 v 0 c 1.017,17.453 2.17,37.233 1.406,64.126 v 0 c -1.015,32.16 -9.48,54.184 -25.157,65.461 v 0 c -13.78,9.909 -32.86,11.296 -56.708,4.121 v 0 c -18.448,-5.505 -36.605,-12.843 -54.163,-19.939 v 0 c -29.358,-11.866 -57.099,-23.08 -80.356,-23.079 v 0 c -0.218,0 -0.442,0.002 -0.66,0.004 v 0 c -7.998,0.074 -17.588,0.63 -27.743,1.218 v 0 C 173.508,475.937 115.008,479.33 85.005,452.46 v 0 C 63.621,433.309 68.631,390.442 73.477,348.986 v 0 c 3.672,-31.413 7.141,-61.083 0.111,-81.354 v 0 C 58.168,223.169 53.491,188.058 59.289,160.294 v 0 C 65.316,131.435 82.68,110.068 112.375,94.97 v 0 c 19.673,-9.993 38.906,-12.774 59.268,-15.719 v 0 c 24.403,-3.529 52.061,-7.529 86.695,-24.602 v 0 c 15.954,-7.865 30.631,-11.732 44.982,-11.732 v 0 c 6.892,0 13.712,0.893 20.557,2.664 v 0 c 23.571,6.095 49.232,23.249 78.455,52.442 v 0 c 15.186,15.252 32.846,25.136 49.925,34.695 v 0 c 21.739,12.168 42.273,23.661 58.299,45.271 v 0 c 19.752,26.64 2.13,49.31 -16.526,73.311 v 0 c -1.573,2.023 -3.152,4.055 -4.718,6.101 v 0 c 2.63,-3.301 5.326,-6.562 8.003,-9.797 v 0 c 19.916,-24.071 38.726,-46.808 17.864,-73.659 v 0 c -16.781,-21.703 -39.172,-33.266 -60.827,-44.449 v 0 c -18.372,-9.488 -37.371,-19.298 -53.44,-35.311 v 0 C 369.799,63.264 343.869,46.174 319.308,40.399 v 0 C 297.626,35.3 277.102,38.945 252.76,52.213 v 0 C 215.983,72.26 187.324,76.396 162.04,80.044 v 0 c -19.612,2.831 -38.136,5.505 -57.204,15.286 v 0 c -30.062,15.428 -47.114,37.244 -52.129,66.691 v 0 c -4.852,28.486 1.544,64.468 19.554,109.998 v 0 c 8.218,20.773 3.973,53.626 -0.132,85.397 v 0 c -5.349,41.398 -10.88,84.207 10.326,102.403 v 0 c 18.429,15.704 47.47,19.928 77.176,19.928 v 0 c 19.491,0 39.268,-1.819 56.518,-3.405 v 0 c 10.919,-1.003 21.233,-1.952 29.565,-2.24 v 0 c 0.758,-0.026 1.517,-0.039 2.285,-0.039 v 0 c 23.769,0.001 52.346,12.39 82.542,25.481 m -5.372,-4.7 c 17.548,7.092 35.693,14.426 54.122,19.925 v 0 c 9.888,2.975 19.071,4.484 27.289,4.484 v 0 c 16.631,0 29.658,-6.109 38.72,-18.155 v 0 c 9.318,-12.389 14.433,-31.042 15.204,-55.44 v 0 c 0.763,-26.872 -0.39,-46.64 -1.406,-64.082 v 0 c -1.769,-30.351 -3.048,-52.28 8.155,-87.46 v 0 c 0.42,-1.321 0.886,-2.63 1.389,-3.931 v 0 c -0.809,1.967 -1.541,3.955 -2.175,5.968 v 0 c -10.74,34.045 -10.422,55.47 -9.981,85.123 v 0 c 0.248,16.646 0.529,35.512 -1.047,60.617 v 0 c -1.879,29.944 -10.614,50.711 -25.962,61.726 v 0 c -13.716,9.845 -32.42,11.673 -55.587,5.434 v 0 c -18.593,-4.941 -36.935,-11.792 -54.674,-18.417 v 0 C 291.204,480.172 264.747,470.29 242.204,469.927 v 0 c -7.478,-0.121 -16.136,0.076 -25.302,0.284 v 0 c -42.001,0.954 -99.523,2.258 -129.055,-25.452 v 0 C 66.455,424.687 70.921,381.812 75.239,340.349 v 0 c 3.077,-29.551 5.984,-57.462 0.095,-77.267 v 0 C 62.477,219.852 59.511,185.705 66.262,158.69 v 0 c 7.034,-28.145 24.651,-48.975 53.856,-63.679 v 0 c 20.36,-10.236 40.447,-13.119 61.713,-16.17 v 0 c 23.409,-3.359 49.941,-7.166 82.298,-21.36 v 0 c 14.56,-6.387 28.039,-9.544 41.19,-9.544 v 0 c 7.741,0 15.368,1.095 23.033,3.268 v 0 c 22.825,6.471 47.384,23.146 75.083,50.977 v 0 c 14.292,14.472 30.602,24.378 46.373,33.956 v 0 c 20.854,12.664 40.552,24.626 55.767,46.173 v 0 c 18.461,26.142 2.127,48.646 -15.168,72.473 v 0 c -1.755,2.416 -3.52,4.849 -5.261,7.303 v 0 c 2.771,-3.747 5.64,-7.439 8.483,-11.098 v 0 c 9.448,-12.152 18.371,-23.632 22.605,-35.53 v 0 c 2.261,-6.357 2.982,-12.275 2.201,-18.089 v 0 c -0.871,-6.494 -3.583,-12.734 -8.286,-19.078 v 0 C 494.188,156.767 473.701,145.3 452.009,133.16 v 0 c -17.108,-9.577 -34.8,-19.478 -50.035,-34.777 v 0 C 382.451,78.878 364.932,65.03 348.416,56.051 v 0 C 332.759,47.537 317.961,43.399 303.177,43.399 v 0 c -14.24,0 -28.417,3.719 -44.615,11.704 v 0 c -34.706,17.109 -62.406,21.115 -86.846,24.65 v 0 c -20.32,2.938 -39.512,5.713 -59.112,15.669 v 0 c -29.548,15.022 -46.826,36.277 -52.819,64.976 v 0 c -5.779,27.671 -1.108,62.694 14.281,107.068 v 0 c 7.068,20.381 3.593,50.107 -0.085,81.578 v 0 c -4.831,41.328 -9.826,84.063 11.361,103.039 v 0 c 9.521,8.526 22.25,14.458 38.918,18.135 v 0 c 13.372,2.95 29.207,4.384 48.418,4.384 v 0 c 15.091,0 30.195,-0.876 43.519,-1.649 v 0 c 10.159,-0.589 19.755,-1.146 27.764,-1.22 v 0 c 0.222,-0.003 0.448,-0.003 0.671,-0.003 v 0 c 23.348,0 51.128,11.227 80.537,23.114 m -82.955,-25.555 c 22.652,0.364 49.161,10.266 77.226,20.749 v 0 c 17.723,6.62 36.05,13.466 54.614,18.398 v 0 c 8.851,2.384 17.156,3.593 24.685,3.593 v 0 c 16.625,0 29.831,-5.822 39.25,-17.304 v 0 c 9.697,-11.822 15.354,-29.61 16.812,-52.872 v 0 c 1.575,-25.08 1.295,-43.933 1.047,-60.567 v 0 c -0.436,-29.352 -0.745,-50.666 9.629,-84.093 v 0 c -0.09,0.281 -0.191,0.56 -0.279,0.843 v 0 c -10.29,32.952 -10.965,53.878 -11.898,82.842 v 0 c -0.512,15.867 -1.09,33.85 -3.432,57.236 v 0 c -2.777,27.725 -11.778,47.215 -26.752,57.931 v 0 c -13.638,9.759 -31.97,12.048 -54.483,6.805 v 0 c -18.764,-4.37 -37.339,-10.711 -55.302,-16.843 v 0 c -26.361,-8.999 -51.256,-17.499 -72.888,-18.393 v 0 c -6.697,-0.276 -14.171,-0.377 -22.084,-0.483 v 0 c -21.447,-0.288 -45.754,-0.614 -68.72,-4.464 v 0 C 122.945,458.193 103.663,449.816 90.69,437.06 v 0 C 69.218,415.943 73.145,372.924 76.943,331.322 v 0 c 2.514,-27.549 4.89,-53.569 0.138,-72.791 v 0 C 66.717,216.623 65.44,183.453 73.174,157.13 v 0 c 8.067,-27.453 25.956,-47.758 54.688,-62.077 v 0 c 21.246,-10.57 41.456,-13.408 64.858,-16.694 v 0 c 22.208,-3.117 47.379,-6.651 77.2,-18.045 v 0 c 13.115,-5.011 25.332,-7.5 37.224,-7.5 v 0 c 8.682,0 17.191,1.327 25.746,3.97 v 0 c 22.13,6.834 45.567,23.044 71.647,49.556 v 0 c 13.316,13.535 28.166,23.351 42.529,32.843 v 0 c 20.082,13.273 39.051,25.811 53.529,47.448 v 0 c 17.18,25.676 2.125,48.055 -13.815,71.747 v 0 c -1.249,1.858 -2.503,3.725 -3.75,5.603 v 0 c 2.255,-3.225 4.567,-6.411 6.861,-9.572 v 0 c 8.75,-12.054 17.013,-23.44 20.915,-35.198 v 0 c 4.371,-13.178 2.544,-24.786 -5.752,-36.532 v 0 C 489.915,161.24 470.273,149.312 449.478,136.683 v 0 c -15.806,-9.598 -32.15,-19.525 -46.496,-34.051 v 0 C 383.891,83.45 366.677,69.835 350.355,61.01 v 0 C 334.858,52.633 320.1,48.561 305.238,48.561 v 0 c -12.912,0 -26.274,3.108 -40.852,9.504 v 0 c -32.437,14.229 -59.015,18.043 -82.464,21.407 v 0 c -22.134,3.177 -41.249,5.919 -61.517,16.109 v 0 c -29.03,14.616 -46.537,35.31 -53.524,63.264 v 0 c -6.723,26.901 -3.759,60.938 9.064,104.055 v 0 c 5.925,19.927 3.013,47.899 -0.071,77.515 v 0 c -4.302,41.308 -8.751,84.024 12.41,103.879 v 0 c 10.808,10.141 25.885,17.059 46.09,21.148 v 0 c 20,4.048 41.855,4.516 56.562,4.516 v 0 c 8.982,0 17.609,-0.196 25.954,-0.385 v 0 c 7.278,-0.164 14.154,-0.321 20.401,-0.321 v 0 c 1.765,0 3.375,0.012 4.923,0.037 M 77.709,331.392 c -3.781,41.423 -7.692,84.259 13.52,105.119 v 0 c 12.857,12.643 32.004,20.95 58.539,25.398 v 0 c 22.908,3.839 47.183,4.165 68.603,4.453 v 0 c 7.918,0.106 15.397,0.206 22.104,0.483 v 0 c 21.743,0.9 46.69,9.417 73.103,18.434 v 0 c 17.946,6.126 36.502,12.461 55.229,16.822 v 0 c 7.731,1.8 15.065,2.713 21.797,2.713 v 0 h 0.001 c 16.676,0 30.105,-5.532 39.915,-16.443 v 0 c 10.112,-11.245 16.364,-28.179 18.582,-50.334 v 0 c 2.34,-23.359 2.919,-41.329 3.43,-57.184 v 0 c 0.774,-24.063 1.378,-42.597 7.441,-67.063 v 0 c -6.341,24.34 -7.904,43.082 -9.802,65.874 v 0 c -1.274,15.288 -2.717,32.613 -5.875,54.67 v 0 c -3.661,25.562 -12.939,43.795 -27.574,54.194 v 0 c -13.582,9.652 -31.531,12.383 -53.346,8.119 v 0 c -19.299,-3.771 -38.46,-9.681 -56.989,-15.396 v 0 c -24.329,-7.504 -47.308,-14.591 -67.704,-15.949 v 0 c -5.54,-0.369 -11.488,-0.665 -17.785,-0.978 v 0 c -21.408,-1.063 -45.673,-2.27 -68.578,-6.984 v 0 c -26.611,-5.478 -45.84,-14.63 -58.786,-27.98 v 0 C 71.936,407.088 75.263,363.9 78.549,322.068 v 0 c -0.271,3.083 -0.555,6.193 -0.84,9.324 m 16.471,97.341 c 12.817,13.216 31.894,22.285 58.322,27.724 v 0 c 22.836,4.7 47.064,5.905 68.44,6.967 v 0 c 6.302,0.314 12.253,0.61 17.801,0.979 v 0 c 20.501,1.365 43.529,8.468 67.909,15.987 v 0 c 18.507,5.709 37.645,11.611 56.897,15.373 v 0 c 6.549,1.281 12.835,1.93 18.685,1.931 v 0 h 0.002 c 16.756,0 30.45,-5.261 40.7,-15.633 v 0 c 10.565,-10.692 17.452,-26.793 20.469,-47.855 v 0 c 3.154,-22.029 4.596,-39.343 5.869,-54.617 v 0 c 1.618,-19.431 2.993,-35.923 7.282,-55.443 v 0 c -4.514,18.821 -6.742,34.878 -9.213,52.705 v 0 c -2.097,15.121 -4.473,32.26 -8.619,53.702 v 0 c -4.472,23.123 -13.841,39.972 -27.845,50.079 v 0 c -13.615,9.824 -31.365,13.125 -52.761,9.813 v 0 c -20.192,-3.127 -40.305,-8.658 -59.755,-14.006 v 0 c -21.925,-6.029 -42.633,-11.724 -61.44,-13.45 v 0 c -3.812,-0.35 -7.742,-0.684 -11.901,-1.037 v 0 c -21.605,-1.834 -46.093,-3.913 -69.239,-9.547 v 0 c -26.904,-6.548 -46.335,-16.604 -59.405,-30.744 v 0 c -9.85,-10.657 -15.55,-26.497 -17.425,-48.426 v 0 c -1.331,-15.572 -0.66,-32.628 0.378,-49.607 v 0 c -3.23,41.164 -6.211,83.387 14.849,105.105 M 79.982,373.147 c 1.854,21.691 7.466,37.331 17.154,47.814 v 0 c 12.928,13.986 32.19,23.943 58.891,30.441 v 0 c 23.069,5.615 47.515,7.691 69.083,9.522 v 0 c 4.161,0.353 8.093,0.687 11.909,1.037 v 0 c 18.896,1.735 39.647,7.442 61.618,13.483 v 0 c 19.423,5.341 39.506,10.864 59.639,13.981 v 0 c 5.267,0.816 10.387,1.229 15.22,1.23 v 0 h 0.002 c 16.901,0 30.925,-4.998 41.681,-14.856 v 0 c 11.083,-10.157 18.665,-25.446 22.532,-45.442 v 0 c 4.141,-21.415 6.515,-38.539 8.61,-53.649 v 0 c 2.128,-15.358 4.077,-29.404 7.459,-45.036 v 0 c -3.316,13.663 -5.771,26.088 -8.311,38.946 v 0 c -3.289,16.652 -6.689,33.872 -12.318,56.153 v 0 c -5.368,21.26 -15.153,36.96 -29.079,46.664 v 0 c -13.537,9.433 -30.766,13.068 -51.213,10.806 v 0 c -21.638,-2.394 -43.268,-7.63 -64.186,-12.694 v 0 c -18.949,-4.587 -36.849,-8.921 -53.508,-10.871 v 0 l -3.481,-0.406 C 188.565,455.246 129.513,448.365 99.224,413.963 v 0 C 89.111,402.476 83.16,385.808 81.034,363.008 v 0 c -1.215,-13.021 -1.119,-26.909 -0.576,-40.903 v 0 c -1.089,17.461 -1.843,35.054 -0.476,51.042 m 2.21,-10.246 c 2.103,22.546 7.959,38.998 17.905,50.293 v 0 c 13.276,15.079 33.138,26.137 60.721,33.805 v 0 c 23.798,6.615 48.876,9.538 71.001,12.115 v 0 l 3.481,0.407 c 16.73,1.958 34.662,6.299 53.648,10.896 v 0 c 20.881,5.055 42.474,10.283 64.039,12.669 v 0 c 3.852,0.426 7.642,0.642 11.269,0.642 v 0 h 0.002 c 17.135,0 31.578,-4.75 42.929,-14.116 v 0 c 11.689,-9.648 20.046,-24.157 24.836,-43.126 v 0 c 5.621,-22.252 9.019,-39.456 12.305,-56.094 v 0 c 2.121,-10.737 4.182,-21.171 6.735,-32.276 v 0 c -1.634,6.227 -3.163,12.229 -4.672,18.152 v 0 c -5.289,20.753 -10.284,40.354 -18.812,66.719 v 0 c -6.273,19.4 -16.474,33.952 -30.318,43.254 v 0 c -13.459,9.044 -30.167,13.014 -49.661,11.797 v 0 c -24.01,-1.497 -48.103,-6.606 -71.403,-11.547 v 0 c -15.024,-3.186 -29.216,-6.196 -42.788,-8.127 v 0 c -23.309,-3.317 -48.047,-7.433 -71.046,-15.02 v 0 c -27.176,-8.966 -46.898,-21.095 -60.294,-37.079 v 0 C 91.498,393.65 85.211,375.749 82.85,351.538 v 0 c -1.017,-10.434 -1.258,-21.297 -1.113,-32.285 v 0 c -0.641,14.931 -0.837,29.793 0.455,43.648 m 1.947,-11.488 c 2.334,23.943 8.524,41.612 18.923,54.021 v 0 c 13.237,15.794 32.767,27.792 59.707,36.68 v 0 c 22.903,7.557 47.574,11.66 70.822,14.968 v 0 c 13.616,1.938 27.827,4.951 42.875,8.142 v 0 c 23.254,4.931 47.299,10.031 71.214,11.522 v 0 c 2.241,0.14 4.478,0.211 6.654,0.211 v 0 h 0.002 c 17.484,0 32.465,-4.518 44.53,-13.429 v 0 c 12.415,-9.17 21.662,-22.944 27.482,-40.938 v 0 c 8.514,-26.327 13.505,-45.909 18.787,-66.642 v 0 c 1.021,-4.002 2.051,-8.04 3.114,-12.16 v 0 c -7.378,24.861 -14.433,46.595 -26.242,75.415 v 0 c -7.186,17.54 -17.807,30.946 -31.564,39.846 v 0 c -13.123,8.49 -28.937,12.79 -47.028,12.79 v 0 c -0.357,0 -0.718,-10e-4 -1.076,-0.005 v 0 C 314.21,471.57 285.877,466.177 258.477,460.96 v 0 c -9.324,-1.775 -18.131,-3.452 -26.824,-4.909 v 0 c -28.259,-4.737 -50.299,-10.464 -69.359,-18.024 v 0 c -11.919,-4.727 -22.596,-10.216 -31.732,-16.31 v 0 c -10.195,-6.802 -18.823,-14.589 -25.646,-23.149 v 0 C 93.503,384.25 86.738,364.315 84.235,337.62 v 0 c -0.679,-7.235 -1.023,-14.6 -1.14,-22.03 v 0 c -0.252,12.203 -0.081,24.284 1.044,35.823 m 1.515,-13.927 c 2.477,26.41 9.142,46.099 20.377,60.193 v 0 c 6.73,8.444 15.25,16.133 25.322,22.851 v 0 c 9.053,6.039 19.64,11.481 31.468,16.172 v 0 c 18.964,7.522 40.91,13.223 69.067,17.943 v 0 c 8.709,1.46 17.524,3.137 26.856,4.914 v 0 c 27.338,5.205 55.607,10.587 83.608,10.849 v 0 c 0.354,0.003 0.707,0.006 1.059,0.006 v 0 h 10e-4 c 36.682,0 63.403,-17.896 77.276,-51.752 v 0 c 10.955,-26.735 17.813,-47.372 24.642,-70.085 v 0 c -1.823,5.276 -3.648,10.292 -5.516,15.174 v 0 c -6.489,16.962 -13.919,33.378 -23.379,51.665 v 0 c -16.084,31.093 -43.526,48.457 -79.36,50.213 v 0 c -36.326,1.783 -73.967,-5.482 -107.178,-11.89 v 0 c -25.77,-4.974 -48.534,-12.052 -67.662,-21.04 v 0 c -23.478,-11.032 -41.806,-25.105 -54.473,-41.827 v 0 C 94.576,373.463 87.087,349.497 84.869,317.604 v 0 c -0.165,-2.356 -0.287,-4.725 -0.392,-7.1 v 0 c 0.021,9.114 0.348,18.149 1.177,26.982 m 0.768,-19.99 c 2.196,31.582 9.584,55.275 22.582,72.435 v 0 c 12.513,16.52 30.645,30.435 53.893,41.359 v 0 c 19.011,8.932 41.652,15.971 67.295,20.92 v 0 c 29.477,5.687 62.889,12.135 95.503,12.136 v 0 h 0.002 c 3.835,0 7.639,-0.092 11.303,-0.272 v 0 c 35.246,-1.728 62.236,-18.801 78.053,-49.374 v 0 c 11.93,-23.062 20.243,-42.412 27.355,-62.417 v 0 c -8.331,20.487 -18.379,39.247 -31.544,59.343 v 0 c -17.968,27.433 -45.305,43.962 -79.053,47.8 v 0 c -29.668,3.374 -63.579,0.757 -103.668,-8 v 0 c -11.742,-2.565 -23.146,-5.826 -33.896,-9.695 v 0 c -11.422,-4.111 -22.209,-8.946 -32.062,-14.37 v 0 C 140.432,415.382 123.079,400.515 110.61,383.176 v 0 c -7.032,-9.778 -12.687,-21.345 -16.813,-34.381 v 0 C 90.063,336.993 87.491,323.69 86.15,309.256 v 0 c -0.105,-1.126 -0.199,-2.263 -0.289,-3.407 v 0 c 0.115,3.904 0.293,7.792 0.561,11.647 m 1.409,-8.396 c 2.795,30.102 10.921,54.693 24.15,73.089 v 0 c 12.322,17.135 29.487,31.835 51.019,43.692 v 0 c 19.151,10.545 41.189,18.585 65.503,23.895 v 0 c 28.9,6.313 54.173,9.382 77.265,9.382 v 0 h 0.002 c 8.926,0 17.622,-0.475 25.85,-1.41 v 0 c 33.234,-3.779 60.147,-20.048 77.832,-47.047 v 0 c 11.978,-18.286 21.365,-35.458 29.224,-53.851 v 0 c -1.181,2.426 -2.393,4.827 -3.644,7.186 v 0 c -8.059,15.201 -17.785,29.528 -29.737,43.797 v 0 c -10.046,11.995 -21.937,21.972 -35.34,29.651 v 0 c -13.218,7.573 -27.823,12.868 -43.411,15.738 v 0 c -12.464,2.336 -25.53,3.511 -38.977,3.511 v 0 c -3.575,0 -7.178,-0.083 -10.803,-0.249 v 0 c -16.488,-0.758 -33.436,-3.238 -50.375,-7.371 v 0 c -11.537,-2.814 -22.811,-6.524 -33.507,-11.029 v 0 c -10.833,-4.561 -21.165,-9.976 -30.709,-16.091 v 0 c -9.75,-6.248 -18.779,-13.292 -26.834,-20.939 v 0 c -8.287,-7.867 -15.65,-16.471 -21.881,-25.573 v 0 c -6.93,-10.203 -12.667,-21.723 -17.052,-34.241 v 0 c -4.163,-11.881 -7.148,-24.773 -8.874,-38.314 v 0 c -0.145,-1.14 -0.271,-2.291 -0.399,-3.44 v 0 c 0.178,3.271 0.407,6.48 0.698,9.614 m 199.77,145.814 h 0.004 c 13.291,0 26.28,-1.171 38.609,-3.482 v 0 c 31.085,-5.722 57.949,-21.203 77.686,-44.768 v 0 c 12.349,-14.743 22.507,-29.871 30.807,-45.989 v 0 c -33.371,57.17 -95.081,92.623 -161.294,92.618 v 0 c -9.987,0 -20.079,-0.809 -30.192,-2.47 v 0 c 15.021,2.714 29.889,4.091 44.38,4.091 M 214.017,91.084 c -18.832,6.389 -36.434,15.713 -52.318,27.71 v 0 c -16.044,12.117 -29.903,26.646 -41.193,43.178 v 0 c -11.679,17.103 -20.36,36.01 -25.804,56.195 v 0 c -6.5,24.112 -8.085,48.774 -4.708,73.302 v 0 c 3.26,23.692 10.988,46.264 22.968,67.089 v 0 c 11.98,20.825 27.608,38.853 46.45,53.582 v 0 c 19.505,15.249 41.621,26.277 65.732,32.778 v 0 c 15.808,4.262 32.048,6.424 48.278,6.424 v 0 h 0.002 c 20.128,0 40.033,-3.291 59.161,-9.781 v 0 c 18.832,-6.391 36.434,-15.714 52.315,-27.712 v 0 c 16.045,-12.119 29.903,-26.647 41.191,-43.179 v 0 c 11.68,-17.102 20.36,-36.009 25.804,-56.194 v 0 c 6.5,-24.111 8.084,-48.773 4.708,-73.301 v 0 c -3.26,-23.691 -10.988,-46.264 -22.968,-67.089 v 0 c -11.98,-20.825 -27.607,-38.852 -46.45,-53.581 v 0 C 367.68,105.255 345.564,94.227 321.452,87.726 v 0 c -15.81,-4.263 -32.051,-6.424 -48.269,-6.424 v 0 c -20.13,0 -40.036,3.291 -59.166,9.782 M 89.337,302.696 c 3.542,27.797 12.164,51.942 25.623,71.757 v 0 c 12.242,17.882 28.458,33.361 48.195,46.008 v 0 c 18.247,11.692 38.749,20.493 60.967,26.199 v 0 C 150.61,426.619 99.32,365.353 88.47,294.538 v 0 c 0.242,2.743 0.525,5.467 0.867,8.158 M 270.194,61.033 c -29.901,11.424 -55.118,14.966 -77.368,18.089 v 0 c -23.334,3.276 -43.487,6.105 -64.621,16.619 v 0 c -28.53,14.218 -46.29,34.37 -54.292,61.606 v 0 c -7.696,26.19 -6.416,59.226 3.914,101 v 0 c 2.761,11.168 3.133,24.582 2.47,39.238 v 0 c 0.911,-16.196 0.975,-31.149 -1.47,-43.601 v 0 c -7.951,-40.509 -7.561,-72.688 1.195,-98.376 v 0 c 9.126,-26.778 27.307,-46.571 55.584,-60.515 v 0 c 22.405,-11.024 43.986,-13.93 68.977,-17.294 v 0 C 225.294,75.01 248.77,71.85 275.71,63.148 v 0 c 11.502,-3.715 22.301,-5.571 32.794,-5.571 v 0 c 9.787,0 19.309,1.615 28.89,4.84 v 0 c 21.383,7.197 43.706,22.925 68.246,48.08 v 0 c 12.245,12.553 25.606,22.176 38.527,31.481 v 0 c 19.384,13.96 37.692,27.145 51.447,48.972 v 0 c 15.914,25.256 2.127,47.564 -12.47,71.179 v 0 c -0.9,1.457 -1.804,2.919 -2.705,4.389 v 0 c 1.882,-2.883 3.799,-5.738 5.704,-8.568 v 0 c 8.056,-11.977 15.666,-23.289 19.237,-34.929 v 0 c 3.998,-13.029 2.274,-24.457 -5.425,-35.962 v 0 C 485.564,165.55 466.657,153.054 446.641,139.825 v 0 c -14.394,-9.515 -29.28,-19.353 -42.653,-32.946 v 0 C 385.391,87.973 368.482,74.555 352.297,65.857 v 0 C 336.929,57.598 322.149,53.583 307.108,53.583 v 0 c -11.72,0 -23.794,2.437 -36.914,7.45 m 188.324,230.624 c 4.987,-23.039 7.111,-46.822 0.464,-69.989 v 0 c -4.255,-14.826 -10.396,-28.862 -18.775,-42.906 v 0 c -7.541,-12.642 -16.771,-25.056 -28.215,-37.957 v 0 C 387.342,113.02 358.344,94.919 325.677,86.889 v 0 c 89.73,26.155 145.355,114.129 132.841,204.768 M 316.189,83.005 c 9.396,1.698 18.623,4.214 27.423,7.48 v 0 c 8.704,3.23 17.225,7.28 25.327,12.038 v 0 c 8.016,4.707 15.836,10.235 23.243,16.427 v 0 c 7.332,6.131 14.456,13.078 21.172,20.648 v 0 c 11.52,12.985 20.815,25.492 28.416,38.231 v 0 c 4.095,6.864 7.736,13.895 10.824,20.898 v 0 c 3.226,7.317 5.964,14.867 8.137,22.439 v 0 c 3.968,13.827 5.151,28.66 3.619,45.348 v 0 c -0.626,6.833 -1.691,13.952 -3.283,21.816 v 0 c 6.649,-24.267 11.119,-47.562 3.053,-70.925 v 0 C 452.728,184.402 431.631,159.377 411,136.574 v 0 C 395.852,119.831 380.368,107.272 363.661,98.178 v 0 C 346.88,89.043 329.408,83.702 310.25,81.848 v 0 c -0.85,-0.082 -1.694,-0.162 -2.534,-0.24 v 0 c 2.817,0.421 5.643,0.886 8.473,1.397 m -5.775,-2.838 c 9.587,0.928 18.983,2.784 27.926,5.52 v 0 c 8.94,2.734 17.732,6.437 26.129,11.009 v 0 c 8.37,4.556 16.633,10.129 24.56,16.562 v 0 c 7.878,6.396 15.692,13.859 23.223,22.183 v 0 c 9.936,10.984 21.409,24.112 31.16,38.215 v 0 c 9.934,14.367 17.23,28.497 22.304,43.197 v 0 c 7.805,22.613 4.13,44.995 -2.013,68.186 v 0 c 8.143,-24.582 15.142,-47.94 5.552,-71.923 v 0 c -11.81,-29.532 -31.832,-51.153 -53.028,-74.044 v 0 c -2.059,-2.222 -4.134,-4.464 -6.223,-6.733 v 0 C 377.079,96.553 343.588,79.569 304.608,78.886 v 0 c -5.025,-0.087 -9.374,-0.149 -13.339,-0.185 v 0 c 6.158,0.341 12.527,0.826 19.145,1.466 M 275.987,64.005 c -27.016,8.726 -50.535,11.893 -71.285,14.686 v 0 c -24.912,3.353 -46.425,6.25 -68.698,17.209 v 0 c -28.052,13.832 -46.085,33.459 -55.13,59.999 v 0 c -8.702,25.535 -9.084,57.561 -1.163,97.911 v 0 c 1.642,8.368 2.159,17.84 2.052,28.042 v 0 c 0.382,-11.764 0.209,-22.737 -1.188,-32.415 v 0 C 69.198,170.598 89.145,121.567 143.35,95.135 v 0 c 23.955,-11.656 47.38,-14.587 74.502,-17.979 v 0 c 19.696,-2.464 40.062,-5.012 63.646,-11.173 v 0 c 9.726,-2.541 18.935,-3.816 27.878,-3.816 v 0 c 11.091,0 21.775,1.961 32.529,5.898 v 0 c 20.627,7.55 41.834,22.79 64.836,46.59 v 0 c 11.035,11.417 22.804,20.668 34.186,29.613 v 0 c 18.83,14.802 36.617,28.782 49.705,51.002 v 0 c 14.668,24.901 2.131,47.212 -11.141,70.832 v 0 c -0.578,1.032 -1.161,2.068 -1.742,3.106 v 0 c 1.532,-2.538 3.085,-5.054 4.629,-7.552 v 0 c 7.372,-11.928 14.336,-23.194 17.581,-34.744 v 0 c 3.629,-12.917 2.006,-24.191 -5.107,-35.481 v 0 c -13.661,-21.679 -31.901,-34.816 -51.211,-48.723 v 0 c -12.952,-9.328 -26.346,-18.973 -38.646,-31.582 v 0 C 386.791,92.465 370.113,79.22 354.008,70.634 v 0 c -15.326,-8.17 -30.22,-12.143 -45.53,-12.143 v 0 c -10.377,0 -21.005,1.804 -32.491,5.514 m 28.648,13.325 c 39.436,0.69 73.281,17.833 106.516,53.954 v 0 c 2.087,2.268 4.187,4.537 6.219,6.731 v 0 c 10.896,11.767 21.186,22.881 30.321,34.861 v 0 c 10.256,13.451 17.568,26.054 23.009,39.663 v 0 c 9.3,23.256 3.393,45.727 -4.274,69.21 v 0 c 0.149,-0.385 0.3,-0.773 0.449,-1.157 v 0 c 9.488,-24.451 18.449,-47.546 7.51,-71.782 v 0 c -11.686,-25.889 -29.75,-44.23 -48.876,-63.646 v 0 c -5.388,-5.471 -10.958,-11.125 -16.503,-17.064 v 0 C 391.876,109.752 375.289,96.672 358.298,88.109 v 0 C 341.731,79.758 324.735,75.7 306.344,75.7 v 0 c -2.428,0 -4.922,0.072 -7.408,0.216 v 0 c -7.269,0.417 -14.397,0.761 -21.29,1.094 v 0 c -0.858,0.041 -1.711,0.083 -2.565,0.125 v 0 c 2.439,-0.027 4.877,-0.039 7.309,-0.039 v 0 c 7.498,0 14.944,0.106 22.245,0.234 m 50.828,7.819 c 18.344,8.553 36.198,22.284 54.585,41.978 v 0 c 5.532,5.924 11.095,11.574 16.476,17.036 v 0 c 19.218,19.51 37.371,37.939 49.161,64.06 v 0 c 10.786,23.899 2.739,46.48 -6.457,70.243 v 0 c 0.552,-1.245 1.105,-2.484 1.656,-3.719 v 0 c 10.611,-23.781 20.632,-46.243 8.626,-70.263 v 0 c -11.941,-23.888 -29.362,-40.203 -47.806,-57.477 v 0 c -7.773,-7.281 -15.812,-14.81 -23.698,-23.148 v 0 c -17.299,-18.29 -33.725,-31.3 -50.216,-39.771 v 0 C 341.854,75.905 325.759,71.926 308.583,71.926 v 0 c -4.966,0 -10.13,0.341 -15.348,1.013 v 0 c -12.303,1.584 -23.924,2.665 -35.173,3.649 v 0 c 6.371,-0.367 12.869,-0.681 19.515,-1.002 v 0 c 6.89,-0.333 14.014,-0.676 21.277,-1.095 v 0 c 2.523,-0.145 5.019,-0.217 7.492,-0.217 v 0 c 17.339,0 33.474,3.58 49.117,10.875 m -4.519,-5.723 c 19.102,8.229 38.074,22.472 58.003,43.543 v 0 c 7.859,8.31 15.882,15.825 23.642,23.093 v 0 c 18.531,17.355 36.033,33.748 48.079,57.844 v 0 c 12.276,24.563 2.14,47.292 -8.595,71.355 v 0 c 0.896,-1.8 1.799,-3.591 2.697,-5.37 v 0 c 11.837,-23.467 23.018,-45.631 9.859,-69.745 v 0 C 472.226,177.417 454.831,162.481 436.415,146.67 v 0 c -9.713,-8.339 -19.757,-16.963 -29.412,-27.055 v 0 C 389.46,101.278 373.047,88.25 356.827,79.791 v 0 C 341.26,71.674 325.761,67.728 309.442,67.728 v 0 c -7.12,0 -14.294,0.73 -21.933,2.232 v 0 c -16.947,3.332 -32.376,5.227 -47.227,6.888 v 0 c 3.911,-0.356 7.879,-0.7 11.911,-1.049 v 0 c 13.024,-1.127 26.492,-2.291 40.878,-4.145 v 0 c 5.256,-0.676 10.398,-1.016 15.451,-1.016 v 0 c 14.785,0 28.778,2.909 42.422,8.788 m -4.52,-5.694 c 19.863,7.896 39.954,22.642 61.42,45.08 v 0 c 9.614,10.05 19.636,18.654 29.329,26.975 v 0 c 18.499,15.884 35.972,30.887 48.478,53.802 v 0 c 13.449,24.65 2.135,47.078 -9.844,70.826 v 0 c -0.287,0.571 -0.576,1.145 -0.866,1.719 v 0 c 1.211,-2.195 2.435,-4.373 3.651,-6.537 v 0 c 6.698,-11.921 13.025,-23.179 15.95,-34.68 v 0 c 3.269,-12.855 1.744,-24.016 -4.799,-35.124 v 0 C 476.754,173.741 459.041,159.82 440.289,145.079 v 0 C 428.881,136.112 417.084,126.841 406,115.372 v 0 C 388.15,96.904 371.643,83.793 355.537,75.29 v 0 C 340.157,67.171 325.038,63.224 309.316,63.224 v 0 c -8.865,0 -17.879,1.229 -27.558,3.757 v 0 c -23.649,6.178 -44.968,8.846 -63.778,11.198 v 0 c -1.011,0.127 -2.015,0.253 -3.016,0.378 v 0 c 5.949,-0.741 12.035,-1.413 18.302,-2.103 v 0 c 16.954,-1.866 34.484,-3.795 54.019,-7.636 v 0 c 7.563,-1.486 14.903,-2.231 22.075,-2.231 v 0 c 12.798,0 25.057,2.374 37.064,7.145 M 143.802,96.062 C 90.059,122.27 70.293,170.959 81.597,249.289 v 0 c 0.885,6.144 1.277,12.805 1.354,19.842 v 0 c 0.176,-8.598 0.055,-16.746 -0.628,-24.24 v 0 C 80.65,226.523 80.708,209.553 82.494,194.45 v 0 c 1.827,-15.44 5.53,-29.504 11.004,-41.803 v 0 c 5.571,-12.513 13.18,-23.655 22.614,-33.113 v 0 c 9.556,-9.58 21.325,-17.776 34.982,-24.358 v 0 c 20.222,-9.725 40.381,-13.631 62.432,-16.438 v 0 c -25.161,3.173 -47.241,6.385 -69.724,17.324 m 7.797,0.162 c -13.538,6.525 -25.201,14.644 -34.664,24.132 v 0 c -9.334,9.357 -16.86,20.381 -22.373,32.764 v 0 c -5.429,12.192 -9.1,26.143 -10.913,41.467 v 0 c -1.777,15.022 -1.834,31.912 -0.168,50.199 v 0 c 0.365,3.997 0.571,8.173 0.658,12.501 v 0 c 0.125,-5.879 0.13,-11.546 -0.066,-16.94 v 0 c -0.643,-17.597 0.354,-33.955 2.962,-48.62 v 0 c 2.653,-14.913 7.057,-28.553 13.09,-40.541 v 0 c 6.121,-12.163 14.114,-23.011 23.756,-32.242 v 0 c 9.764,-9.348 21.525,-17.33 34.956,-23.727 v 0 c 16.336,-7.76 32.842,-11.983 50.246,-14.719 v 0 C 188.91,83.26 170.259,87.25 151.599,96.224 m 7.795,0.162 c -13.307,6.337 -24.955,14.241 -34.617,23.493 v 0 c -9.536,9.128 -17.441,19.858 -23.496,31.89 v 0 c -5.976,11.875 -10.34,25.395 -12.971,40.186 v 0 c -2.592,14.573 -3.583,30.839 -2.944,48.345 v 0 c 0.071,1.94 0.113,3.915 0.137,5.92 v 0 c 0.139,-3.546 0.251,-7.018 0.318,-10.414 v 0 c 0.335,-16.822 2.243,-32.569 5.673,-46.804 v 0 c 3.465,-14.38 8.573,-27.594 15.182,-39.277 v 0 c 6.683,-11.81 15.076,-22.364 24.946,-31.373 v 0 c 9.985,-9.111 21.746,-16.881 34.958,-23.092 v 0 c 14.735,-6.914 29.783,-11.153 45.464,-13.902 v 0 c -18.322,2.706 -35.599,6.927 -52.65,15.028 m 7.793,0.163 c -13.083,6.152 -24.724,13.841 -34.604,22.857 v 0 c -9.759,8.906 -18.058,19.343 -24.666,31.021 v 0 c -12.962,22.91 -19.907,51.421 -20.653,84.748 v 0 c 0.002,-0.022 0.004,-0.044 0.005,-0.065 v 0 c 0.102,-1.29 0.202,-2.572 0.302,-3.844 v 0 c 2.527,-32.267 11.136,-60.198 25.587,-83.017 v 0 c 14.619,-23.087 35.198,-40.901 61.166,-52.949 v 0 c 9.517,-4.408 19.357,-7.873 30.081,-10.594 v 0 c 3.641,-0.923 7.356,-1.752 11.176,-2.495 v 0 c -16.767,2.708 -32.773,7.01 -48.394,14.338 m 7.792,0.164 c -25.692,11.921 -46.049,29.539 -60.505,52.368 v 0 c -12.837,20.27 -21.017,44.633 -24.378,72.53 v 0 c 4.657,-28.577 14.561,-53.746 29.48,-74.871 v 0 c 7.821,-11.072 17.057,-21.03 27.451,-29.593 v 0 c 10.457,-8.615 22.246,-15.951 35.039,-21.805 v 0 c 11.872,-5.424 24.391,-9.506 37.85,-12.339 v 0 c -16.547,2.893 -31.305,7.397 -44.937,13.71 m 7.789,0.165 c -25.399,11.621 -46.197,28.725 -61.813,50.837 v 0 c -12.266,17.368 -21.111,37.508 -26.401,60.061 v 0 c 2.644,-9.403 5.945,-18.483 9.878,-27.117 v 0 c 5.809,-12.761 13.045,-24.694 21.507,-35.469 v 0 c 8.391,-10.685 18.067,-20.329 28.758,-28.668 v 0 c 10.7,-8.346 22.514,-15.458 35.112,-21.138 v 0 c 9.429,-4.248 19.384,-7.729 29.592,-10.348 v 0 c 1.509,-0.386 3.03,-0.749 4.559,-1.101 v 0 c -14.814,2.834 -28.475,7.132 -41.192,12.943 m 7.789,0.164 c -25.159,11.344 -46.418,27.921 -63.186,49.273 v 0 c -11.251,14.324 -20.133,30.369 -26.558,47.929 v 0 C 124.075,138.38 172.465,98.589 228.838,84.733 v 0 c -13.384,2.747 -26.176,6.856 -38.281,12.309"
               style="fill:url(#radialGradient38);stroke:none"
               id="path40" />
          </g>
        </g>
      </g>
    </g>
  </g>
</svg>
