<svg width="64" height="64" viewBox="0 0 64 64" fill="none" xmlns="http://www.w3.org/2000/svg">
<path d="M31.69 8.17081C31.2324 8.31919 30.772 8.44936 30.31 8.55545V16.1328C30.445 16.1296 30.5802 16.1281 30.7155 16.1281C31.0409 16.1282 31.3658 16.1377 31.69 16.1567V8.17081Z" fill="url(#paint0_radial_1348_12148)"/>
<path d="M33.7957 16.4143C34.2479 16.4989 34.6967 16.6021 35.1412 16.7238L37.3284 5.72811C37.0618 5.8544 36.7922 5.9836 36.5198 6.11414C36.2733 6.23228 36.0245 6.35151 35.7736 6.47067L33.7957 16.4143Z" fill="url(#paint1_radial_1348_12148)"/>
<path d="M43.0038 3.22096L37.1298 17.4021C37.5563 17.5774 37.9749 17.7696 38.3848 17.9783L44.7622 2.58203C44.584 2.63921 44.4034 2.70061 44.2204 2.76622C43.8133 2.91078 43.4077 3.0629 43.0038 3.22096Z" fill="url(#paint2_radial_1348_12148)"/>
<path d="M51.0291 2.78302L40.1731 19.0302C40.5549 19.2871 40.9265 19.5596 41.2871 19.8469L52.0867 3.68418C51.8434 3.40964 51.5779 3.16794 51.2903 2.95933C51.2051 2.89758 51.118 2.83881 51.0291 2.78302Z" fill="url(#paint3_radial_1348_12148)"/>
<path d="M54.0511 9.97374L42.8096 21.2152C43.1325 21.5419 43.4431 21.8823 43.7407 22.2357L54.0577 11.9188C54.0603 11.8362 54.0627 11.7537 54.0651 11.6711C54.0795 11.0788 54.0748 10.513 54.0511 9.97374Z" fill="url(#paint4_radial_1348_12148)"/>
<path d="M53.6038 18.067L44.9481 23.8505C45.2023 24.2349 45.4411 24.6291 45.664 25.0319L53.369 19.8835C53.4549 19.279 53.5332 18.6734 53.6038 18.067Z" fill="url(#paint5_radial_1348_12148)"/>
<path d="M52.8742 24.1927L46.5264 26.8221C46.7024 27.2471 46.8618 27.6793 47.0044 28.1178L52.8469 25.6977C52.8352 25.1927 52.8461 24.6946 52.8742 24.1927Z" fill="url(#paint6_radial_1348_12148)"/>
<path d="M53.2277 28.875L47.5065 30.013C47.552 30.2334 47.5934 30.455 47.6306 30.6776C47.6694 30.9096 47.7035 31.1422 47.733 31.375L53.5614 30.2157C53.4301 29.7499 53.3196 29.3045 53.2277 28.875Z" fill="url(#paint7_radial_1348_12148)"/>
<path d="M54.902 33.3099H47.8712C47.8789 33.7704 47.8687 34.2308 47.8408 34.6899H55.8958C55.5399 34.2384 55.2034 33.7793 54.902 33.3099Z" fill="url(#paint8_radial_1348_12148)"/>
<path d="M59.4604 38.9572L47.6198 36.602C47.5423 37.0552 47.4473 37.5057 47.3346 37.9523L60.4562 40.5623C60.1945 40.0234 59.8522 39.4898 59.4604 38.9572Z" fill="url(#paint9_radial_1348_12148)"/>
<path d="M60.0893 45.3021L46.7658 39.7833C46.7489 39.8288 46.7319 39.8742 46.7146 39.9196C46.5678 40.3053 46.4079 40.6848 46.2354 41.0573L59.1588 46.4104C59.3921 46.1642 59.6189 45.9054 59.8384 45.6329C59.9276 45.522 60.0112 45.4117 60.0893 45.3021Z" fill="url(#paint10_radial_1348_12148)"/>
<path d="M55.2399 49.3656L45.3373 42.7489C45.0994 43.1434 44.8463 43.5279 44.5787 43.9016L53.8543 50.0994C54.3192 49.8655 54.7825 49.623 55.2399 49.3656Z" fill="url(#paint11_radial_1348_12148)"/>
<path d="M49.9803 52.0036L43.3759 45.3992C43.0686 45.7414 42.7476 46.0714 42.4136 46.3885L48.7257 52.7006C49.1395 52.4556 49.5587 52.2249 49.9803 52.0036Z" fill="url(#paint12_radial_1348_12148)"/>
<path d="M45.7755 54.8687L40.9428 47.636C40.5748 47.9144 40.1967 48.1772 39.8095 48.4238L44.7691 55.8464C45.0008 55.6244 45.235 55.396 45.4716 55.1611C45.5719 55.0616 45.6732 54.9642 45.7755 54.8687Z" fill="url(#paint13_radial_1348_12148)"/>
<path d="M41.853 58.3961L38.1151 49.3721C37.7011 49.5738 37.2793 49.7585 36.8507 49.9257L40.7108 59.2447C41.0857 58.9818 41.4662 58.699 41.853 58.3961Z" fill="url(#paint14_radial_1348_12148)"/>
<path d="M37.1204 61.2329L34.9915 50.5302C34.5471 50.6468 34.0973 50.7455 33.6432 50.8257L35.7998 61.6675C36.2349 61.5529 36.6746 61.4083 37.1204 61.2329Z" fill="url(#paint15_radial_1348_12148)"/>
<path d="M31.69 61.8528V51.0544C31.2301 51.0812 30.7697 51.0891 30.31 51.0782V61.5038C30.7761 61.6549 31.2351 61.771 31.69 61.8528Z" fill="url(#paint16_radial_1348_12148)"/>
<path d="M26.593 59.6986L28.34 50.9155C27.8849 50.8509 27.4321 50.7677 26.9826 50.6659L25.3216 59.0165C25.736 59.2252 26.1596 59.4519 26.593 59.6986Z" fill="url(#paint17_radial_1348_12148)"/>
<path d="M21.9657 57.6177L25.0743 50.1128C24.6393 49.9589 24.2119 49.7879 23.7929 49.6002L20.6368 57.2198C21.069 57.3359 21.5116 57.4673 21.9657 57.6177Z" fill="url(#paint18_radial_1348_12148)"/>
<path d="M16.8212 56.4627L22.0221 48.679C21.6268 48.4431 21.2413 48.1913 20.8665 47.9245L15.3079 56.2435C15.5166 56.2741 15.7262 56.3042 15.9368 56.3344L15.9708 56.3393C16.2507 56.3794 16.534 56.42 16.8212 56.4627Z" fill="url(#paint19_radial_1348_12148)"/>
<path d="M10.7741 55.2023L19.306 46.6705C18.9651 46.3623 18.6361 46.0403 18.3199 45.7049L9.41578 54.6091C9.8712 54.8392 10.3234 55.0345 10.7741 55.2023Z" fill="url(#paint20_radial_1348_12148)"/>
<path d="M5.60452 51.7988L17.0282 44.1657C16.7541 43.798 16.4938 43.4184 16.2478 43.0274L4.74705 50.712C5.00405 51.09 5.28978 51.4521 5.60452 51.7988Z" fill="url(#paint21_radial_1348_12148)"/>
<path d="M3.11273 46.2983L15.2736 41.2611C15.0745 40.8453 14.8921 40.4226 14.7267 39.994L3.00391 44.8497C3.01477 45.3489 3.05108 45.8315 3.11273 46.2983Z" fill="url(#paint22_radial_1348_12148)"/>
<path d="M3.5343 40.1667L14.1063 38.0638C13.9907 37.6183 13.8926 37.1684 13.8121 36.7153L3.91199 38.6845C3.76926 39.1906 3.64339 39.6846 3.5343 40.1667Z" fill="url(#paint23_radial_1348_12148)"/>
<path d="M5.28635 34.6899H13.5709C13.5429 34.2312 13.5326 33.7708 13.5402 33.3099H5.85966C5.65777 33.7781 5.46668 34.2381 5.28635 34.6899Z" fill="url(#paint24_radial_1348_12148)"/>
<path d="M6.69671 29.8689L13.693 31.2605C13.7151 31.0939 13.7397 30.9275 13.7666 30.7612C13.8134 30.4723 13.8672 30.1852 13.928 29.9002L6.71566 28.4656C6.72682 28.9492 6.72186 29.4183 6.69671 29.8689Z" fill="url(#paint25_radial_1348_12148)"/>
<path d="M6.38262 24.5498L14.4774 27.9027C14.6255 27.466 14.7904 27.036 14.9715 26.6137L6.17081 22.9683C6.2444 23.4965 6.31632 24.025 6.38262 24.5498Z" fill="url(#paint26_radial_1348_12148)"/>
<path d="M5.51179 17.798L15.9081 24.7446C16.1385 24.346 16.3844 23.9567 16.6454 23.5775L5.39949 16.0633C5.41844 16.6242 5.45796 17.2049 5.51179 17.798Z" fill="url(#paint27_radial_1348_12148)"/>
<path d="M6.57921 10.5541L17.9425 21.9174C18.2467 21.5731 18.5651 21.2404 18.897 20.9203L7.59272 9.61598C7.4546 9.71284 7.32055 9.81433 7.19079 9.92061C6.96546 10.1048 6.76168 10.3157 6.57921 10.5541Z" fill="url(#paint28_radial_1348_12148)"/>
<path d="M12.7432 7.91631L20.5122 19.5435C20.8814 19.2662 21.2604 19.0047 21.6482 18.7595L14.3242 7.79843C13.788 7.82021 13.2596 7.85843 12.7432 7.91631Z" fill="url(#paint29_radial_1348_12148)"/>
<path d="M19.4763 7.98022L23.517 17.7352C23.9339 17.5395 24.3583 17.3609 24.7889 17.1999L21.0361 8.13973C20.5237 8.08255 20.0026 8.02841 19.4763 7.98022Z" fill="url(#paint30_radial_1348_12148)"/>
<path d="M25.2545 8.65278L26.8313 16.5798C27.2786 16.4742 27.7306 16.3868 28.1862 16.3179L26.6912 8.80189C26.2477 8.76415 25.768 8.71285 25.2545 8.65278Z" fill="url(#paint31_radial_1348_12148)"/>
<defs>
<radialGradient id="paint0_radial_1348_12148" cx="0" cy="0" r="1" gradientUnits="userSpaceOnUse" gradientTransform="translate(30.5 34) rotate(90) scale(30 29.0796)">
<stop offset="0.572904" stop-color="white" stop-opacity="0.2"/>
<stop offset="1" stop-color="white"/>
</radialGradient>
<radialGradient id="paint1_radial_1348_12148" cx="0" cy="0" r="1" gradientUnits="userSpaceOnUse" gradientTransform="translate(30.5 34) rotate(90) scale(30 29.0796)">
<stop offset="0.572904" stop-color="white" stop-opacity="0.2"/>
<stop offset="1" stop-color="white"/>
</radialGradient>
<radialGradient id="paint2_radial_1348_12148" cx="0" cy="0" r="1" gradientUnits="userSpaceOnUse" gradientTransform="translate(30.5 34) rotate(90) scale(30 29.0796)">
<stop offset="0.572904" stop-color="white" stop-opacity="0.2"/>
<stop offset="1" stop-color="white"/>
</radialGradient>
<radialGradient id="paint3_radial_1348_12148" cx="0" cy="0" r="1" gradientUnits="userSpaceOnUse" gradientTransform="translate(30.5 34) rotate(90) scale(30 29.0796)">
<stop offset="0.572904" stop-color="white" stop-opacity="0.2"/>
<stop offset="1" stop-color="white"/>
</radialGradient>
<radialGradient id="paint4_radial_1348_12148" cx="0" cy="0" r="1" gradientUnits="userSpaceOnUse" gradientTransform="translate(30.5 34) rotate(90) scale(30 29.0796)">
<stop offset="0.572904" stop-color="white" stop-opacity="0.2"/>
<stop offset="1" stop-color="white"/>
</radialGradient>
<radialGradient id="paint5_radial_1348_12148" cx="0" cy="0" r="1" gradientUnits="userSpaceOnUse" gradientTransform="translate(30.5 34) rotate(90) scale(30 29.0796)">
<stop offset="0.572904" stop-color="white" stop-opacity="0.2"/>
<stop offset="1" stop-color="white"/>
</radialGradient>
<radialGradient id="paint6_radial_1348_12148" cx="0" cy="0" r="1" gradientUnits="userSpaceOnUse" gradientTransform="translate(30.5 34) rotate(90) scale(30 29.0796)">
<stop offset="0.572904" stop-color="white" stop-opacity="0.2"/>
<stop offset="1" stop-color="white"/>
</radialGradient>
<radialGradient id="paint7_radial_1348_12148" cx="0" cy="0" r="1" gradientUnits="userSpaceOnUse" gradientTransform="translate(30.5 34) rotate(90) scale(30 29.0796)">
<stop offset="0.572904" stop-color="white" stop-opacity="0.2"/>
<stop offset="1" stop-color="white"/>
</radialGradient>
<radialGradient id="paint8_radial_1348_12148" cx="0" cy="0" r="1" gradientUnits="userSpaceOnUse" gradientTransform="translate(30.5 34) rotate(90) scale(30 29.0796)">
<stop offset="0.572904" stop-color="white" stop-opacity="0.2"/>
<stop offset="1" stop-color="white"/>
</radialGradient>
<radialGradient id="paint9_radial_1348_12148" cx="0" cy="0" r="1" gradientUnits="userSpaceOnUse" gradientTransform="translate(30.5 34) rotate(90) scale(30 29.0796)">
<stop offset="0.572904" stop-color="white" stop-opacity="0.2"/>
<stop offset="1" stop-color="white"/>
</radialGradient>
<radialGradient id="paint10_radial_1348_12148" cx="0" cy="0" r="1" gradientUnits="userSpaceOnUse" gradientTransform="translate(30.5 34) rotate(90) scale(30 29.0796)">
<stop offset="0.572904" stop-color="white" stop-opacity="0.2"/>
<stop offset="1" stop-color="white"/>
</radialGradient>
<radialGradient id="paint11_radial_1348_12148" cx="0" cy="0" r="1" gradientUnits="userSpaceOnUse" gradientTransform="translate(30.5 34) rotate(90) scale(30 29.0796)">
<stop offset="0.572904" stop-color="white" stop-opacity="0.2"/>
<stop offset="1" stop-color="white"/>
</radialGradient>
<radialGradient id="paint12_radial_1348_12148" cx="0" cy="0" r="1" gradientUnits="userSpaceOnUse" gradientTransform="translate(30.5 34) rotate(90) scale(30 29.0796)">
<stop offset="0.572904" stop-color="white" stop-opacity="0.2"/>
<stop offset="1" stop-color="white"/>
</radialGradient>
<radialGradient id="paint13_radial_1348_12148" cx="0" cy="0" r="1" gradientUnits="userSpaceOnUse" gradientTransform="translate(30.5 34) rotate(90) scale(30 29.0796)">
<stop offset="0.572904" stop-color="white" stop-opacity="0.2"/>
<stop offset="1" stop-color="white"/>
</radialGradient>
<radialGradient id="paint14_radial_1348_12148" cx="0" cy="0" r="1" gradientUnits="userSpaceOnUse" gradientTransform="translate(30.5 34) rotate(90) scale(30 29.0796)">
<stop offset="0.572904" stop-color="white" stop-opacity="0.2"/>
<stop offset="1" stop-color="white"/>
</radialGradient>
<radialGradient id="paint15_radial_1348_12148" cx="0" cy="0" r="1" gradientUnits="userSpaceOnUse" gradientTransform="translate(30.5 34) rotate(90) scale(30 29.0796)">
<stop offset="0.572904" stop-color="white" stop-opacity="0.2"/>
<stop offset="1" stop-color="white"/>
</radialGradient>
<radialGradient id="paint16_radial_1348_12148" cx="0" cy="0" r="1" gradientUnits="userSpaceOnUse" gradientTransform="translate(30.5 34) rotate(90) scale(30 29.0796)">
<stop offset="0.572904" stop-color="white" stop-opacity="0.2"/>
<stop offset="1" stop-color="white"/>
</radialGradient>
<radialGradient id="paint17_radial_1348_12148" cx="0" cy="0" r="1" gradientUnits="userSpaceOnUse" gradientTransform="translate(30.5 34) rotate(90) scale(30 29.0796)">
<stop offset="0.572904" stop-color="white" stop-opacity="0.2"/>
<stop offset="1" stop-color="white"/>
</radialGradient>
<radialGradient id="paint18_radial_1348_12148" cx="0" cy="0" r="1" gradientUnits="userSpaceOnUse" gradientTransform="translate(30.5 34) rotate(90) scale(30 29.0796)">
<stop offset="0.572904" stop-color="white" stop-opacity="0.2"/>
<stop offset="1" stop-color="white"/>
</radialGradient>
<radialGradient id="paint19_radial_1348_12148" cx="0" cy="0" r="1" gradientUnits="userSpaceOnUse" gradientTransform="translate(30.5 34) rotate(90) scale(30 29.0796)">
<stop offset="0.572904" stop-color="white" stop-opacity="0.2"/>
<stop offset="1" stop-color="white"/>
</radialGradient>
<radialGradient id="paint20_radial_1348_12148" cx="0" cy="0" r="1" gradientUnits="userSpaceOnUse" gradientTransform="translate(30.5 34) rotate(90) scale(30 29.0796)">
<stop offset="0.572904" stop-color="white" stop-opacity="0.2"/>
<stop offset="1" stop-color="white"/>
</radialGradient>
<radialGradient id="paint21_radial_1348_12148" cx="0" cy="0" r="1" gradientUnits="userSpaceOnUse" gradientTransform="translate(30.5 34) rotate(90) scale(30 29.0796)">
<stop offset="0.572904" stop-color="white" stop-opacity="0.2"/>
<stop offset="1" stop-color="white"/>
</radialGradient>
<radialGradient id="paint22_radial_1348_12148" cx="0" cy="0" r="1" gradientUnits="userSpaceOnUse" gradientTransform="translate(30.5 34) rotate(90) scale(30 29.0796)">
<stop offset="0.572904" stop-color="white" stop-opacity="0.2"/>
<stop offset="1" stop-color="white"/>
</radialGradient>
<radialGradient id="paint23_radial_1348_12148" cx="0" cy="0" r="1" gradientUnits="userSpaceOnUse" gradientTransform="translate(30.5 34) rotate(90) scale(30 29.0796)">
<stop offset="0.572904" stop-color="white" stop-opacity="0.2"/>
<stop offset="1" stop-color="white"/>
</radialGradient>
<radialGradient id="paint24_radial_1348_12148" cx="0" cy="0" r="1" gradientUnits="userSpaceOnUse" gradientTransform="translate(30.5 34) rotate(90) scale(30 29.0796)">
<stop offset="0.572904" stop-color="white" stop-opacity="0.2"/>
<stop offset="1" stop-color="white"/>
</radialGradient>
<radialGradient id="paint25_radial_1348_12148" cx="0" cy="0" r="1" gradientUnits="userSpaceOnUse" gradientTransform="translate(30.5 34) rotate(90) scale(30 29.0796)">
<stop offset="0.572904" stop-color="white" stop-opacity="0.2"/>
<stop offset="1" stop-color="white"/>
</radialGradient>
<radialGradient id="paint26_radial_1348_12148" cx="0" cy="0" r="1" gradientUnits="userSpaceOnUse" gradientTransform="translate(30.5 34) rotate(90) scale(30 29.0796)">
<stop offset="0.572904" stop-color="white" stop-opacity="0.2"/>
<stop offset="1" stop-color="white"/>
</radialGradient>
<radialGradient id="paint27_radial_1348_12148" cx="0" cy="0" r="1" gradientUnits="userSpaceOnUse" gradientTransform="translate(30.5 34) rotate(90) scale(30 29.0796)">
<stop offset="0.572904" stop-color="white" stop-opacity="0.2"/>
<stop offset="1" stop-color="white"/>
</radialGradient>
<radialGradient id="paint28_radial_1348_12148" cx="0" cy="0" r="1" gradientUnits="userSpaceOnUse" gradientTransform="translate(30.5 34) rotate(90) scale(30 29.0796)">
<stop offset="0.572904" stop-color="white" stop-opacity="0.2"/>
<stop offset="1" stop-color="white"/>
</radialGradient>
<radialGradient id="paint29_radial_1348_12148" cx="0" cy="0" r="1" gradientUnits="userSpaceOnUse" gradientTransform="translate(30.5 34) rotate(90) scale(30 29.0796)">
<stop offset="0.572904" stop-color="white" stop-opacity="0.2"/>
<stop offset="1" stop-color="white"/>
</radialGradient>
<radialGradient id="paint30_radial_1348_12148" cx="0" cy="0" r="1" gradientUnits="userSpaceOnUse" gradientTransform="translate(30.5 34) rotate(90) scale(30 29.0796)">
<stop offset="0.572904" stop-color="white" stop-opacity="0.2"/>
<stop offset="1" stop-color="white"/>
</radialGradient>
<radialGradient id="paint31_radial_1348_12148" cx="0" cy="0" r="1" gradientUnits="userSpaceOnUse" gradientTransform="translate(30.5 34) rotate(90) scale(30 29.0796)">
<stop offset="0.572904" stop-color="white" stop-opacity="0.2"/>
<stop offset="1" stop-color="white"/>
</radialGradient>
</defs>
</svg>
