<svg width="1200" height="1239" viewBox="0 0 1200 1239" fill="none" xmlns="http://www.w3.org/2000/svg">
<path opacity="0.16" d="M1128.36 714.678C1097.33 679.206 1065.22 642.536 1051.85 601.267C1022.59 510.985 1029.78 458.507 1040.6 379.109C1046.82 333.596 1054.57 276.972 1056.48 199.55C1058.71 109.43 1039.37 48.9511 999.074 19.7966C964.541 -5.17907 915.301 -6.53961 852.811 15.8122C807.102 32.1387 762.3 52.8383 718.988 72.8254C638.714 109.884 562.91 144.869 501.846 141.209C480.822 139.945 455.133 136.738 425.394 133.013C315.057 119.213 163.968 100.263 86.6415 163.431C62.7989 182.9 50.6185 216.751 49.4523 266.929C48.3832 311.536 55.9312 364.662 63.1876 416.038C74.8498 498.319 86.9007 583.418 63.8679 635.28C12.7489 750.505 -7.36827 841.823 2.38257 914.483C12.425 989.442 54.1819 1044.97 130.018 1084.23C176.213 1108.13 220.691 1114.52 267.826 1121.25C331.967 1130.42 404.661 1140.82 500.032 1197.57C546.13 1225.01 586.785 1238.16 627.311 1238.16C640.949 1238.16 654.587 1236.67 668.42 1233.72C731.104 1220.38 797.902 1176.94 878.695 1097.05C920.257 1055.95 970.243 1032.04 1018.61 1008.91C1074.46 982.218 1132.18 954.619 1175.92 900.424C1231.12 832.04 1181.23 775.06 1128.39 714.742L1128.36 714.678ZM92.6021 530.292C91.0148 493.427 90.5289 456.725 93.736 422.55C98.9191 366.897 113.4 326.275 137.955 298.384C170.738 261.163 219.784 233.855 287.878 214.937C346.642 198.611 408.549 191.387 463.167 185.038L471.751 184.034C513.055 179.207 557.338 168.484 604.181 157.147C655.721 144.675 709.043 131.75 762.3 125.854C771.792 124.818 781.154 124.267 790.127 124.267C832.435 124.267 868.102 135.993 896.123 159.123C924.987 182.932 945.623 218.76 957.447 265.601C971.312 320.541 979.702 363.01 987.833 404.085C993.081 430.583 998.167 456.336 1004.45 483.774C1000.43 468.387 996.644 453.583 992.919 438.973C979.864 387.726 967.521 339.362 946.465 274.25C930.98 226.372 905.777 190.448 871.6 167.48C838.363 145.161 797.125 135.346 748.986 138.358C689.703 142.051 630.227 154.652 572.693 166.865C535.601 174.736 500.55 182.155 467.054 186.917C409.521 195.112 348.424 205.252 291.668 224.008C224.579 246.133 175.889 276.097 142.814 315.553C116.704 346.683 101.187 390.901 95.3557 450.668C92.8289 476.421 92.2458 503.243 92.6021 530.389V530.292ZM89.4598 523.23C86.7711 480.114 84.9246 436.706 88.2936 397.218C92.8613 343.671 106.726 305.057 130.634 279.174C162.543 244.642 210.098 220.056 276.022 204.021C332.972 190.156 393.323 185.038 446.58 180.503C456.849 179.628 466.568 178.818 475.995 177.943C522.643 173.667 573.892 159.576 628.121 144.643C676.065 131.458 725.662 117.82 775.355 110.143C788.346 108.135 801.012 107.098 812.933 107.098C854.658 107.098 889.288 119.44 915.852 143.768C943.225 168.841 961.917 206.58 971.474 255.948C981.71 308.815 987.574 351.089 992.725 388.406C997.973 426.34 1002.8 461.001 1011.12 499.582C1002.93 465.86 996.871 435.183 990.619 403.437C982.488 362.329 974.098 319.829 960.2 264.824C946.951 212.346 922.784 173.57 888.413 149.631C854.982 126.34 812.447 117.367 761.976 122.939C708.557 128.834 655.138 141.792 603.501 154.264C556.723 165.601 512.536 176.291 471.395 181.086L462.81 182.09C356.361 194.497 210.552 211.471 135.784 296.408C110.808 324.753 96.1332 365.925 90.8852 422.193C87.8725 454.328 88.1316 488.633 89.4598 523.165V523.23ZM1049.32 792.293C1020.16 865.212 970.729 918.597 918.411 975.092C913.325 980.566 908.206 986.106 903.056 991.71C821.777 1080.05 739.073 1122 642.861 1123.68C630.453 1123.91 619.731 1124.04 609.915 1124.14C625.108 1123.29 640.852 1122.1 657.179 1120.51C680.86 1118.21 704.054 1113.64 726.115 1106.87C748.176 1100.13 769.881 1090.96 790.613 1079.69C811.281 1068.45 831.69 1054.68 851.256 1038.81C870.693 1023.03 890.001 1004.6 908.595 984.033C933.118 956.919 961.464 924.493 985.533 889.702C1010.06 854.23 1028.07 819.342 1040.6 783.061C1059.88 727.246 1050.81 671.982 1035.65 614.742C1055.77 675.416 1073.03 733.11 1049.35 792.293H1049.32ZM1042.35 622.873C1042.71 623.813 1043.1 624.785 1043.45 625.724C1066.88 686.074 1089 743.087 1061.98 802.951C1033.12 866.864 988.546 912.151 941.314 960.094C928 973.602 914.264 987.563 900.561 1002.21C858.286 1047.49 817.307 1079.79 775.388 1100.94C734.473 1121.54 692.522 1131.59 647.137 1131.59C641.144 1131.59 634.989 1131.39 628.834 1131.07C610.887 1130.03 593.296 1129.19 576.289 1128.38C574.184 1128.28 572.078 1128.19 569.94 1128.09C575.965 1128.15 581.991 1128.19 587.984 1128.19C606.481 1128.19 624.881 1127.93 642.893 1127.6C740.239 1125.89 823.818 1083.58 905.874 994.399C911.025 988.794 916.208 983.19 921.229 977.781C948.117 948.723 973.547 921.286 996.094 891.71C1021.43 858.506 1039.47 827.376 1052.91 793.783C1075.88 736.381 1061.3 680.891 1042.35 622.906V622.873ZM1036.65 781.701C1008.53 863.171 956.442 924.946 905.518 981.247C868.134 1022.58 829.908 1053.58 788.637 1076.03C747.204 1098.58 704.087 1111.76 656.758 1116.36C654.652 1116.56 652.579 1116.75 650.506 1116.94C657.471 1115.91 664.435 1114.77 671.433 1113.51C694.627 1109.33 717.401 1103.11 739.138 1095.05C760.616 1087.08 781.672 1077.07 801.66 1065.34C821.453 1053.71 840.76 1040.07 859.031 1024.78C877.14 1009.66 894.73 992.487 911.284 973.796C939.727 941.726 962.662 910.855 981.451 879.4C991.558 862.458 1000.56 845.095 1008.18 827.797C1016.15 809.721 1022.92 791.095 1028.26 772.403C1038.05 738.26 1040.99 701.655 1037.2 660.45C1035.65 643.573 1033.02 626.016 1029.1 606.579C1045.53 666.475 1056.54 724.007 1036.65 781.668V781.701ZM1023.95 771.205C1013.46 807.81 998.297 842.471 977.596 877.133C958.969 908.328 936.196 939.005 907.947 970.848C847.078 1039.46 775.485 1084.13 694.854 1103.95C916.37 1039.39 1053.72 822.193 1022.82 598.416C1035.13 655.3 1040.38 713.997 1023.95 771.205ZM1002.22 381.15C999.074 343.411 995.511 300.651 987.703 246.197C978.665 183.094 955.762 138.067 919.642 112.411C886.113 88.5688 841.797 81.8309 787.925 92.3589C740.272 101.656 692.975 116.266 647.234 130.357C587.174 148.886 530.451 166.379 480.077 169.748C466.406 170.655 451.731 171.4 436.182 172.145C383.313 174.769 323.415 177.749 266.886 189.379C201.19 202.887 153.699 225.498 121.757 258.442C68.4356 313.415 76.6639 420.055 84.7626 523.327C84.0823 515.714 83.402 508.037 82.6893 500.295C73.3596 398.027 63.706 292.294 116.056 240.788C147.803 209.56 195.067 189.055 260.569 178.073C317.131 168.582 377.061 167.804 429.929 167.092C449.464 166.832 467.929 166.573 484.515 165.893C538.193 163.658 599.775 142.634 664.986 120.38C709.302 105.252 755.109 89.6054 801.336 78.8506C820.417 74.4127 838.525 72.1451 855.144 72.1451C896.318 72.1451 929.458 85.8153 953.689 112.735C978.665 140.496 994.085 182.317 999.56 236.997C1005.33 294.659 1006.75 339.038 1008.02 378.17C1009.93 437.58 1011.42 483.321 1026.38 543.735C1010.74 483.644 1006.88 437.386 1002.18 381.118L1002.22 381.15ZM123.345 259.997C154.995 227.377 202.097 204.992 267.34 191.549C323.707 179.952 383.54 176.972 436.311 174.348C451.861 173.57 466.568 172.858 480.271 171.918C530.872 168.549 587.725 151.024 647.914 132.462C693.591 118.371 740.855 103.794 788.378 94.4969C804.543 91.3223 820.06 89.735 834.508 89.735C875.876 89.735 909.697 102.725 934.997 128.316C961.075 154.717 978.082 194.464 985.533 246.456C993.308 300.846 996.871 343.573 1000.01 381.28C1004 429.255 1007.4 469.974 1017.99 518.144C1006.85 471.691 1001.34 432.041 995.251 388.018C990.068 350.7 984.205 308.361 973.968 255.43C962.921 198.352 939.792 156.758 905.226 131.782C871.6 107.519 827.803 99.3883 774.967 107.552C725.111 115.261 675.45 128.932 627.441 142.116C573.309 156.985 522.19 171.044 475.768 175.32C466.341 176.194 456.655 177.004 446.386 177.879C393.032 182.414 332.583 187.532 275.439 201.461C209.029 217.626 161.052 242.44 128.787 277.36C104.459 303.664 90.3993 342.763 85.7668 396.926C82.4949 435.378 84.1471 477.49 86.7063 519.407C78.7372 417.788 71.3835 313.544 123.377 259.932L123.345 259.997ZM891.426 311.601C866.612 281.993 837.262 257.373 804.187 238.39C771.565 219.699 735.51 206.612 697.025 199.55C666.25 193.784 633.984 190.869 600.812 190.869C592.001 190.869 583.092 191.063 574.151 191.484C533.431 193.363 491.609 199.485 449.787 209.689C421.312 216.654 393.485 225.789 367.051 236.933C340.293 248.206 314.798 261.552 291.247 276.648C267.178 292.067 244.89 309.463 225 328.348C204.526 347.785 186.353 369.003 170.965 391.484C153.861 416.686 139.704 445.128 128.852 475.999C118.583 505.348 111.197 537.159 106.953 570.59C106.597 573.408 106.273 576.259 105.981 579.077C106.402 571.011 106.985 563.074 107.698 555.332C114.598 481.021 134.651 420.314 167.305 374.898C197.723 332.592 240.096 296.311 293.256 267.027C340.52 240.982 394.943 221.157 454.971 208.037C526.336 192.456 588.729 184.876 645.711 184.876C667.74 184.876 689.218 186.042 709.529 188.342C791.585 197.671 858.027 237.84 901.695 304.506C931.272 349.663 954.434 392.035 973.838 437.451C970.923 431.458 967.943 425.53 964.833 419.699C944.942 382.187 920.938 346.813 891.426 311.568V311.601ZM964.023 428.024C881.643 286.884 729.29 199.356 565.826 199.356C541.173 199.356 516.262 201.364 491.285 205.446C528.377 198.74 565.081 195.339 600.844 195.339C633.66 195.339 665.731 198.222 696.15 203.923C772.893 218.047 839.206 256.272 887.96 314.451C918.443 350.862 943.517 388.18 964.023 427.992V428.024ZM444.151 215.747C262.675 265.213 136.044 416.46 109.253 591.289C109.836 584.519 110.549 577.781 111.391 571.14C120.138 502.498 141.421 442.893 174.658 393.978C204.883 349.825 244.923 311.633 293.644 280.405C338.706 251.542 389.306 229.806 444.151 215.715V215.747ZM105.69 845.095C112.233 881.927 123.118 915.584 138.02 945.192C153.148 975.221 172.876 1002.01 196.654 1024.78C220.756 1047.85 249.782 1067.58 282.954 1083.35C323.286 1102.5 364.038 1112.93 406.994 1119.7C357.203 1112.86 311.138 1103.02 265.072 1080.86C231.641 1064.76 202.842 1044.71 179.485 1021.29C156.452 998.189 137.858 970.978 124.252 940.398C110.84 910.304 101.802 875.869 97.2994 838.033C92.9261 800.942 92.7641 759.251 96.8783 714.094C97.7853 704.214 98.2712 693.913 98.498 683.223C98.822 697.736 98.822 711.73 98.336 725.044C96.7487 768.484 99.2107 808.879 105.657 845.063L105.69 845.095ZM284.347 1080.47C251.499 1064.82 222.732 1045.32 198.89 1022.48C175.338 999.938 155.837 973.472 140.87 943.767C126.131 914.451 115.343 881.085 108.832 844.544C102.418 808.555 99.9882 768.419 101.576 725.173C101.737 720.379 101.867 715.52 101.899 710.564C102.256 719.31 102.515 727.894 102.677 736.284C103.487 777.813 108.216 816.686 116.672 851.833C125.224 887.337 137.825 919.957 154.152 948.788C170.641 977.942 191.374 1003.99 215.735 1026.24C240.387 1048.72 269.413 1067.93 302.035 1083.26C338.414 1100.33 375.571 1110.79 414.283 1117.56C369.06 1110.89 326.396 1100.46 284.282 1080.47H284.347ZM905.161 302.239C860.813 234.503 793.302 193.719 709.983 184.228C636.738 175.903 553.03 182.349 454.031 203.988C425.038 210.305 396.887 218.371 370.355 227.927C342.139 238.067 315.511 250.02 291.215 263.398C237.504 292.974 194.678 329.676 163.871 372.469C146.507 396.602 132.545 425.174 122.373 457.341C113.14 486.463 106.791 519.31 103.487 554.943C103.228 557.729 103.001 560.515 102.774 563.366C103.066 553.712 103.487 544.124 104.167 534.6C109.577 456.628 127.815 398.125 159.919 355.786C190.823 315.002 235.593 280.664 292.964 253.68C339.904 231.62 395.785 214.257 459.117 202.045C531.908 187.986 614.386 172.08 694.887 172.08C704.346 172.08 713.74 172.307 722.779 172.76C809.791 177.036 876.427 219.181 915.463 294.659C944.91 351.607 965.448 399.356 983.006 448.756C962.435 398.189 937.621 351.866 905.129 302.239H905.161ZM976.657 420.412C960.621 378.526 942.286 338.002 918.929 292.877C879.213 216.103 811.476 173.246 723.005 168.906C633.336 164.5 540.396 182.446 458.404 198.254C394.781 210.532 338.576 227.992 291.344 250.182C233.39 277.425 188.134 312.151 156.873 353.453C124.317 396.44 105.819 455.591 100.344 534.341C99.9558 540.172 99.6318 546.003 99.3726 551.866C99.4374 529.352 100.247 507.065 102.288 485.264C108.411 420.055 124.867 371.464 152.597 336.673C169.216 315.812 190.24 296.861 215.119 280.243C237.472 265.342 263.614 251.899 292.802 240.334C339.613 221.772 393.809 207.681 463.328 196.052C484.839 192.456 506.576 188.31 529.641 183.904C597.119 171.044 666.93 157.762 736.06 157.114C736.935 157.114 737.81 157.114 738.684 157.114C829.26 157.114 895.216 201.299 929.458 284.876C956.507 350.862 973.45 401.818 990.295 457.891C985.792 444.869 981.289 432.495 976.689 420.444L976.657 420.412ZM932.697 283.515C914.945 240.204 888.737 207.13 854.755 185.135C822.36 164.176 783.324 153.551 738.652 153.551C737.777 153.551 736.87 153.551 735.996 153.551C666.541 154.199 596.601 167.513 528.96 180.405C505.928 184.779 484.191 188.925 462.745 192.521C392.967 204.215 338.576 218.339 291.506 237.03C262.092 248.692 235.722 262.265 213.176 277.295C188.005 294.076 166.689 313.317 149.876 334.438C121.693 369.78 105.009 418.986 98.8219 484.908C97.1374 502.757 96.2952 520.962 96.0036 539.297C95.3881 509.171 95.8092 479.336 98.5952 450.862C104.361 391.743 119.652 348.141 145.309 317.496C177.995 278.494 226.198 248.886 292.705 226.955C349.234 208.297 410.169 198.157 467.54 189.994C501.166 185.2 536.249 177.782 573.406 169.877C630.81 157.697 690.189 145.128 749.213 141.436C754.752 141.079 760.259 140.917 765.637 140.917C808.787 140.917 845.782 152.061 875.585 174.056C906.23 196.7 929.069 230.713 943.42 275.125C964.444 340.107 976.754 388.471 989.809 439.654C992.336 449.534 994.863 459.511 997.487 469.683C979.281 408.296 961.852 354.652 932.697 283.515ZM95.6149 654.004C96.036 675.222 95.7444 695.338 94.0599 713.835C89.9134 759.187 90.0753 801.072 94.481 838.357C98.9839 876.485 108.119 911.211 121.66 941.564C135.428 972.468 154.185 999.97 177.477 1023.29C201.06 1046.94 230.118 1067.19 263.841 1083.42C313.762 1107.42 363.52 1117.07 417.976 1124.01C355.842 1116.17 301.354 1108.23 245.83 1081.25C113.14 1016.56 64.3539 896.342 92.2458 702.951C94.4486 687.791 95.3881 671.335 95.5825 653.971L95.6149 654.004ZM303.59 1080.08C271.292 1064.89 242.558 1045.9 218.164 1023.65C194.063 1001.65 173.589 975.902 157.262 947.071C125.256 890.511 108.119 820.12 106.273 737.839C106.273 737.904 106.273 737.936 106.273 738.001C106.532 741.176 106.759 744.35 107.018 747.492C113.27 827.149 134.521 896.116 170.188 952.448C206.276 1009.43 257.071 1053.42 321.18 1083.16C344.666 1094.04 368.962 1102.59 395.461 1109.3C404.435 1111.57 413.635 1113.64 423.062 1115.45C381.661 1108.78 342.139 1098.16 303.59 1080.05V1080.08ZM322.8 1079.66C259.371 1050.25 209.126 1006.74 173.427 950.375C141.745 900.327 121.531 840.171 113.238 771.302C124.738 841.856 149.196 903.987 186.029 956.141C205.336 983.482 228.142 1008.07 253.799 1029.19C279.617 1050.47 308.708 1068.58 340.293 1083.03C369.61 1096.41 400.515 1106.48 433.752 1113.48C392.902 1106.32 356.458 1095.21 322.8 1079.63V1079.66ZM342.042 1079.27C279.326 1050.57 227.98 1008.36 189.43 953.777C159.141 910.887 137.307 861.163 124.252 805.51C130.763 828.736 138.927 851.153 148.645 872.468C162.996 903.955 180.846 933.433 201.74 960.029C222.473 986.397 246.348 1010.21 272.75 1030.81C299.152 1051.41 328.339 1068.97 359.438 1083C382.73 1093.49 407.285 1102.08 432.489 1108.55C436.214 1109.49 439.972 1110.4 443.73 1111.28C407.156 1104.28 373.433 1093.65 342.042 1079.34V1079.27ZM361.285 1078.85C299.184 1050.86 246.672 1009.92 205.271 957.21C177.509 921.836 155.578 882.219 139.704 838.876C197.14 976.809 316.612 1075.03 455.781 1109.23C422.738 1102.46 391.153 1092.29 361.285 1078.85ZM419.207 1093.59C372.72 1077.81 329.246 1054.81 290.049 1025.17C250.43 995.241 216.221 959.381 188.361 918.565C159.53 876.355 138.084 829.676 124.641 779.822C108.605 720.282 104.685 659.414 113.011 598.869C121.077 540.366 140.125 484.649 169.702 433.24C199.278 381.831 237.861 337.321 284.379 300.943C332.551 263.301 387.136 236.058 446.677 220.023C485.713 209.495 525.786 204.15 565.858 204.15C615.552 204.15 664.695 212.281 711.926 228.316C758.413 244.092 801.887 267.124 841.084 296.732C880.703 326.664 914.912 362.524 942.772 403.34C971.603 445.549 993.049 492.229 1006.46 542.083C1022.5 601.623 1026.42 662.491 1018.09 723.035C1010.02 781.539 990.975 837.256 961.399 888.665C931.822 940.074 893.24 984.583 846.721 1020.96C798.55 1058.6 743.965 1085.85 684.423 1101.88C645.387 1112.41 605.283 1117.75 565.243 1117.75C515.549 1117.75 466.406 1109.62 419.174 1093.62L419.207 1093.59ZM576.095 1131.85C593.102 1132.66 610.693 1133.53 628.639 1134.53C634.859 1134.89 641.046 1135.09 647.137 1135.09C689.93 1135.09 729.776 1126.24 768.391 1108.23C813.678 1087.11 857.768 1053.23 903.153 1004.6C916.823 989.961 930.559 976.031 943.841 962.555C991.299 914.386 1036.1 868.905 1065.22 804.409C1091.85 745.419 1071.99 689.669 1049.29 631.004C1050.65 634.082 1052.01 637.127 1053.37 640.172C1079.58 698.869 1104.29 754.328 1074.65 813.641C1045.17 872.63 1002.15 912.896 956.637 955.526C937.459 973.505 917.601 992.099 898.132 1012.67C855.435 1057.83 814.877 1089.93 774.157 1110.85C734.829 1131.07 695.081 1140.88 652.676 1140.88C640.399 1140.88 627.667 1140.04 614.774 1138.39C584.388 1134.47 555.719 1131.81 527.924 1129.38C543.668 1130.29 559.703 1131.07 576.095 1131.85ZM1045.59 591.937C1017.99 505.316 1021.17 451.283 1025.51 376.486C1028.04 333.402 1030.85 284.552 1028.97 218.177C1026.48 138.779 1005.59 84.4224 966.874 56.5636C932.859 32.1063 885.757 28.6725 826.863 46.392C781.316 59.9974 736.482 78.1056 693.137 95.6307C620.67 124.915 552.155 152.611 494.751 152.611C494.201 152.611 493.65 152.611 493.132 152.611C473.403 152.417 449.723 151.057 424.649 149.599C319.204 143.476 174.755 135.119 100.701 201.429C47.8973 248.724 60.2721 354.522 72.2258 456.887C81.2964 534.438 89.8486 607.681 72.485 657.729C34.4211 767.512 22.8561 854.166 37.1746 922.711C52.0438 993.945 94.9346 1046.71 168.244 1083.97C216.804 1108.65 264.295 1115.52 314.571 1122.78C374.826 1131.49 443.114 1141.37 528.604 1183.51C567.996 1202.92 604.214 1212.47 639.653 1212.47C656.661 1212.47 673.506 1210.27 690.416 1205.9C748.597 1190.83 811.962 1148.5 884.105 1076.42C921.586 1038.78 965.189 1014.35 1007.37 990.77C1061.05 960.741 1111.74 932.364 1151.3 879.012C1200.05 813.252 1156.55 757.276 1110.51 698.027C1106.62 693.038 1102.74 688.017 1098.85 682.964C1105.33 691.127 1112 699.161 1118.61 707.162C1167.79 766.605 1214.21 822.711 1162.7 889.021C1121.27 942.601 1066 971.14 1012.52 998.739C967.165 1022.16 920.257 1046.39 880.574 1085.91C803.766 1162.23 739.753 1204.44 679.11 1218.69C625.594 1231.29 574.896 1222.29 514.804 1189.54C424.001 1140.04 353.251 1129.84 290.826 1120.83C242.396 1113.83 196.687 1107.26 149.585 1083.09C75.3681 1045 33.2548 991.159 20.88 918.435C8.89392 848.108 24.7026 759.284 69.1483 646.877C89.4275 595.598 78.9639 514.483 68.8243 436.058C55.6073 333.855 41.969 228.186 94.3191 183.256C139.801 144.481 211.524 134.05 284.865 134.05C332.972 134.05 381.823 138.553 424.39 142.44C451.342 144.902 476.805 147.266 497.375 147.979C499.254 148.044 501.133 148.076 503.012 148.076C561.679 148.076 632.235 117.497 706.808 85.1674C749.99 66.4438 794.663 47.0722 840.113 32.1387C900.432 12.2164 948.247 14.5488 982.229 39.071C1021.43 67.3508 1041.38 124.494 1041.54 208.847C1041.54 280.567 1036.49 332.074 1031.99 377.522C1024.21 456.207 1019.06 508.199 1047.57 596.926C1049.06 601.526 1050.74 606.061 1052.62 610.531C1049.9 604.409 1047.47 598.222 1045.5 591.937H1045.59ZM1109.51 698.805C1132.83 728.801 1154.86 757.146 1165.32 786.527C1170.9 802.238 1172.68 816.815 1170.77 831.198C1168.63 847.233 1161.92 862.62 1150.29 878.299C1110.9 931.425 1060.3 959.737 1006.75 989.734C964.509 1013.38 920.84 1037.81 883.23 1075.58C835.027 1123.71 791.779 1157.92 750.994 1180.08C712.347 1201.1 675.806 1211.31 639.297 1211.31C602.788 1211.31 569.13 1202.14 529.155 1182.41C443.47 1140.17 375.085 1130.29 314.733 1121.54C264.554 1114.29 217.193 1107.45 168.795 1082.87C95.8416 1045.78 53.1777 993.297 38.4056 922.452C24.1519 854.133 35.6845 767.674 73.6512 658.118C91.112 607.81 82.5274 534.406 73.4244 456.725C61.5031 354.684 49.1607 249.21 101.478 202.336C124.997 181.28 156.42 166.638 197.561 157.568C230.572 150.279 269.672 146.748 317.098 146.748C354.352 146.748 391.639 148.919 424.552 150.83C449.625 152.288 473.338 153.648 493.099 153.842C493.65 153.842 494.201 153.842 494.751 153.842C552.382 153.842 620.994 126.113 693.591 96.7644C736.903 79.2393 781.705 61.1636 827.219 47.5905C851.645 40.2371 874.289 36.5118 894.601 36.5118C935.645 36.5118 967.813 51.6074 990.198 81.345C1013.2 111.925 1025.83 157.989 1027.74 218.209C1029.62 284.552 1026.77 333.337 1024.28 376.421C1019.9 451.348 1016.76 505.478 1044.43 592.326C1045.46 595.598 1046.63 598.837 1047.86 602.044C1045.85 597.185 1044.07 592.294 1042.48 587.305C1015.95 503.243 1016.76 450.376 1017.83 377.166C1018.45 336.058 1019.13 289.508 1015.24 227.506C1010.61 153.583 989.032 102.304 951.13 75.1253C917.277 50.8299 871.082 46.2948 813.905 61.7143C768.002 73.8944 722.714 90.8364 678.916 107.195C609.753 133.013 544.445 157.438 488.791 158.313C470.326 158.604 448.945 158.118 426.334 157.6C322.638 155.235 180.619 152.028 107.731 220.444C54.927 270.007 65.9412 375.838 76.5991 478.202C84.2119 551.153 91.3711 620.055 76.8259 668.97C45.0789 775.708 37.7577 859.996 54.441 926.695C71.8047 996.18 115.311 1047.59 187.389 1083.9C237.666 1109.17 287.263 1116.3 339.742 1123.81C397.535 1132.1 463.037 1141.5 542.923 1176.55C578.881 1192.33 612.15 1200.1 644.61 1200.1C663.723 1200.1 682.544 1197.41 701.463 1192.03C757.83 1176.06 818.44 1134.89 886.826 1066.18C922.104 1030.45 962.371 1006 1001.31 982.348C1052.78 951.088 1101.41 921.545 1138.99 868.354C1184.57 803.825 1144.24 748.27 1101.54 689.443C1097.2 683.482 1092.86 677.457 1088.55 671.399C1095.38 680.664 1102.48 689.767 1109.51 698.805ZM1100.28 690.35C1121.88 720.12 1142.29 748.205 1151.91 777.23C1162.7 809.754 1158.2 838.422 1137.72 867.415C1100.34 920.346 1051.85 949.792 1000.5 980.955C961.464 1004.67 921.132 1029.16 885.725 1065.02C838.59 1112.38 796.088 1145.97 755.789 1167.77C717.531 1188.44 681.086 1198.51 644.415 1198.51C612.539 1198.51 579.561 1190.83 543.57 1175.06C463.49 1139.94 397.859 1130.52 339.969 1122.22C285.319 1114.39 238.12 1107.62 188.102 1082.45C116.445 1046.36 73.1976 995.273 55.9636 926.274C39.3775 859.867 46.6987 775.837 78.3484 669.391C92.9909 620.185 85.7992 551.153 78.1864 478.04C67.5609 376.064 56.5791 270.59 108.832 221.578C135.525 196.538 172.747 179.466 222.635 169.359C272.005 159.382 325.974 158.216 362.289 158.216C384.447 158.216 405.763 158.702 426.366 159.155C444.345 159.576 461.32 159.932 476.74 159.932C481.081 159.932 485.065 159.932 488.888 159.835C544.801 158.928 610.271 134.503 679.531 108.621C723.297 92.2617 768.52 75.3845 814.359 63.2044C836.225 57.3087 856.699 54.3285 875.293 54.3285C916.338 54.3285 948.927 68.7113 972.186 97.056C996.126 126.243 1010.09 170.169 1013.68 227.571C1017.57 289.476 1016.89 336.026 1016.28 377.101C1015.21 449.566 1014.43 502.174 1040.05 584.713C1039.83 584.033 1039.57 583.32 1039.37 582.64C1013.98 501.299 1012.29 449.631 1009.99 378.105C1008.73 338.941 1007.3 294.529 1001.5 236.803C994.636 168.355 972.413 120.25 935.451 93.7842C901.792 69.6832 856.537 64.0466 800.947 76.9718C754.623 87.7589 708.752 103.405 664.403 118.566C599.322 140.788 537.869 161.779 484.45 163.982C467.928 164.662 449.464 164.921 429.929 165.18C376.996 165.893 316.969 166.703 260.278 176.194C194.387 187.241 146.766 207.908 114.728 239.427C61.7299 291.549 71.4159 397.768 80.778 500.457C86.9978 568.452 92.8613 632.721 81.102 680.146C55.5101 783.612 52.3678 865.503 71.4483 930.485C91.3711 998.253 135.525 1048.4 206.47 1083.74C258.917 1109.82 308.805 1116.85 366.598 1124.95C421.442 1132.66 483.575 1141.37 557.176 1169.49C589.539 1181.86 619.731 1188.02 649.08 1188.02C670.526 1188.02 691.518 1184.74 712.639 1178.2C767.289 1161.32 825.146 1121.32 889.515 1055.85C922.395 1022.42 959.066 998.189 994.506 974.768C1044.1 941.985 1090.91 911.049 1126.68 857.632C1169.08 794.237 1131.93 739.005 1092.57 680.502C1089.49 675.902 1086.38 671.302 1083.3 666.67C1088.87 674.639 1094.57 682.51 1100.24 690.285L1100.28 690.35ZM1091.01 681.636C1110.9 711.211 1129.69 739.135 1138.5 767.868C1148.38 800.035 1144.11 828.25 1125.12 856.66C1089.59 909.753 1042.9 940.592 993.502 973.278C957.965 996.763 921.229 1021.06 888.187 1054.62C842.283 1101.3 800.526 1134.4 760.583 1155.88C722.649 1176.26 686.14 1186.17 649.016 1186.17C620.087 1186.17 590.284 1180.15 557.889 1167.77C484.061 1139.56 421.798 1130.81 366.889 1123.1C309.291 1115 259.533 1108.04 207.345 1082.06C136.918 1046.94 93.0557 997.217 73.2948 929.967C54.3115 865.309 57.4538 783.741 82.9485 680.632C89.7514 653.064 90.6909 619.958 89.0387 583.774C91.274 623.748 91.4359 660.677 85.4105 691.419C65.7792 791.419 66.7511 870.881 88.3584 934.276C110.873 1000.39 155.772 1049.24 225.583 1083.68C280.881 1110.89 334.17 1118.08 395.882 1126.37C447.034 1133.27 504.988 1141.05 571.495 1162.56C599.905 1171.72 626.566 1176.32 652.449 1176.32C676.616 1176.32 700.135 1172.34 723.783 1164.37C776.586 1146.58 831.69 1107.78 892.268 1045.68C922.493 1014.68 955.503 990.932 987.379 967.965C1035.23 933.498 1080.45 900.942 1114.4 847.071C1153.69 784.713 1119.65 729.643 1083.62 671.335C1081.39 667.739 1079.15 664.111 1076.95 660.483C1081.58 667.609 1086.31 674.639 1091.04 681.636H1091.01ZM1081.75 672.468C1099.95 701.914 1117.12 729.741 1125.15 758.247C1134.13 790.123 1130.11 817.982 1112.55 845.84C1078.83 899.355 1033.8 931.781 986.116 966.119C954.142 989.151 921.067 1012.96 890.713 1044.09C845.782 1090.15 804.608 1122.87 764.827 1144.06C726.99 1164.24 690.222 1174.02 652.417 1174.02C626.793 1174.02 600.553 1169.58 572.207 1160.42C505.506 1138.88 447.455 1131.07 396.206 1124.17C334.689 1115.88 281.594 1108.75 226.587 1081.67C157.327 1047.52 112.816 999.063 90.4641 933.563C68.9863 870.524 68.0469 791.451 87.5809 691.84C91.6303 671.173 92.9261 647.784 92.6346 622.614C93.574 651.672 93.1529 678.753 89.6866 702.627C61.6003 897.249 110.84 1018.31 244.663 1083.55C303.816 1112.31 361.641 1119.57 428.601 1127.93C477.226 1134.02 527.503 1140.3 585.716 1155.53C609.721 1161.81 632.462 1164.95 654.555 1164.95C681.929 1164.95 708.298 1160.13 734.862 1150.41C785.786 1131.78 838.137 1094.14 894.925 1035.38C922.169 1007.19 951.227 984.356 979.313 962.264C1025.8 925.724 1069.73 891.192 1102.02 836.349C1138.24 774.865 1107.27 719.796 1074.52 661.487C1073.1 658.928 1071.67 656.369 1070.21 653.809C1074 660.061 1077.83 666.281 1081.65 672.468H1081.75ZM1072.38 662.75C1088.9 692.164 1104.55 719.99 1111.78 748.367C1119.84 780.113 1116.08 807.648 1099.92 835.085C1067.85 889.54 1024.12 923.91 977.823 960.288C949.672 982.413 920.549 1005.32 893.175 1033.63C849.118 1079.21 808.366 1111.6 768.585 1132.59C730.618 1152.64 693.299 1162.39 654.458 1162.39C632.559 1162.39 610.304 1159.35 586.429 1153.13C528.053 1137.87 475.412 1131.3 428.958 1125.5C426.463 1125.17 423.969 1124.88 421.507 1124.56C436.182 1126.4 451.213 1128.06 466.698 1129.74C508.552 1134.34 551.831 1139.1 600.067 1148.59C618.726 1152.25 636.867 1154.1 654.555 1154.1C686.14 1154.1 716.429 1148.24 746.07 1136.45C795.116 1116.94 844.713 1080.57 897.711 1025.14C921.456 1000.33 946.173 979.076 970.113 958.539C1015.79 919.342 1058.94 882.283 1089.81 825.724C1123.02 764.856 1095.09 709.495 1065.52 650.862C1064.8 649.436 1064.09 648.043 1063.38 646.618C1066.36 652.028 1069.4 657.405 1072.38 662.75ZM1062.96 652.125C1092.18 710.045 1119.78 764.791 1087.29 824.298C1056.67 880.405 1013.72 917.269 968.266 956.303C944.294 976.906 919.48 998.189 895.67 1023.1C852.358 1068.39 811.832 1100.52 771.792 1121.41C733.372 1141.47 695.081 1151.18 654.814 1151.18C637.224 1151.18 619.536 1149.37 600.682 1145.68C558.828 1137.45 520.764 1132.79 484.094 1128.67C493.747 1129.55 503.53 1130.39 513.508 1131.26C545.676 1134.05 578.913 1136.93 614.418 1141.5C627.408 1143.18 640.107 1143.99 652.579 1143.99C689.088 1143.99 723.621 1136.8 757.311 1122.29C804.478 1101.98 851.321 1066.8 900.497 1014.81C919.901 994.301 939.694 975.74 958.872 957.793C1004.61 914.936 1047.83 874.477 1077.57 815.001C1107.89 754.36 1082.85 698.254 1056.35 638.844C1058.55 643.281 1060.79 647.719 1063.02 652.093L1062.96 652.125ZM1174.95 899.614C1131.37 953.582 1073.78 981.117 1018.06 1007.78C969.627 1030.94 919.512 1054.88 877.82 1096.15C797.19 1175.9 730.586 1219.21 668.161 1232.49C613.64 1244.09 561.971 1232.98 500.647 1196.47C405.083 1139.59 332.259 1129.19 268.02 1120.02C221.015 1113.32 176.602 1106.97 130.601 1083.13C55.1537 1044.06 13.6236 988.827 3.61356 914.289C-6.10489 841.856 13.9799 750.732 65.0017 635.734C88.164 583.58 76.0808 498.319 64.3863 415.844C57.1298 364.532 49.6142 311.439 50.6509 266.929C51.8171 217.14 63.868 183.58 87.419 164.338C128.852 130.486 191.698 120.38 258.075 120.38C314.96 120.38 374.437 127.83 425.265 134.179C455.003 137.905 480.692 141.112 501.781 142.375C504.761 142.569 507.774 142.634 510.852 142.634C570.555 142.634 643.022 109.171 719.507 73.862C762.786 53.875 807.556 33.2077 853.232 16.8812C915.333 -5.30864 964.185 -4.01289 998.394 20.7036C1038.37 49.6314 1057.51 109.754 1055.31 199.453C1053.4 276.777 1045.66 333.402 1039.47 378.883C1028.59 458.474 1021.43 511.05 1050.74 601.591C1051.65 604.376 1052.62 607.13 1053.69 609.851C1051.85 605.478 1050.19 601.04 1048.77 596.569C1020.33 508.069 1025.48 456.174 1033.22 377.619C1037.72 332.138 1042.81 280.632 1042.77 208.815C1042.61 124.072 1022.5 66.6381 983.006 38.1315C948.732 13.415 900.594 11.0179 839.886 31.0697C794.371 46.0356 749.699 65.4072 706.484 84.1308C632.041 116.395 561.582 146.943 503.142 146.943C501.263 146.943 499.384 146.943 497.537 146.845C476.999 146.133 451.569 143.8 424.617 141.306C316.936 131.393 169.443 117.853 93.736 182.349C40.9324 227.668 54.603 333.661 67.8525 436.155C77.9597 514.451 88.4232 595.403 68.2412 646.424C23.6983 759.025 7.88967 848.043 19.9081 918.565C32.3478 991.645 74.6554 1045.74 149.196 1084C196.428 1108.23 242.266 1114.84 290.761 1121.84C353.089 1130.84 423.742 1141.01 514.35 1190.41C557.338 1213.83 595.532 1225.17 633.434 1225.17C648.724 1225.17 663.982 1223.33 679.434 1219.7C740.272 1205.38 804.478 1163.11 881.416 1086.62C920.97 1047.2 967.781 1023.03 1013.07 999.646C1066.65 971.982 1122.04 943.378 1163.61 889.604C1215.67 822.614 1168.95 766.151 1119.49 706.352C1118.64 705.348 1117.8 704.311 1116.96 703.307C1120.46 707.357 1123.99 711.373 1127.49 715.358C1179.97 775.286 1229.53 831.911 1174.98 899.484L1174.95 899.614Z" fill="url(#paint0_radial_3725_127622)"/>
<defs>
<radialGradient id="paint0_radial_3725_127622" cx="0" cy="0" r="1" gradientUnits="userSpaceOnUse" gradientTransform="translate(599.97 619.018) scale(609.606 609.588)">
<stop offset="0.13" stop-color="#563C70"/>
<stop offset="0.32" stop-color="#E1813B"/>
<stop offset="0.74" stop-color="#FF902F"/>
<stop offset="0.76" stop-color="#F99336"/>
<stop offset="0.8" stop-color="#EA9E4C"/>
<stop offset="0.84" stop-color="#D2B070"/>
<stop offset="0.89" stop-color="#B1C8A0"/>
<stop offset="0.94" stop-color="#8BE4D9"/>
</radialGradient>
</defs>
</svg>
