<svg width="70" height="40" viewBox="0 0 70 40" fill="none" xmlns="http://www.w3.org/2000/svg">
<path opacity="0.2" d="M0 37C0 35.3431 1.34315 34 3 34C4.65685 34 6 35.3431 6 37C6 38.6569 4.65685 40 3 40C1.34315 40 0 38.6569 0 37Z" fill="url(#paint0_linear_3954_44072)"/>
<path opacity="0.4" d="M8 31C8 29.3431 9.34315 28 11 28C12.6569 28 14 29.3431 14 31V37C14 38.6569 12.6569 40 11 40C9.34315 40 8 38.6569 8 37V31Z" fill="url(#paint1_linear_3954_44072)"/>
<path opacity="0.6" d="M16 23C16 21.3431 17.3431 20 19 20C20.6569 20 22 21.3431 22 23V37C22 38.6569 20.6569 40 19 40C17.3431 40 16 38.6569 16 37V23Z" fill="url(#paint2_linear_3954_44072)"/>
<path opacity="0.8" d="M24 15C24 13.3431 25.3431 12 27 12C28.6569 12 30 13.3431 30 15V37C30 38.6569 28.6569 40 27 40C25.3431 40 24 38.6569 24 37V15Z" fill="url(#paint3_linear_3954_44072)"/>
<path d="M32 3C32 1.34315 33.3431 0 35 0C36.6569 0 38 1.34315 38 3V37C38 38.6569 36.6569 40 35 40C33.3431 40 32 38.6569 32 37V3Z" fill="url(#paint4_linear_3954_44072)"/>
<path opacity="0.8" d="M40 15C40 13.3431 41.3431 12 43 12C44.6569 12 46 13.3431 46 15V37C46 38.6569 44.6569 40 43 40C41.3431 40 40 38.6569 40 37V15Z" fill="url(#paint5_linear_3954_44072)"/>
<path opacity="0.6" d="M48 23C48 21.3431 49.3431 20 51 20C52.6569 20 54 21.3431 54 23V37C54 38.6569 52.6569 40 51 40C49.3431 40 48 38.6569 48 37V23Z" fill="url(#paint6_linear_3954_44072)"/>
<path opacity="0.4" d="M56 31C56 29.3431 57.3431 28 59 28C60.6569 28 62 29.3431 62 31V37C62 38.6569 60.6569 40 59 40C57.3431 40 56 38.6569 56 37V31Z" fill="url(#paint7_linear_3954_44072)"/>
<path opacity="0.2" d="M64 37C64 35.3431 65.3431 34 67 34C68.6569 34 70 35.3431 70 37C70 38.6569 68.6569 40 67 40C65.3431 40 64 38.6569 64 37Z" fill="url(#paint8_linear_3954_44072)"/>
<defs>
<linearGradient id="paint0_linear_3954_44072" x1="3" y1="34" x2="3" y2="40" gradientUnits="userSpaceOnUse">
<stop stop-color="#F49C43"/>
<stop offset="1" stop-color="#BA4D14"/>
</linearGradient>
<linearGradient id="paint1_linear_3954_44072" x1="11" y1="28" x2="11" y2="40" gradientUnits="userSpaceOnUse">
<stop stop-color="#F49C43"/>
<stop offset="1" stop-color="#BA4D14"/>
</linearGradient>
<linearGradient id="paint2_linear_3954_44072" x1="19" y1="20" x2="19" y2="40" gradientUnits="userSpaceOnUse">
<stop stop-color="#F49C43"/>
<stop offset="1" stop-color="#BA4D14"/>
</linearGradient>
<linearGradient id="paint3_linear_3954_44072" x1="27" y1="12" x2="27" y2="40" gradientUnits="userSpaceOnUse">
<stop stop-color="#F49C43"/>
<stop offset="1" stop-color="#BA4D14"/>
</linearGradient>
<linearGradient id="paint4_linear_3954_44072" x1="35" y1="0" x2="35" y2="40" gradientUnits="userSpaceOnUse">
<stop stop-color="#F49C43"/>
<stop offset="1" stop-color="#BA4D14"/>
</linearGradient>
<linearGradient id="paint5_linear_3954_44072" x1="43" y1="12" x2="43" y2="40" gradientUnits="userSpaceOnUse">
<stop stop-color="#F49C43"/>
<stop offset="1" stop-color="#BA4D14"/>
</linearGradient>
<linearGradient id="paint6_linear_3954_44072" x1="51" y1="20" x2="51" y2="40" gradientUnits="userSpaceOnUse">
<stop stop-color="#F49C43"/>
<stop offset="1" stop-color="#BA4D14"/>
</linearGradient>
<linearGradient id="paint7_linear_3954_44072" x1="59" y1="28" x2="59" y2="40" gradientUnits="userSpaceOnUse">
<stop stop-color="#F49C43"/>
<stop offset="1" stop-color="#BA4D14"/>
</linearGradient>
<linearGradient id="paint8_linear_3954_44072" x1="67" y1="34" x2="67" y2="40" gradientUnits="userSpaceOnUse">
<stop stop-color="#F49C43"/>
<stop offset="1" stop-color="#BA4D14"/>
</linearGradient>
</defs>
</svg>
