<svg width="70" height="40" viewBox="0 0 70 40" fill="none" xmlns="http://www.w3.org/2000/svg">
<path d="M0 3C0 1.34315 1.34315 0 3 0C4.65685 0 6 1.34315 6 3V37C6 38.6569 4.65685 40 3 40C1.34315 40 0 38.6569 0 37V3Z" fill="url(#paint0_linear_3954_44082)"/>
<path opacity="0.8" d="M8 15C8 13.3431 9.34315 12 11 12C12.6569 12 14 13.3431 14 15V37C14 38.6569 12.6569 40 11 40C9.34315 40 8 38.6569 8 37V15Z" fill="url(#paint1_linear_3954_44082)"/>
<path opacity="0.6" d="M16 23C16 21.3431 17.3431 20 19 20C20.6569 20 22 21.3431 22 23V37C22 38.6569 20.6569 40 19 40C17.3431 40 16 38.6569 16 37V23Z" fill="url(#paint2_linear_3954_44082)"/>
<path opacity="0.4" d="M24 31C24 29.3431 25.3431 28 27 28C28.6569 28 30 29.3431 30 31V37C30 38.6569 28.6569 40 27 40C25.3431 40 24 38.6569 24 37V31Z" fill="url(#paint3_linear_3954_44082)"/>
<path opacity="0.2" d="M32 37C32 35.3431 33.3431 34 35 34C36.6569 34 38 35.3431 38 37C38 38.6569 36.6569 40 35 40C33.3431 40 32 38.6569 32 37Z" fill="url(#paint4_linear_3954_44082)"/>
<path opacity="0.4" d="M40 31C40 29.3431 41.3431 28 43 28C44.6569 28 46 29.3431 46 31V37C46 38.6569 44.6569 40 43 40C41.3431 40 40 38.6569 40 37V31Z" fill="url(#paint5_linear_3954_44082)"/>
<path opacity="0.6" d="M48 23C48 21.3431 49.3431 20 51 20C52.6569 20 54 21.3431 54 23V37C54 38.6569 52.6569 40 51 40C49.3431 40 48 38.6569 48 37V23Z" fill="url(#paint6_linear_3954_44082)"/>
<path opacity="0.8" d="M56 15C56 13.3431 57.3431 12 59 12C60.6569 12 62 13.3431 62 15V37C62 38.6569 60.6569 40 59 40C57.3431 40 56 38.6569 56 37V15Z" fill="url(#paint7_linear_3954_44082)"/>
<path d="M64 3C64 1.34315 65.3431 0 67 0C68.6569 0 70 1.34315 70 3V37C70 38.6569 68.6569 40 67 40C65.3431 40 64 38.6569 64 37V3Z" fill="url(#paint8_linear_3954_44082)"/>
<defs>
<linearGradient id="paint0_linear_3954_44082" x1="3" y1="0" x2="3" y2="40" gradientUnits="userSpaceOnUse">
<stop stop-color="#F49C43"/>
<stop offset="1" stop-color="#BA4D14"/>
</linearGradient>
<linearGradient id="paint1_linear_3954_44082" x1="11" y1="12" x2="11" y2="40" gradientUnits="userSpaceOnUse">
<stop stop-color="#F49C43"/>
<stop offset="1" stop-color="#BA4D14"/>
</linearGradient>
<linearGradient id="paint2_linear_3954_44082" x1="19" y1="20" x2="19" y2="40" gradientUnits="userSpaceOnUse">
<stop stop-color="#F49C43"/>
<stop offset="1" stop-color="#BA4D14"/>
</linearGradient>
<linearGradient id="paint3_linear_3954_44082" x1="27" y1="28" x2="27" y2="40" gradientUnits="userSpaceOnUse">
<stop stop-color="#F49C43"/>
<stop offset="1" stop-color="#BA4D14"/>
</linearGradient>
<linearGradient id="paint4_linear_3954_44082" x1="35" y1="34" x2="35" y2="40" gradientUnits="userSpaceOnUse">
<stop stop-color="#F49C43"/>
<stop offset="1" stop-color="#BA4D14"/>
</linearGradient>
<linearGradient id="paint5_linear_3954_44082" x1="43" y1="28" x2="43" y2="40" gradientUnits="userSpaceOnUse">
<stop stop-color="#F49C43"/>
<stop offset="1" stop-color="#BA4D14"/>
</linearGradient>
<linearGradient id="paint6_linear_3954_44082" x1="51" y1="20" x2="51" y2="40" gradientUnits="userSpaceOnUse">
<stop stop-color="#F49C43"/>
<stop offset="1" stop-color="#BA4D14"/>
</linearGradient>
<linearGradient id="paint7_linear_3954_44082" x1="59" y1="12" x2="59" y2="40" gradientUnits="userSpaceOnUse">
<stop stop-color="#F49C43"/>
<stop offset="1" stop-color="#BA4D14"/>
</linearGradient>
<linearGradient id="paint8_linear_3954_44082" x1="67" y1="0" x2="67" y2="40" gradientUnits="userSpaceOnUse">
<stop stop-color="#F49C43"/>
<stop offset="1" stop-color="#BA4D14"/>
</linearGradient>
</defs>
</svg>
