<svg width="560" height="560" viewBox="0 0 560 560" fill="none" xmlns="http://www.w3.org/2000/svg">
<circle cx="280" cy="280" r="275" stroke="#53AEA8" stroke-opacity="0.4" stroke-width="10"/>
<path d="M263.662 51.332L279.995 60.6654M279.995 60.6654L296.329 51.332M279.995 60.6654V79.332" stroke="#F49C43" stroke-width="1.5"/>
<path d="M296.162 51.3333L279.996 42L263.83 51.3333V70L279.996 79.3333L296.162 70V51.3333Z" stroke="#F49C43" stroke-width="1.5"/>
<path d="M290.098 66.5V54.8333L279.994 49L269.891 54.8333V66.5L279.993 72.3333L290.098 66.5Z" stroke="#F49C43" stroke-width="1.5"/>
<path d="M279.995 479.5L281.203 493.659L289.328 482.001L283.295 494.867L296.161 488.833L284.502 496.959L298.661 498.167L284.502 499.374L296.161 507.5L283.295 501.466L289.328 514.332L281.203 502.674L279.995 516.833L278.787 502.674L270.661 514.332L276.695 501.466L263.829 507.5L275.487 499.374L261.328 498.167L275.487 496.959L263.829 488.833L276.695 494.867L270.661 482.001L278.787 493.659L279.995 479.5Z" stroke="#F49C43" stroke-width="1.5"/>
<path d="M51.0371 264.832L78.1621 278.832L51.0371 292.832L51.0371 278.832L51.0371 264.832Z" stroke="#F49C43" stroke-width="1.5"/>
<path d="M78.1608 278.832L51.0358 278.832L41.9941 278.832" stroke="#F49C43" stroke-width="1.5"/>
<path d="M41.9941 278.833C41.9941 289.143 50.3515 297.5 60.6608 297.5C70.9701 297.5 79.3275 289.143 79.3275 278.833C79.3275 268.524 70.9701 260.167 60.6608 260.167C50.3515 260.167 41.9941 268.524 41.9941 278.833Z" stroke="#F49C43" stroke-width="1.5"/>
<path d="M498.161 297.501C508.47 297.501 516.827 289.144 516.827 278.835C516.827 268.525 508.47 260.168 498.161 260.168C487.851 260.168 479.494 268.525 479.494 278.835C479.494 289.144 487.851 297.501 498.161 297.501Z" stroke="#F49C43" stroke-width="1.5"/>
<path d="M498.16 278.836C506.91 270.086 515.66 278.836 515.66 278.836C515.66 278.836 506.954 287.63 498.16 278.836ZM498.16 278.836C489.41 287.586 498.16 296.336 498.16 296.336C498.16 296.336 506.954 287.63 498.16 278.836ZM498.16 278.836C489.366 270.042 498.16 261.336 498.16 261.336C498.16 261.336 506.91 270.086 498.16 278.836ZM498.16 278.836C489.41 287.586 480.66 278.836 480.66 278.836C480.66 278.836 489.366 270.042 498.16 278.836Z" stroke="#F49C43" stroke-width="1.5"/>
<path d="M251.069 59.5L224.275 48.7546L228.366 77.3308L251.069 59.5ZM61.9718 248.953C62.3052 246.581 62.6753 244.223 63.0816 241.88L58.1552 241.026C57.7397 243.421 57.3613 245.832 57.0204 248.257L61.9718 248.953ZM65.978 227.877C67.1007 223.216 68.3685 218.62 69.7761 214.095L65.0017 212.61C63.562 217.239 62.2652 221.939 61.117 226.706L65.978 227.877ZM74.4681 200.587C76.1857 196.121 78.0427 191.732 80.0331 187.424L75.4942 185.327C73.4581 189.734 71.5584 194.224 69.8013 198.793L74.4681 200.587ZM86.4555 174.646C88.7413 170.449 91.1582 166.339 93.7001 162.323L89.4753 159.649C86.8751 163.757 84.4026 167.961 82.0643 172.255L86.4555 174.646ZM101.738 150.499C104.551 146.64 107.485 142.881 110.533 139.226L106.693 136.023C103.575 139.762 100.575 143.607 97.6976 147.554L101.738 150.499ZM120.042 128.55C123.33 125.092 126.728 121.745 130.228 118.514L126.836 114.84C123.256 118.145 119.782 121.568 116.419 125.105L120.042 128.55ZM141.042 109.16C144.748 106.159 148.549 103.28 152.441 100.526L149.553 96.4444C145.573 99.2607 141.685 102.205 137.896 105.274L141.042 109.16ZM164.374 92.6494C168.433 90.1555 172.575 87.7919 176.794 85.5634L174.459 81.1423C170.144 83.4215 165.908 85.8388 161.757 88.3892L164.374 92.6494ZM189.647 79.3001C193.991 77.3559 198.404 75.5503 202.88 73.8882L201.14 69.2009C196.561 70.9011 192.047 72.7479 187.605 74.7364L189.647 79.3001ZM216.442 69.3517C220.996 67.9926 225.606 66.7789 230.265 65.7155L229.152 60.8408C224.386 61.9287 219.67 63.1702 215.012 64.5606L216.442 69.3517Z" fill="#53AEA8" fill-opacity="0.6"/>
<path d="M59.4961 308L48.6396 334.748L77.2325 330.776L59.4961 308ZM60.7602 329.99C61.833 334.776 63.0606 339.511 64.4382 344.19L69.2345 342.777C67.8879 338.204 66.6878 333.575 65.6391 328.896L60.7602 329.99ZM69.0438 358.123C70.7336 362.722 72.5712 367.256 74.5516 371.719L79.1219 369.691C77.1856 365.328 75.3891 360.895 73.7371 356.398L69.0438 358.123ZM80.9368 384.927C83.2102 389.263 85.6229 393.52 88.1698 397.691L92.4373 395.085C89.9469 391.007 87.5878 386.844 85.3649 382.605L80.9368 384.927ZM96.2177 409.956C99.0326 413.956 101.977 417.863 105.046 421.672L108.939 418.535C105.938 414.81 103.059 410.99 100.307 407.078L96.2177 409.956ZM114.618 432.789C117.925 436.387 121.352 439.88 124.893 443.26L128.346 439.644C124.884 436.339 121.533 432.923 118.299 429.405L114.618 432.789ZM135.829 453.038C139.573 456.172 143.426 459.189 147.382 462.081L150.333 458.045C146.466 455.218 142.699 452.268 139.038 449.204L135.829 453.038ZM159.503 470.348C163.621 472.962 167.835 475.448 172.14 477.798L174.536 473.41C170.327 471.112 166.208 468.682 162.183 466.127L159.503 470.348ZM185.246 484.403C189.665 486.45 194.168 488.36 198.75 490.126L200.548 485.46C196.069 483.734 191.667 481.867 187.348 479.866L185.246 484.403ZM212.609 494.949C217.252 496.396 221.966 497.699 226.748 498.852L227.92 493.992C223.245 492.864 218.635 491.59 214.096 490.176L212.609 494.949ZM241.113 501.827C243.516 502.244 245.934 502.623 248.367 502.965L249.063 498.014C246.683 497.68 244.318 497.308 241.967 496.9L241.113 501.827Z" fill="#53AEA8" fill-opacity="0.6"/>
<path d="M306.83 499.555L333.578 510.411L329.606 481.818L306.83 499.555ZM328.82 498.291C333.606 497.218 338.341 495.99 343.019 494.612L341.607 489.816C337.034 491.163 332.405 492.363 327.726 493.412L328.82 498.291ZM356.952 490.007C361.551 488.317 366.086 486.479 370.549 484.499L368.521 479.929C364.157 481.865 359.724 483.661 355.228 485.313L356.952 490.007ZM383.757 478.114C388.092 475.84 392.349 473.427 396.52 470.881L393.915 466.613C389.836 469.104 385.674 471.463 381.435 473.686L383.757 478.114ZM408.785 462.833C412.785 460.018 416.692 457.073 420.501 454.004L417.364 450.111C413.64 453.112 409.819 455.991 405.907 458.744L408.785 462.833ZM431.618 444.433C435.216 441.125 438.709 437.698 442.089 434.157L438.473 430.704C435.167 434.167 431.752 437.517 428.234 440.752L431.618 444.433ZM451.867 423.222C455.001 419.477 458.018 415.625 460.91 411.669L456.874 408.718C454.046 412.585 451.097 416.352 448.033 420.013L451.867 423.222ZM469.176 399.548C471.79 395.43 474.276 391.216 476.627 386.911L472.238 384.515C469.94 388.723 467.511 392.843 464.955 396.868L469.176 399.548ZM483.232 373.805C485.278 369.386 487.188 364.883 488.954 360.301L484.288 358.503C482.562 362.982 480.695 367.384 478.695 371.703L483.232 373.805ZM493.778 346.442C495.224 341.799 496.527 337.085 497.68 332.303L492.82 331.131C491.692 335.806 490.418 340.416 489.004 344.955L493.778 346.442ZM500.655 317.939C501.072 315.535 501.452 313.117 501.793 310.684L496.842 309.988C496.508 312.368 496.136 314.733 495.728 317.084L500.655 317.939Z" fill="#53AEA8" fill-opacity="0.6"/>
<path d="M499.547 253.155L510.403 226.407L481.81 230.379L499.547 253.155ZM309.98 63.1436C312.36 63.4781 314.725 63.8496 317.076 64.2574L317.931 59.331C315.527 58.914 313.109 58.5342 310.676 58.1923L309.98 63.1436ZM331.123 67.1659C335.799 68.2936 340.408 69.5675 344.947 70.9818L346.434 66.2082C341.792 64.7615 337.077 63.4586 332.295 62.3053L331.123 67.1659ZM358.495 75.6973C362.974 77.4237 367.376 79.2903 371.695 81.2911L373.797 76.7542C369.378 74.7073 364.875 72.7978 360.293 71.0318L358.495 75.6973ZM384.507 87.7473C388.715 90.0453 392.835 92.4751 396.86 95.0306L399.54 90.8093C395.422 88.1953 391.208 85.7096 386.903 83.3589L384.507 87.7473ZM408.71 103.112C412.577 105.939 416.344 108.889 420.005 111.953L423.214 108.119C419.469 104.985 415.617 101.968 411.661 99.0756L408.71 103.112ZM430.696 121.513C434.159 124.818 437.509 128.233 440.744 131.752L444.425 128.368C441.117 124.77 437.69 121.277 434.149 117.896L430.696 121.513ZM450.103 142.622C453.104 146.346 455.983 150.167 458.736 154.078L462.825 151.2C460.01 147.201 457.065 143.293 453.996 139.485L450.103 142.622ZM466.605 166.071C469.096 170.149 471.455 174.312 473.678 178.551L478.106 176.229C475.832 171.893 473.419 167.636 470.873 163.465L466.605 166.071ZM479.921 191.464C481.857 195.828 483.653 200.261 485.305 204.757L489.999 203.033C488.309 198.434 486.471 193.899 484.491 189.436L479.921 191.464ZM489.808 218.378C491.155 222.951 492.355 227.58 493.404 232.259L498.283 231.165C497.21 226.379 495.982 221.644 494.604 216.966L489.808 218.378Z" fill="#53AEA8" fill-opacity="0.6"/>
<path d="M138.509 198.332L114.561 214.451L140.495 227.131L138.509 198.332ZM166.269 393.745C119.162 346.637 107.382 277.574 130.943 219.484L126.31 217.604C102.02 277.49 114.156 348.703 162.734 397.28L166.269 393.745Z" fill="#53AEA8" fill-opacity="0.8"/>
<path d="M198.33 421.492L214.449 445.44L227.129 419.507L198.33 421.492ZM393.743 393.732C346.635 440.84 277.572 452.62 219.482 429.058L217.602 433.691C277.488 457.981 348.701 445.845 397.278 397.268L393.743 393.732Z" fill="#53AEA8" fill-opacity="0.8"/>
<path d="M421.827 362.26L445.707 346.04L419.721 333.469L421.827 362.26ZM393.728 167.436C440.667 214.375 452.531 283.113 429.305 341.074L433.947 342.933C457.89 283.181 445.668 212.304 397.264 163.9L393.728 167.436Z" fill="#53AEA8" fill-opacity="0.8"/>
<path d="M361.678 138.516L345.559 114.568L332.879 140.501L361.678 138.516ZM166.264 166.275C213.372 119.167 282.436 107.387 340.526 130.95L342.406 126.316C282.519 102.026 211.306 114.162 162.728 162.739L166.264 166.275Z" fill="#53AEA8" fill-opacity="0.8"/>
</svg>
