<svg width="16" height="16" viewBox="0 0 16 16" fill="none" xmlns="http://www.w3.org/2000/svg">
<g clip-path="url(#clip0_3831_14571)">
<path fill-rule="evenodd" clip-rule="evenodd" d="M8.00065 0.666016C8.36884 0.666016 8.66732 0.964492 8.66732 1.33268V3.99935C8.66732 4.36754 8.36884 4.66602 8.00065 4.66602C7.63246 4.66602 7.33398 4.36754 7.33398 3.99935V1.33268C7.33398 0.964492 7.63246 0.666016 8.00065 0.666016Z" fill="#A3A3A3"/>
<path fill-rule="evenodd" clip-rule="evenodd" d="M8.00065 11.334C8.36884 11.334 8.66732 11.6325 8.66732 12.0007V14.6673C8.66732 15.0355 8.36884 15.334 8.00065 15.334C7.63246 15.334 7.33398 15.0355 7.33398 14.6673V12.0007C7.33398 11.6325 7.63246 11.334 8.00065 11.334Z" fill="#A3A3A3"/>
<path fill-rule="evenodd" clip-rule="evenodd" d="M2.8144 2.8144C3.07475 2.55405 3.49686 2.55405 3.75721 2.8144L5.64388 4.70107C5.90423 4.96142 5.90423 5.38353 5.64388 5.64388C5.38353 5.90423 4.96142 5.90423 4.70107 5.64388L2.8144 3.75721C2.55405 3.49686 2.55405 3.07475 2.8144 2.8144Z" fill="#A3A3A3"/>
<path fill-rule="evenodd" clip-rule="evenodd" d="M10.3554 10.3554C10.6158 10.0951 11.0379 10.0951 11.2982 10.3554L13.1849 12.2421C13.4452 12.5024 13.4452 12.9245 13.1849 13.1849C12.9245 13.4452 12.5024 13.4452 12.2421 13.1849L10.3554 11.2982C10.0951 11.0379 10.0951 10.6158 10.3554 10.3554Z" fill="#A3A3A3"/>
<path fill-rule="evenodd" clip-rule="evenodd" d="M0.666016 8.00065C0.666016 7.63246 0.964492 7.33398 1.33268 7.33398H3.99935C4.36754 7.33398 4.66602 7.63246 4.66602 8.00065C4.66602 8.36884 4.36754 8.66732 3.99935 8.66732H1.33268C0.964492 8.66732 0.666016 8.36884 0.666016 8.00065Z" fill="#A3A3A3"/>
<path fill-rule="evenodd" clip-rule="evenodd" d="M11.334 8.00065C11.334 7.63246 11.6325 7.33398 12.0007 7.33398H14.6673C15.0355 7.33398 15.334 7.63246 15.334 8.00065C15.334 8.36884 15.0355 8.66732 14.6673 8.66732H12.0007C11.6325 8.66732 11.334 8.36884 11.334 8.00065Z" fill="#A3A3A3"/>
<path fill-rule="evenodd" clip-rule="evenodd" d="M5.64388 10.3554C5.90423 10.6158 5.90423 11.0379 5.64388 11.2982L3.75721 13.1849C3.49686 13.4452 3.07475 13.4452 2.8144 13.1849C2.55405 12.9245 2.55405 12.5024 2.8144 12.2421L4.70107 10.3554C4.96142 10.0951 5.38353 10.0951 5.64388 10.3554Z" fill="#A3A3A3"/>
<path fill-rule="evenodd" clip-rule="evenodd" d="M13.1849 2.8144C13.4452 3.07475 13.4452 3.49686 13.1849 3.75721L11.2982 5.64388C11.0379 5.90423 10.6158 5.90423 10.3554 5.64388C10.0951 5.38353 10.0951 4.96142 10.3554 4.70107L12.2421 2.8144C12.5024 2.55405 12.9245 2.55405 13.1849 2.8144Z" fill="#A3A3A3"/>
</g>
<defs>
<clipPath id="clip0_3831_14571">
<rect width="16" height="16" fill="white"/>
</clipPath>
</defs>
</svg>
