<svg width="676" height="157" viewBox="0 0 676 157" fill="none" xmlns="http://www.w3.org/2000/svg">
<path fill-rule="evenodd" clip-rule="evenodd" d="M180.95 88.1682C185.438 86.0436 190.568 84.7339 197.001 84.7339C205.611 84.7339 212.763 86.2856 218.998 89.4572C225.234 92.629 230.652 97.4714 235.726 104.202C240.834 110.979 245.557 119.618 250.387 130.296C247.03 125.341 243.396 120.762 239.461 116.763C228.787 105.915 215.802 99.2478 200.151 101.067C188.195 102.456 181.27 106.403 174.858 110.815C173.866 111.498 172.892 112.188 171.916 112.878C166.633 116.614 161.326 120.368 153.103 123.163C137.2 128.569 121.708 126.749 105.408 123.473C102.127 122.813 98.8092 122.093 95.4497 121.364C82.212 118.491 68.3287 115.478 53.523 115.478C42.5125 115.478 32.9973 118.431 23.6965 125.248C20.7672 127.394 17.8651 129.92 14.9473 132.848C23.9009 121.508 35.7181 109.376 50.3888 107.519C65.9021 105.556 73.9604 108.318 82.3544 111.605C82.8368 111.794 83.3204 111.985 83.8067 112.177C91.966 115.395 100.873 118.907 116.922 118.895C121.687 118.891 125.99 118.539 129.907 117.903C123.993 117.894 118.284 117.007 112.905 115.366C99.9654 114.853 92.3151 111.836 84.9891 108.947C84.5042 108.756 84.0187 108.565 83.5352 108.375C74.8402 104.97 66.2149 102.038 49.9839 104.092C39.9538 105.361 30.4805 111.624 22.2765 119.59C23.2192 118.353 24.1758 117.133 25.1448 115.936C31.2682 108.369 37.8232 101.78 44.4055 97.4659C48.7111 94.644 52.9621 92.8394 57.0622 92.3206C70.8324 90.5783 79.7444 96.0693 90.1285 102.467L90.9899 102.997C88.0699 100.383 85.4142 97.4788 83.0677 94.3308C75.5264 90.3003 67.4218 87.5307 56.6573 88.8928C54.3576 89.1837 52.0615 89.8179 49.7837 90.7369C51.0467 89.435 52.4909 88.1216 54.0958 86.8973C58.495 83.5414 63.9943 80.9342 70.2065 80.9342C72.1399 80.9342 73.9777 81.093 75.7668 81.3745C75.28 80.1741 74.8319 78.9539 74.424 77.7155C73.0577 77.564 71.6558 77.4809 70.2065 77.4809C63.0719 77.4809 56.8928 80.4735 52.1161 84.1175C47.5248 87.6199 44.1293 91.7976 42.2995 94.7603C38.3444 97.3943 34.4488 100.76 30.6847 104.588C32.8997 100.721 35.5784 96.6283 38.5946 92.7156C42.0914 88.1795 46.0106 83.9271 50.1458 80.5654C54.151 77.3094 58.2958 74.9401 62.4039 73.9087C63.9026 73.5323 65.3931 73.3348 66.8698 73.3348C69.0304 73.3348 71.1584 73.4663 73.2616 73.7061C72.9676 72.5361 72.7088 71.3521 72.4864 70.1554C70.6348 69.9775 68.7642 69.8815 66.8698 69.8815C65.1041 69.8815 63.3491 70.1178 61.6172 70.5527C59.4504 71.0967 57.3147 71.9527 55.2283 73.0528C58.91 68.9954 64.2611 65.2645 71.5754 62.3962C71.5253 61.4038 71.5 60.405 71.5 59.4003C71.5 27.0901 97.6913 0.897461 130 0.897461C162.309 0.897461 188.5 27.0901 188.5 59.4003C188.5 60.2513 188.482 61.098 188.446 61.9401C188.661 61.9371 188.878 61.9356 189.097 61.9356C194.281 61.9355 198.917 63.251 203.006 65.1021C203.949 65.529 204.859 65.9825 205.738 66.4533C204.001 66.2084 202.201 66.0818 200.338 66.0818C195.585 66.0818 191.539 66.5344 187.969 67.3191C187.801 68.5613 187.593 69.7911 187.349 71.0072C190.991 70.0864 195.206 69.5351 200.338 69.5351C206.495 69.5351 213.163 71.005 218.255 74.758C218.876 75.2162 219.785 75.9451 220.882 76.9984C223.073 79.1037 226.021 82.5104 228.928 87.6533C230.195 89.8942 231.455 92.4673 232.642 95.4092C228.913 91.6257 224.903 88.613 220.47 86.3579C213.686 82.9072 206.01 81.2806 197.001 81.2806C191.746 81.2806 187.28 82.1011 183.33 83.4807C182.606 85.0829 181.811 86.6467 180.95 88.1682ZM185.25 59.4003C185.25 89.9155 160.514 114.653 130 114.653C99.4863 114.653 74.75 89.9155 74.75 59.4003C74.75 28.8851 99.4863 4.14762 130 4.14762C160.514 4.14762 185.25 28.8851 185.25 59.4003Z" fill="white"/>
<path fill-rule="evenodd" clip-rule="evenodd" d="M180.95 88.1682C185.438 86.0436 190.568 84.7339 197.001 84.7339C205.611 84.7339 212.763 86.2856 218.998 89.4572C225.234 92.629 230.652 97.4714 235.726 104.202C240.834 110.979 245.557 119.618 250.387 130.296C247.03 125.341 243.396 120.762 239.461 116.763C228.787 105.915 215.802 99.2478 200.151 101.067C188.195 102.456 181.27 106.403 174.858 110.815C173.866 111.498 172.892 112.188 171.916 112.878C166.633 116.614 161.326 120.368 153.103 123.163C137.2 128.569 121.708 126.749 105.408 123.473C102.127 122.813 98.8092 122.093 95.4497 121.364C82.212 118.491 68.3287 115.478 53.523 115.478C42.5125 115.478 32.9973 118.431 23.6965 125.248C20.7672 127.394 17.8651 129.92 14.9473 132.848C23.9009 121.508 35.7181 109.376 50.3888 107.519C65.9021 105.556 73.9604 108.318 82.3544 111.605C82.8368 111.794 83.3204 111.985 83.8067 112.177C91.966 115.395 100.873 118.907 116.922 118.895C121.687 118.891 125.99 118.539 129.907 117.903C123.993 117.894 118.284 117.007 112.905 115.366C99.9654 114.853 92.3151 111.836 84.9891 108.947C84.5042 108.756 84.0187 108.565 83.5352 108.375C74.8402 104.97 66.2149 102.038 49.9839 104.092C39.9538 105.361 30.4805 111.624 22.2765 119.59C23.2192 118.353 24.1758 117.133 25.1448 115.936C31.2682 108.369 37.8232 101.78 44.4055 97.4659C48.7111 94.644 52.9621 92.8394 57.0622 92.3206C70.8324 90.5783 79.7444 96.0693 90.1285 102.467L90.9899 102.997C88.0699 100.383 85.4142 97.4788 83.0677 94.3308C75.5264 90.3003 67.4218 87.5307 56.6573 88.8928C54.3576 89.1837 52.0615 89.8179 49.7837 90.7369C51.0467 89.435 52.4909 88.1216 54.0958 86.8973C58.495 83.5414 63.9943 80.9342 70.2065 80.9342C72.1399 80.9342 73.9777 81.093 75.7668 81.3745C75.28 80.1741 74.8319 78.9539 74.424 77.7155C73.0577 77.564 71.6558 77.4809 70.2065 77.4809C63.0719 77.4809 56.8928 80.4735 52.1161 84.1175C47.5248 87.6199 44.1293 91.7976 42.2995 94.7603C38.3444 97.3943 34.4488 100.76 30.6847 104.588C32.8997 100.721 35.5784 96.6283 38.5946 92.7156C42.0914 88.1795 46.0106 83.9271 50.1458 80.5654C54.151 77.3094 58.2958 74.9401 62.4039 73.9087C63.9026 73.5323 65.3931 73.3348 66.8698 73.3348C69.0304 73.3348 71.1584 73.4663 73.2616 73.7061C72.9676 72.5361 72.7088 71.3521 72.4864 70.1554C70.6348 69.9775 68.7642 69.8815 66.8698 69.8815C65.1041 69.8815 63.3491 70.1178 61.6172 70.5527C59.4504 71.0967 57.3147 71.9527 55.2283 73.0528C58.91 68.9954 64.2611 65.2645 71.5754 62.3962C71.5253 61.4038 71.5 60.405 71.5 59.4003C71.5 27.0901 97.6913 0.897461 130 0.897461C162.309 0.897461 188.5 27.0901 188.5 59.4003C188.5 60.2513 188.482 61.098 188.446 61.9401C188.661 61.9371 188.878 61.9356 189.097 61.9356C194.281 61.9355 198.917 63.251 203.006 65.1021C203.949 65.529 204.859 65.9825 205.738 66.4533C204.001 66.2084 202.201 66.0818 200.338 66.0818C195.585 66.0818 191.539 66.5344 187.969 67.3191C187.801 68.5613 187.593 69.7911 187.349 71.0072C190.991 70.0864 195.206 69.5351 200.338 69.5351C206.495 69.5351 213.163 71.005 218.255 74.758C218.876 75.2162 219.785 75.9451 220.882 76.9984C223.073 79.1037 226.021 82.5104 228.928 87.6533C230.195 89.8942 231.455 92.4673 232.642 95.4092C228.913 91.6257 224.903 88.613 220.47 86.3579C213.686 82.9072 206.01 81.2806 197.001 81.2806C191.746 81.2806 187.28 82.1011 183.33 83.4807C182.606 85.0829 181.811 86.6467 180.95 88.1682ZM185.25 59.4003C185.25 89.9155 160.514 114.653 130 114.653C99.4863 114.653 74.75 89.9155 74.75 59.4003C74.75 28.8851 99.4863 4.14762 130 4.14762C160.514 4.14762 185.25 28.8851 185.25 59.4003Z" fill="url(#paint0_linear_1459_40851)"/>
<path d="M189.097 58.4822C188.894 58.4822 188.693 58.4835 188.493 58.4859C188.458 56.148 188.285 53.8433 187.983 51.5796C192.625 53.6814 196.753 56.486 199.636 60.1326C196.414 59.1216 192.898 58.4822 189.097 58.4822Z" fill="white"/>
<path d="M189.097 58.4822C188.894 58.4822 188.693 58.4835 188.493 58.4859C188.458 56.148 188.285 53.8433 187.983 51.5796C192.625 53.6814 196.753 56.486 199.636 60.1326C196.414 59.1216 192.898 58.4822 189.097 58.4822Z" fill="url(#paint1_linear_1459_40851)"/>
<path d="M34.2271 156.897H0C9.2142 143.419 17.3918 134.099 25.6247 128.066C34.3421 121.677 43.1787 118.931 53.523 118.931C67.9478 118.931 81.4031 121.849 94.6064 124.712L94.9181 124.779C106.734 127.342 118.38 129.867 130.12 130.042C123.925 130.27 117.45 129.618 110.764 128.792C109.444 128.629 108.115 128.458 106.779 128.287L106.772 128.286C99.313 127.331 91.6351 126.348 84.0564 126.389C75.0784 126.438 66.1108 127.917 57.5499 132.614C49.1755 137.21 41.3164 144.815 34.2271 156.897Z" fill="white"/>
<path d="M34.2271 156.897H0C9.2142 143.419 17.3918 134.099 25.6247 128.066C34.3421 121.677 43.1787 118.931 53.523 118.931C67.9478 118.931 81.4031 121.849 94.6064 124.712L94.9181 124.779C106.734 127.342 118.38 129.867 130.12 130.042C123.925 130.27 117.45 129.618 110.764 128.792C109.444 128.629 108.115 128.458 106.779 128.287L106.772 128.286C99.313 127.331 91.6351 126.348 84.0564 126.389C75.0784 126.438 66.1108 127.917 57.5499 132.614C49.1755 137.21 41.3164 144.815 34.2271 156.897Z" fill="url(#paint2_linear_1459_40851)"/>
<path d="M123.542 133.446C119.185 133.249 114.774 132.765 110.369 132.221C109.017 132.054 107.665 131.881 106.316 131.708C98.8505 130.753 91.4189 129.803 84.0738 129.842C75.4394 129.889 67.0505 131.31 59.1129 135.665C53.2711 138.871 47.6021 143.706 42.2375 150.88C55.7844 141.964 80.0206 132.64 110.063 139.015C114.383 137.053 118.908 135.15 123.542 133.446Z" fill="white"/>
<path d="M123.542 133.446C119.185 133.249 114.774 132.765 110.369 132.221C109.017 132.054 107.665 131.881 106.316 131.708C98.8505 130.753 91.4189 129.803 84.0738 129.842C75.4394 129.889 67.0505 131.31 59.1129 135.665C53.2711 138.871 47.6021 143.706 42.2375 150.88C55.7844 141.964 80.0206 132.64 110.063 139.015C114.383 137.053 118.908 135.15 123.542 133.446Z" fill="url(#paint3_linear_1459_40851)"/>
<path d="M39.7166 156.897C50.6263 148.25 74.2391 136.639 104.705 141.525C98.2747 144.622 92.4174 147.734 87.5075 150.343L85.6685 151.32C82.4058 153.05 73.5432 156.897 73.5432 156.897H39.7166Z" fill="white"/>
<path d="M39.7166 156.897C50.6263 148.25 74.2391 136.639 104.705 141.525C98.2747 144.622 92.4174 147.734 87.5075 150.343L85.6685 151.32C82.4058 153.05 73.5432 156.897 73.5432 156.897H39.7166Z" fill="url(#paint4_linear_1459_40851)"/>
<path d="M89.1999 153.326C95.298 150.086 102.748 146.133 110.921 142.398C118.972 138.719 127.689 135.268 136.445 132.938C143.392 131.089 150.331 129.953 156.961 129.953C163.403 129.953 172.617 131.761 183.238 134.591C196.483 138.119 211.688 143.171 226.001 148.034C228.176 148.773 230.338 149.51 232.463 150.235C238.517 152.299 244.325 154.279 249.642 156.031C239.769 154.86 230.131 152.647 219.856 150.288L219.844 150.285C218.478 149.971 217.102 149.655 215.711 149.338C198.997 145.532 180.503 141.699 156.961 141.699C136.744 141.699 118.242 145.535 103.584 149.35C98.7017 150.621 94.2155 151.898 90.2506 153.027L89.1999 153.326Z" fill="white"/>
<path d="M89.1999 153.326C95.298 150.086 102.748 146.133 110.921 142.398C118.972 138.719 127.689 135.268 136.445 132.938C143.392 131.089 150.331 129.953 156.961 129.953C163.403 129.953 172.617 131.761 183.238 134.591C196.483 138.119 211.688 143.171 226.001 148.034C228.176 148.773 230.338 149.51 232.463 150.235C238.517 152.299 244.325 154.279 249.642 156.031C239.769 154.86 230.131 152.647 219.856 150.288L219.844 150.285C218.478 149.971 217.102 149.655 215.711 149.338C198.997 145.532 180.503 141.699 156.961 141.699C136.744 141.699 118.242 145.535 103.584 149.35C98.7017 150.621 94.2155 151.898 90.2506 153.027L89.1999 153.326Z" fill="url(#paint5_linear_1459_40851)"/>
<path d="M219.183 153.671C224.124 154.806 228.961 155.917 233.78 156.897H89.2338L91.1911 156.341C95.1352 155.218 99.5472 153.962 104.397 152.699C118.936 148.915 137.137 145.152 156.961 145.152C180.132 145.152 198.342 148.918 214.994 152.711C216.396 153.03 217.789 153.35 219.173 153.668L219.183 153.671Z" fill="white"/>
<path d="M219.183 153.671C224.124 154.806 228.961 155.917 233.78 156.897H89.2338L91.1911 156.341C95.1352 155.218 99.5472 153.962 104.397 152.699C118.936 148.915 137.137 145.152 156.961 145.152C180.132 145.152 198.342 148.918 214.994 152.711C216.396 153.03 217.789 153.35 219.173 153.668L219.183 153.671Z" fill="url(#paint6_linear_1459_40851)"/>
<path d="M237.124 119.227C240.862 123.026 244.335 127.392 247.563 132.142C238.886 124.019 227.535 117.37 213.909 115.457C200.267 113.543 186.683 115.722 176.129 118.673C170.843 120.151 166.292 121.829 162.841 123.304C161.723 123.782 157.282 125.346 155.212 126.071C163.322 123.151 168.776 119.288 173.855 115.691C174.814 115.012 175.759 114.343 176.706 113.691C182.842 109.468 189.264 105.807 200.524 104.499C214.904 102.827 226.944 108.882 237.124 119.227Z" fill="white"/>
<path d="M237.124 119.227C240.862 123.026 244.335 127.392 247.563 132.142C238.886 124.019 227.535 117.37 213.909 115.457C200.267 113.543 186.683 115.722 176.129 118.673C170.843 120.151 166.292 121.829 162.841 123.304C161.723 123.782 157.282 125.346 155.212 126.071C163.322 123.151 168.776 119.288 173.855 115.691C174.814 115.012 175.759 114.343 176.706 113.691C182.842 109.468 189.264 105.807 200.524 104.499C214.904 102.827 226.944 108.882 237.124 119.227Z" fill="url(#paint7_linear_1459_40851)"/>
<path d="M155.212 126.071C154.861 126.197 154.506 126.322 154.145 126.444C154.145 126.444 154.158 126.439 154.174 126.434L155.212 126.071Z" fill="white"/>
<path d="M155.212 126.071C154.861 126.197 154.506 126.322 154.145 126.444C154.145 126.444 154.158 126.439 154.174 126.434L155.212 126.071Z" fill="url(#paint8_linear_1459_40851)"/>
<path d="M163.171 126.907C169.043 127.598 176.053 129.124 183.624 131.128C202.399 125.461 214.407 127.145 225.91 132.783C231.854 135.697 237.366 139.462 242.846 143.206L243.954 143.962C248.771 147.248 253.986 150.806 260 154.444C251.388 136.007 233.129 121.64 213.46 118.879C200.409 117.048 187.299 119.127 176.999 122.007C171.353 123.586 166.559 125.406 163.171 126.907Z" fill="white"/>
<path d="M163.171 126.907C169.043 127.598 176.053 129.124 183.624 131.128C202.399 125.461 214.407 127.145 225.91 132.783C231.854 135.697 237.366 139.462 242.846 143.206L243.954 143.962C248.771 147.248 253.986 150.806 260 154.444C251.388 136.007 233.129 121.64 213.46 118.879C200.409 117.048 187.299 119.127 176.999 122.007C171.353 123.586 166.559 125.406 163.171 126.907Z" fill="url(#paint9_linear_1459_40851)"/>
<path d="M242.144 146.863L242.15 146.867C244.958 148.783 247.924 150.807 251.121 152.894C245.712 151.116 239.762 149.087 233.521 146.959C231.391 146.233 229.228 145.496 227.041 144.753C214.86 140.615 201.959 136.313 190.146 132.929C205.033 129.386 214.949 131.232 224.482 135.904C230.234 138.723 235.568 142.37 240.872 145.994L242.144 146.863Z" fill="white"/>
<path d="M242.144 146.863L242.15 146.867C244.958 148.783 247.924 150.807 251.121 152.894C245.712 151.116 239.762 149.087 233.521 146.959C231.391 146.233 229.228 145.496 227.041 144.753C214.86 140.615 201.959 136.313 190.146 132.929C205.033 129.386 214.949 131.232 224.482 135.904C230.234 138.723 235.568 142.37 240.872 145.994L242.144 146.863Z" fill="url(#paint10_linear_1459_40851)"/>
<path d="M130 114.653C160.514 114.653 185.25 89.9155 185.25 59.4003C185.25 28.8851 160.514 4.14762 130 4.14762C99.4863 4.14762 74.75 28.8851 74.75 59.4003C74.75 89.9155 99.4863 114.653 130 114.653Z" fill="black"/>
<path d="M416.858 45L376.164 156.911H348.864L308 45H332.756L356.325 116.216L362.768 138.259L369.042 116.385L392.781 45H416.858Z" fill="white"/>
<path d="M433.801 156.911V45H517.734V63.8213H457.201V91.6294H504.848V109.603H457.201V138.089H520.108V156.911H433.801Z" fill="white"/>
<path d="M564.501 45V156.911H541.102V45H564.501Z" fill="white"/>
<path d="M616.993 138.089H676V156.911H593.593V45H616.993V138.089Z" fill="white"/>
<g clip-path="url(#clip0_1459_40851)">
<path d="M403.686 16.0107L385.846 0.925294H379.638V28.2859H387.523V13.2005L405.324 28.2859H411.571V0.925294H403.686V16.0107ZM343.919 28.2859H371.442V21.5628H351.803V17.5768H371.091V11.205H351.803V7.64836H371.442V0.925294H343.919V28.2859ZM328.106 0.925294H308V28.2859H315.885V17.6159H328.106C333.574 17.6159 337.282 14.6446 337.282 9.29253C337.282 7.77033 336.892 6.36034 336.151 5.07232C334.631 2.53044 331.741 0.93017 328.111 0.93017L328.106 0.925294ZM327.131 11.2831H315.85V7.25805H327.131C328.652 7.25805 329.397 7.92157 329.397 9.29253C329.397 10.6635 328.657 11.288 327.131 11.288V11.2831ZM524.478 14.3714C529.278 14.0982 532.051 12.0637 532.051 8.15575C532.051 6.00418 531.271 4.24779 529.746 2.91586C528.187 1.58881 526.038 0.92041 523.265 0.92041H502.379V28.281H524.123C529.395 28.281 532.948 25.3488 532.948 21.0115C532.948 16.6742 529.746 14.4836 524.473 14.3665L524.478 14.3714ZM521.905 7.64836C523.309 7.64836 524.171 8.11672 524.171 9.48768C524.171 10.8586 523.353 11.288 521.905 11.288H510.313L510.274 7.65323H521.905V7.64836ZM522.763 21.5238H510.347L510.308 17.4988H522.763C524.127 17.4988 525.029 18.2013 525.029 19.6113C525.029 20.8993 524.288 21.5287 522.763 21.5287V21.5238ZM442.495 15.2301C442.495 19.5674 439.878 21.8751 435.468 21.8751C431.058 21.8751 428.441 19.5674 428.441 15.2301V0.925294H420.557V14.0592C420.557 25.3928 426.141 28.9104 435.468 28.9104C444.795 28.9104 450.379 25.3928 450.379 14.0592V0.925294H442.495V15.2301ZM558.955 15.0349H561.767C567.117 15.0349 570.553 12.4931 570.553 8.15575C570.553 3.81845 567.273 0.925294 561.767 0.925294H539.711V28.2859H547.596L547.557 17.2646H552.63C554.072 17.2646 555.285 17.5378 556.221 18.1233C557.157 18.7087 558.097 19.6845 559.072 21.0945C560.046 22.5386 561.455 24.9244 563.326 28.2859H572.931C571.371 25.0415 569.963 22.5386 568.715 20.7432C566.216 17.1475 563.365 15.3082 558.955 15.0349ZM547.552 11.2831L547.513 7.25805H560.397C561.918 7.25805 562.663 7.88254 562.663 9.29253C562.663 10.7025 561.923 11.288 560.397 11.288H547.552V11.2831ZM602.641 0.925294H594.167L577.808 28.2859H587.14L589.718 23.6754H607.09L609.668 28.2859H619L602.641 0.925294ZM593.465 16.9523L598.421 8.03866L603.338 16.9523H593.461H593.465ZM476.187 17.2255L465.257 0.925294H458.971V28.2859H466.855V15.2301L475.363 28.2859H477.006L485.514 15.2301V28.2859H493.398V0.925294H487.112L476.182 17.2255H476.187Z" fill="white"/>
</g>
<defs>
<linearGradient id="paint0_linear_1459_40851" x1="259.87" y1="46.5654" x2="245.054" y2="183.367" gradientUnits="userSpaceOnUse">
<stop offset="0.25" stop-color="#53AEA8"/>
<stop offset="0.75" stop-color="#F49C43"/>
</linearGradient>
<linearGradient id="paint1_linear_1459_40851" x1="259.87" y1="46.5654" x2="245.054" y2="183.367" gradientUnits="userSpaceOnUse">
<stop offset="0.25" stop-color="#53AEA8"/>
<stop offset="0.75" stop-color="#F49C43"/>
</linearGradient>
<linearGradient id="paint2_linear_1459_40851" x1="259.87" y1="46.5654" x2="245.054" y2="183.367" gradientUnits="userSpaceOnUse">
<stop offset="0.25" stop-color="#53AEA8"/>
<stop offset="0.75" stop-color="#F49C43"/>
</linearGradient>
<linearGradient id="paint3_linear_1459_40851" x1="259.87" y1="46.5654" x2="245.054" y2="183.367" gradientUnits="userSpaceOnUse">
<stop offset="0.25" stop-color="#53AEA8"/>
<stop offset="0.75" stop-color="#F49C43"/>
</linearGradient>
<linearGradient id="paint4_linear_1459_40851" x1="259.87" y1="46.5654" x2="245.054" y2="183.367" gradientUnits="userSpaceOnUse">
<stop offset="0.25" stop-color="#53AEA8"/>
<stop offset="0.75" stop-color="#F49C43"/>
</linearGradient>
<linearGradient id="paint5_linear_1459_40851" x1="259.87" y1="46.5654" x2="245.054" y2="183.367" gradientUnits="userSpaceOnUse">
<stop offset="0.25" stop-color="#53AEA8"/>
<stop offset="0.75" stop-color="#F49C43"/>
</linearGradient>
<linearGradient id="paint6_linear_1459_40851" x1="259.87" y1="46.5654" x2="245.054" y2="183.367" gradientUnits="userSpaceOnUse">
<stop offset="0.25" stop-color="#53AEA8"/>
<stop offset="0.75" stop-color="#F49C43"/>
</linearGradient>
<linearGradient id="paint7_linear_1459_40851" x1="259.87" y1="46.5654" x2="245.054" y2="183.367" gradientUnits="userSpaceOnUse">
<stop offset="0.25" stop-color="#53AEA8"/>
<stop offset="0.75" stop-color="#F49C43"/>
</linearGradient>
<linearGradient id="paint8_linear_1459_40851" x1="259.87" y1="46.5654" x2="245.054" y2="183.367" gradientUnits="userSpaceOnUse">
<stop offset="0.25" stop-color="#53AEA8"/>
<stop offset="0.75" stop-color="#F49C43"/>
</linearGradient>
<linearGradient id="paint9_linear_1459_40851" x1="259.87" y1="46.5654" x2="245.054" y2="183.367" gradientUnits="userSpaceOnUse">
<stop offset="0.25" stop-color="#53AEA8"/>
<stop offset="0.75" stop-color="#F49C43"/>
</linearGradient>
<linearGradient id="paint10_linear_1459_40851" x1="259.87" y1="46.5654" x2="245.054" y2="183.367" gradientUnits="userSpaceOnUse">
<stop offset="0.25" stop-color="#53AEA8"/>
<stop offset="0.75" stop-color="#F49C43"/>
</linearGradient>
<clipPath id="clip0_1459_40851">
<rect width="311" height="27.99" fill="white" transform="translate(308 1)"/>
</clipPath>
</defs>
</svg>
