<?xml version="1.0" encoding="UTF-8"?>
<svg id="Layer_1" data-name="Layer 1" xmlns="http://www.w3.org/2000/svg" xmlns:xlink="http://www.w3.org/1999/xlink" viewBox="0 0 600 600">
  <defs>
    <style>
      .cls-1 {
        fill: url(#linear-gradient);
      }

      .cls-1, .cls-2 {
        stroke-width: 0px;
      }

      .cls-2 {
        fill: #fff;
      }
    </style>
    <linearGradient id="linear-gradient" x1="171.39" y1="353.11" x2="353.07" y2="109.66" gradientUnits="userSpaceOnUse">
      <stop offset=".16" stop-color="#ff902f"/>
      <stop offset=".38" stop-color="#d2b06f"/>
      <stop offset=".59" stop-color="#accca8"/>
      <stop offset=".75" stop-color="#94ddcb"/>
      <stop offset=".84" stop-color="#8be4d9"/>
    </linearGradient>
  </defs>
  <path class="cls-1" d="M223.89,175.98c10.66-3.44,19.03-8.23,24.87-14.24,5.17-5.32,8.76-11.75,11.29-20.24,2.66-8.93,3.96-19.63,3.96-32.72v-20.12h-27.94v26.33c0,6.64-.68,12.15-2.07,16.83-1.44,4.82-3.53,8.52-6.56,11.65-3.34,3.44-7.99,6.13-13.81,8.01-7.12,2.3-16.16,3.46-26.87,3.46h-69.97v27.9h53.13c21.73,0,39.89-2.3,53.98-6.85ZM211.4,144.57c4.68-1.51,8.33-3.59,10.84-6.17,2.19-2.25,3.72-5.01,4.81-8.67,1.19-4,1.77-8.82,1.77-14.75v-26.33h-28.38v25.45c0,1.11-.13,2.07-.38,2.93-.32,1.07-.83,1.96-1.55,2.7-.76.79-1.76,1.38-2.96,1.77-1.17.38-2.59.57-4.21.57h-74.56v25.6h69.97c9.96,0,18.25-1.05,24.65-3.11ZM191.34,323.88h-74.56v25.79h46.64v37.49h29.77v-62.54c0-.24-.01-.42-.03-.56-.3-.08-.87-.18-1.83-.18ZM380.04,138.4c2.51,2.58,6.16,4.66,10.84,6.17,6.39,2.06,14.69,3.11,24.65,3.11h53.11c-4.17-7.86-9.22-14.89-15.3-21.15-1.49-1.53-3.04-3.01-4.65-4.45h-37.74c-1.62,0-3.03-.19-4.2-.57-1.21-.39-2.2-.99-2.97-1.78-.73-.75-1.23-1.63-1.55-2.71-.25-.86-.38-1.82-.38-2.93v-16.58c-8.68-2.51-18.15-4.49-28.38-5.93v23.4c0,5.93.58,10.76,1.77,14.75,1.09,3.66,2.62,6.41,4.82,8.67ZM222.24,300.31c-2.51-2.58-6.16-4.66-10.84-6.17-6.39-2.06-14.69-3.11-24.65-3.11h-69.97v25.6h74.56c1.62,0,3.04.19,4.21.57,1.19.38,2.19.98,2.96,1.77.73.75,1.24,1.64,1.56,2.72.25.85.38,1.81.38,2.92v62.54h28.38v-63.43c0-5.93-.58-10.76-1.77-14.75-1.09-3.66-2.62-6.41-4.81-8.67ZM193.17,114.65c.02-.14.03-.32.03-.56v-25.45h-76.41v26.18h74.56c.95,0,1.52-.1,1.83-.18ZM410.94,114.83h28.51c-8.75-6.08-18.9-11.1-30.36-15.03v14.3c0,.24.01.42.03.56.3.08.88.18,1.83.18ZM351.82,161.74c5.84,6.01,14.21,10.8,24.87,14.24,14.09,4.54,32.24,6.85,53.98,6.85h49.65c-.95-5.29-2.12-10.35-3.56-15.15-1.34-4.48-2.89-8.71-4.63-12.75h-56.6c-10.72,0-19.76-1.16-26.87-3.46-5.82-1.88-10.47-4.58-13.81-8.01-3.04-3.12-5.12-6.83-6.56-11.65-1.4-4.68-2.07-10.18-2.07-16.83v-24.33c-9.31-1.06-19.21-1.69-29.64-1.91v20.03c0,13.09,1.29,23.8,3.96,32.73,2.53,8.49,6.12,14.92,11.29,20.24ZM116.79,387.16h39.39v-30.24h-39.39v30.24ZM390.94,294.14c-4.68,1.51-8.33,3.59-10.84,6.17-2.19,2.26-3.72,5.01-4.82,8.67-1.19,3.99-1.77,8.82-1.77,14.75v22.89c10.22-1.45,19.7-3.43,28.38-5.94v-16.06c0-1.11.13-2.07.38-2.93.32-1.08.83-1.96,1.56-2.71.77-.79,1.76-1.38,2.96-1.77,1.16-.38,2.58-.57,4.2-.57h37.09c1.82-1.6,3.57-3.24,5.23-4.95,5.96-6.13,10.92-12.99,15.04-20.65h-52.77c-9.96,0-18.25,1.05-24.65,3.11ZM409.17,324.06c-.02.13-.03.31-.03.55v13.77c11.12-3.81,21.01-8.66,29.58-14.51h-27.73c-.95,0-1.52.1-1.83.18ZM376.75,262.73c-10.66,3.44-19.03,8.24-24.87,14.24-5.17,5.32-8.76,11.75-11.29,20.24-2.66,8.93-3.96,19.64-3.96,32.73v19.53c10.43-.22,20.33-.85,29.64-1.91v-23.82c0-6.64.68-12.15,2.07-16.82,1.44-4.82,3.53-8.52,6.56-11.65,3.34-3.44,7.99-6.13,13.81-8.01,7.12-2.3,16.16-3.46,26.87-3.46h56.3c1.83-4.19,3.47-8.58,4.86-13.25,1.39-4.65,2.52-9.54,3.46-14.65h-49.49c-21.73,0-39.89,2.3-53.98,6.85ZM366.67,231.2c-15.78,5.09-28.64,12.68-38.24,22.55-8.85,9.11-15.12,20.11-19.16,33.65-3.58,11.98-5.32,25.72-5.32,42v20.18h24.35c.34,0,.67,0,1.02,0v-20.16c0-13.79,1.4-25.16,4.26-34.75,2.88-9.65,7.02-17.03,13.04-23.22,6.67-6.87,16.04-12.28,27.84-16.09,14.8-4.78,33.71-7.2,56.2-7.2h50.79c1.06-7.86,1.63-16.29,1.76-25.37h-52.55c-25.14,0-46.67,2.84-64,8.43ZM328.43,184.47c9.59,9.87,22.46,17.45,38.24,22.55,17.32,5.59,38.86,8.43,64,8.43h0s52.55,0,52.55,0c-.12-9.08-.7-17.51-1.76-25.37h-50.79c-22.49,0-41.4-2.42-56.2-7.2-11.8-3.81-21.17-9.23-27.84-16.09-6.02-6.19-10.16-13.56-13.04-23.22-2.87-9.61-4.26-21-4.26-34.8v-20.12c-.34,0-.67,0-1.02,0h-24.35v20.12h0c0,16.3,1.74,30.06,5.32,42.06,4.04,13.53,10.31,24.54,19.16,33.65ZM272.15,253.74c-9.59-9.87-22.46-17.45-38.24-22.55-17.32-5.59-38.85-8.43-64-8.43h-53.13v25.37h53.13c21.45,0,39.63,2.21,54.1,6.56,1.29.37,2.56.74,3.8,1.14,11.8,3.81,21.17,9.23,27.84,16.09,6.02,6.19,10.16,13.56,13.04,23.22,2.87,9.61,4.26,21,4.26,34.8v57.22h23.67v-57.71c0-16.3-1.74-30.06-5.32-42.06-4.04-13.53-10.31-24.54-19.16-33.65ZM248.76,276.48c-5.84-6.01-14.21-10.8-24.87-14.24-.65-.21-1.33-.41-2-.62-13.52-3.81-30.4-5.74-50.28-5.74h-54.83v27.9h69.97c10.72,0,19.76,1.16,26.87,3.46,5.82,1.88,10.47,4.58,13.81,8.01,3.04,3.12,5.12,6.83,6.56,11.65,1.4,4.68,2.07,10.18,2.07,16.83v63.43h27.94v-57.71c0-13.09-1.29-23.8-3.96-32.73-2.53-8.49-6.12-14.92-11.29-20.24ZM296.63,88.65h-23.67v20.12c0,13.8-1.39,25.19-4.26,34.8-2.88,9.65-7.03,17.03-13.04,23.22-6.67,6.86-16.04,12.28-27.84,16.09-14.81,4.78-33.72,7.2-56.2,7.2h-54.83v25.37h53.13c25.14,0,46.67-2.84,64-8.43,15.78-5.09,28.65-12.68,38.24-22.55,8.85-9.11,15.12-20.11,19.16-33.65,3.58-12,5.32-25.76,5.32-42.06h0v-20.12Z"/>
  <g>
<!--    TBD until we confirm our logo is copyrighted -->
<!--    <g>-->
<!--      <g>-->
<!--        <path class="cls-2" d="M465.73,446.46v-7.08h4.51c1.44,0,2.39.58,2.39,1.88,0,.98-.67,1.42-1.19,1.55v.15c.62.19.74.42.87,1.14l.43,2.36h-1.75l-.31-1.96c-.11-.71-.35-.93-1.2-.93h-2.01v2.89h-1.73ZM467.46,442.11h2.62c.53,0,.78-.15.78-.62s-.25-.62-.78-.62h-2.62v1.25Z"/>-->
<!--        <path class="cls-2" d="M472.82,446.54h-1.91l-.32-2.03c-.1-.64-.28-.87-1.13-.87h-1.93v2.89h-1.88v-7.23h4.59c1.59,0,2.46.69,2.46,1.96,0,1.14-.85,1.51-1.19,1.61v.03c.6.2.74.45.86,1.18l.45,2.44ZM471.04,446.38h1.6l-.42-2.27c-.12-.7-.23-.9-.81-1.08l-.05-.02v-.26h.06c.27-.08,1.14-.4,1.14-1.49,0-.82-.4-1.8-2.31-1.8h-4.43v6.92h1.58v-2.89h2.08c.87,0,1.17.23,1.28.99l.3,1.9ZM470.08,442.18h-2.7v-1.4h2.7c.42,0,.86.08.86.7s-.43.7-.86.7ZM467.54,442.03h2.54c.52,0,.71-.14.71-.55s-.19-.55-.71-.55h-2.54v1.09Z"/>-->
<!--      </g>-->
<!--      <path class="cls-2" d="M469.16,449.71c-3.74,0-6.79-3.04-6.79-6.79s3.04-6.79,6.79-6.79,6.79,3.04,6.79,6.79-3.04,6.79-6.79,6.79ZM469.16,437.81c-2.82,0-5.11,2.29-5.11,5.11s2.29,5.11,5.11,5.11,5.11-2.29,5.11-5.11-2.29-5.11-5.11-5.11Z"/>-->
<!--    </g>-->
    <g>
      <path class="cls-2" d="M117.31,511.35v-75.21h43.78c17.29,0,26.49,7.75,26.49,22.9s-9.21,22.9-26.49,22.9h-25.37v29.41h-18.41ZM135.72,466.22h25.48c5.39,0,7.75-2.25,7.75-7.18s-2.36-7.18-7.75-7.18h-25.48v14.37Z"/>
      <path class="cls-2" d="M198.59,511.35v-75.21h47.93c15.27,0,25.37,6.17,25.37,19.98,0,10.44-7.07,15.04-12.68,16.5v1.57c6.62,2.02,7.86,4.49,9.2,12.12l4.6,25.03h-18.63l-3.25-20.88c-1.12-7.52-3.7-9.88-12.8-9.88h-21.33v30.76h-18.41ZM217,465.1h27.84c5.61,0,8.31-1.57,8.31-6.62s-2.69-6.62-8.31-6.62h-27.84v13.25Z"/>
      <path class="cls-2" d="M278.18,511.35l32.33-75.21h25.37l32.33,75.21h-20.09l-8.08-20.21h-33.67l-8.08,20.21h-20.09ZM312.42,475.88h21.55l-9.99-24.92h-1.57l-9.99,24.92Z"/>
      <path class="cls-2" d="M372.93,511.35l31.66-39.06-29.3-36.15h22.56l17.4,23.24,17.4-23.24h22.56l-29.3,36.15,31.65,39.06h-22.67l-19.64-26.16-19.64,26.16h-22.68Z"/>
    </g>
  </g>
</svg>