<svg xmlns="http://www.w3.org/2000/svg" width="145" height="36" viewBox="0 0 145 36" fill="none">
  <path d="M32.405 20.6869C31.5137 19.69 30.5918 18.6593 30.2075 17.4994C29.3674 14.9619 29.574 13.487 29.8847 11.2554C30.0633 9.9762 30.2857 8.38471 30.3406 6.20869C30.4048 3.67577 29.8494 1.97593 28.692 1.1565C27.7003 0.454534 26.2862 0.416294 24.4916 1.04452C23.1789 1.50339 21.8922 2.08518 20.6484 2.64694C18.343 3.68851 16.166 4.67182 14.4123 4.56894C13.8085 4.53343 13.0708 4.44329 12.2167 4.33859C9.04801 3.95073 4.70893 3.41811 2.48822 5.19352C1.8035 5.74071 1.45369 6.69215 1.4202 8.10246C1.3895 9.35618 1.60627 10.8493 1.81466 12.2933C2.14958 14.6059 2.49567 16.9977 1.8342 18.4554C0.366131 21.6939 -0.211607 24.2605 0.068424 26.3027C0.356828 28.4095 1.55603 29.9701 3.73394 31.0736C5.0606 31.7455 6.33795 31.9248 7.69158 32.1142C9.53365 32.3719 11.6213 32.6641 14.3602 34.2593C15.6841 35.0305 16.8517 35.4001 18.0155 35.4001C18.4072 35.4001 18.7988 35.3582 19.1961 35.2754C20.9963 34.9003 22.9146 33.6793 25.2349 31.4341C26.4285 30.2787 27.864 29.6068 29.253 28.9567C30.8569 28.2065 32.5148 27.4308 33.7707 25.9076C35.356 23.9856 33.9233 22.3841 32.4059 20.6888L32.405 20.6869ZM2.65941 15.5046C2.61382 14.4685 2.59986 13.4369 2.69197 12.4763C2.84082 10.9122 3.25668 9.77044 3.96187 8.98653C4.90337 7.9404 6.3119 7.17287 8.26746 6.64116C9.95509 6.18229 11.733 5.97925 13.3015 5.8008L13.548 5.77257C14.7342 5.63692 16.006 5.33555 17.3512 5.01689C18.8314 4.66636 20.3627 4.30308 21.8922 4.13738C22.1648 4.10824 22.4337 4.09276 22.6914 4.09276C23.9064 4.09276 24.9307 4.42235 25.7354 5.07243C26.5644 5.74162 27.157 6.7486 27.4965 8.06513C27.8947 9.60929 28.1357 10.8029 28.3692 11.9574C28.5199 12.7021 28.666 13.426 28.8465 14.1971C28.7311 13.7647 28.6223 13.3486 28.5153 12.938C28.1403 11.4976 27.7859 10.1383 27.1812 8.30823C26.7365 6.96256 26.0127 5.95285 25.0312 5.30733C24.0766 4.68001 22.8923 4.40414 21.5098 4.48882C19.8073 4.59261 18.0992 4.94678 16.447 5.29003C15.3817 5.51127 14.3751 5.71977 13.4131 5.85361C11.7609 6.08395 10.0063 6.36893 8.37631 6.89609C6.44959 7.51794 5.0513 8.36012 4.10142 9.46907C3.35157 10.344 2.90594 11.5868 2.73848 13.2666C2.66592 13.9905 2.64917 14.7443 2.65941 15.5073V15.5046ZM2.56916 15.3061C2.49195 14.0942 2.43892 12.8742 2.53567 11.7644C2.66685 10.2594 3.06503 9.17408 3.75162 8.44662C4.668 7.47606 6.03373 6.78502 7.92696 6.33433C9.56249 5.94465 11.2957 5.8008 12.8252 5.67333C13.1201 5.64875 13.3992 5.62599 13.6699 5.60141C15.0096 5.48123 16.4814 5.08517 18.0388 4.66545C19.4157 4.29489 20.84 3.91158 22.2671 3.6958C22.6402 3.63935 23.004 3.61021 23.3463 3.61021C24.5446 3.61021 25.5391 3.9571 26.302 4.64086C27.0881 5.34557 27.6249 6.40626 27.8994 7.79381C28.1934 9.2797 28.3618 10.4679 28.5097 11.5167C28.6604 12.5829 28.799 13.5571 29.0381 14.6414C28.8027 13.6936 28.6288 12.8314 28.4492 11.9392C28.2157 10.7838 27.9747 9.58926 27.5756 8.04328C27.1951 6.56832 26.5011 5.47849 25.514 4.80566C24.5539 4.15103 23.3324 3.89883 21.8829 4.05543C20.3488 4.22114 18.8147 4.58533 17.3317 4.93586C15.9883 5.25452 14.7193 5.55497 13.5378 5.68972L13.2913 5.71795C10.2342 6.06666 6.04675 6.54374 3.89954 8.93099C3.18225 9.72765 2.76081 10.8849 2.6101 12.4663C2.52358 13.3695 2.53102 14.3337 2.56916 15.3043V15.3061ZM30.135 22.8684C29.2977 24.9179 27.878 26.4183 26.3755 28.0062C26.2294 28.1601 26.0824 28.3158 25.9345 28.4733C23.6003 30.9561 21.2252 32.1352 18.4621 32.1825C18.1058 32.1889 17.7978 32.1925 17.5159 32.1953C17.9522 32.1716 18.4044 32.1379 18.8733 32.0933C19.5533 32.0286 20.2195 31.9003 20.853 31.71C21.4866 31.5206 22.1099 31.2629 22.7053 30.9461C23.2989 30.6302 23.885 30.2432 24.4469 29.7971C25.0051 29.3537 25.5596 28.8356 26.0936 28.2575C26.7979 27.4954 27.6119 26.584 28.3031 25.6062C29.0074 24.6092 29.5247 23.6287 29.8847 22.6089C30.4383 21.0402 30.1778 19.4869 29.7424 17.8782C30.3201 19.5835 30.816 21.205 30.1359 22.8684H30.135ZM29.935 18.1067C29.9452 18.1331 29.9563 18.1604 29.9666 18.1868C30.6392 19.883 31.2746 21.4854 30.4987 23.168C29.6698 24.9643 28.3897 26.2372 27.0332 27.5846C26.6509 27.9643 26.2564 28.3567 25.8629 28.7683C24.6488 30.0411 23.4719 30.9488 22.2681 31.5434C21.0931 32.1224 19.8883 32.4047 18.5849 32.4047C18.4128 32.4047 18.236 32.3992 18.0592 32.3901C17.5438 32.361 17.0387 32.3373 16.5502 32.3145C16.4898 32.3118 16.4293 32.3091 16.3679 32.3063C16.5409 32.3082 16.714 32.3091 16.8861 32.3091C17.4173 32.3091 17.9457 32.3018 18.463 32.2927C21.2587 32.2444 23.6589 31.0553 26.0155 28.5488C26.1634 28.3913 26.3122 28.2338 26.4564 28.0818C27.2286 27.2651 27.9589 26.4939 28.6064 25.6626C29.334 24.7294 29.8522 23.8545 30.2382 22.9103C30.8978 21.297 30.4792 19.7373 29.935 18.1076V18.1067ZM29.7712 22.5707C28.9637 24.8605 27.4677 26.5968 26.0052 28.1792C24.9316 29.3409 23.8338 30.2123 22.6486 30.8432C21.4587 31.4769 20.2204 31.8475 18.8612 31.9767C18.8007 31.9822 18.7412 31.9877 18.6816 31.9931C18.8816 31.964 19.0817 31.9321 19.2826 31.8966C19.9487 31.7792 20.6028 31.6044 21.227 31.3777C21.8438 31.1537 22.4486 30.8723 23.0226 30.5428C23.591 30.2159 24.1455 29.8326 24.6702 29.4028C25.1902 28.9777 25.6954 28.4951 26.1708 27.9698C26.9877 27.0684 27.6463 26.2007 28.1859 25.3167C28.4762 24.8405 28.7348 24.3525 28.9534 23.8663C29.1823 23.3583 29.3768 22.8347 29.5303 22.3094C29.8112 21.3498 29.8959 20.3209 29.787 19.1628C29.7424 18.6885 29.667 18.195 29.5544 17.6487C30.0261 19.3322 30.3424 20.9492 29.7712 22.5698V22.5707ZM29.4065 22.2757C29.1051 23.3045 28.6697 24.2787 28.0752 25.2529C27.5403 26.1297 26.8862 26.9919 26.075 27.8869C24.3269 29.8153 22.2709 31.0708 19.9553 31.628C26.3169 29.8135 30.2615 23.7088 29.374 17.4193C29.7275 19.0181 29.8782 20.6678 29.4065 22.2757ZM28.7823 11.3128C28.692 10.2521 28.5897 9.05026 28.3655 7.51976C28.1059 5.74617 27.4482 4.48062 26.4108 3.75953C25.4479 3.08943 24.1753 2.90005 22.6281 3.19595C21.2596 3.45726 19.9013 3.86788 18.5877 4.26393C16.8628 4.78472 15.2338 5.27637 13.7871 5.37106C13.3945 5.39655 12.9731 5.41749 12.5265 5.43843C11.0082 5.51218 9.28804 5.59594 7.66461 5.9228C5.77789 6.30247 4.41402 6.93797 3.49671 7.86392C1.96538 9.40898 2.20168 12.4062 2.43426 15.3088C2.41473 15.0949 2.39519 14.8791 2.37472 14.6615C2.10679 11.7871 1.82955 8.81536 3.33297 7.36771C4.2447 6.49002 5.60205 5.9137 7.48319 5.60505C9.10755 5.33828 10.8287 5.31643 12.347 5.2964C12.908 5.28912 13.4383 5.28183 13.9146 5.26271C15.4562 5.19989 17.2247 4.609 19.0975 3.98351C20.3702 3.55832 21.6857 3.11856 23.0133 2.81629C23.5612 2.69155 24.0813 2.62782 24.5585 2.62782C25.741 2.62782 26.6927 3.01204 27.3886 3.76864C28.1059 4.54891 28.5488 5.72432 28.706 7.26119C28.8716 8.88182 28.9125 10.1292 28.9488 11.229C29.0037 12.8988 29.0465 14.1844 29.4763 15.8824C29.0269 14.1935 28.9162 12.8933 28.7813 11.3119L28.7823 11.3128ZM3.54229 7.90762C4.45123 6.99078 5.80394 6.36165 7.67763 5.9838C9.29641 5.65786 11.0147 5.57409 12.5303 5.50035C12.9768 5.47849 13.3992 5.45846 13.7927 5.43206C15.2459 5.33737 16.8786 4.84481 18.6072 4.32311C19.919 3.92706 21.2763 3.51735 22.6411 3.25604C23.1054 3.16682 23.551 3.1222 23.9659 3.1222C25.154 3.1222 26.1252 3.4873 26.8518 4.20657C27.6007 4.9486 28.0892 6.06575 28.3031 7.52705C28.5264 9.05572 28.6288 10.2566 28.719 11.3164C28.8334 12.6648 28.9311 13.8093 29.2353 15.1631C28.9153 13.8575 28.7572 12.7431 28.5822 11.5058C28.4334 10.4569 28.265 9.26695 27.971 7.77925C27.6538 6.175 26.9895 5.00596 25.9968 4.30399C25.0312 3.62205 23.7733 3.39352 22.256 3.62296C20.8242 3.83965 19.398 4.22387 18.0192 4.59443C16.4646 5.01233 14.9966 5.40748 13.6634 5.52766C13.3927 5.55224 13.1145 5.575 12.8196 5.59959C11.2873 5.72705 9.55132 5.87091 7.91021 6.26241C6.00303 6.71673 4.6252 7.41415 3.69859 8.39563C2.99991 9.13493 2.59614 10.2339 2.4631 11.7562C2.36914 12.8369 2.41659 14.0205 2.49009 15.1986C2.26122 12.3425 2.05004 9.41262 3.54322 7.9058L3.54229 7.90762ZM25.6005 9.358C24.8879 8.52583 24.045 7.83387 23.0951 7.30034C22.1583 6.775 21.1228 6.40717 20.0176 6.20869C19.1338 6.04663 18.2072 5.96468 17.2545 5.96468C17.0014 5.96468 16.7456 5.97015 16.4888 5.98198C15.3194 6.03479 14.1183 6.20687 12.9173 6.49367C12.0995 6.68942 11.3004 6.94617 10.5412 7.25937C9.77274 7.57621 9.04057 7.95132 8.36422 8.3756C7.67298 8.80898 7.03291 9.29791 6.46168 9.82871C5.87371 10.375 5.35179 10.9713 4.90988 11.6032C4.41867 12.3116 4.01211 13.1109 3.70045 13.9786C3.40553 14.8035 3.19342 15.6976 3.07154 16.6372C3.06131 16.7164 3.05201 16.7965 3.04363 16.8757C3.05573 16.649 3.07247 16.426 3.09294 16.2084C3.2911 14.1197 3.86698 12.4135 4.80476 11.137C5.67834 9.94798 6.89522 8.92826 8.4219 8.10519C9.77926 7.37318 11.3422 6.81597 13.0661 6.44723C15.1157 6.0093 16.9075 5.79625 18.5439 5.79625C19.1766 5.79625 19.7934 5.82902 20.3767 5.89367C22.7332 6.15588 24.6413 7.28486 25.8954 9.1586C26.7448 10.4278 27.41 11.6187 27.9673 12.8952C27.8836 12.7267 27.798 12.5601 27.7087 12.3962C27.1374 11.3419 26.4481 10.3477 25.6005 9.35709V9.358ZM27.6854 12.6302C25.3196 8.66331 20.9442 6.20323 16.2497 6.20323C15.5417 6.20323 14.8263 6.25968 14.109 6.37439C15.1743 6.18593 16.2283 6.09033 17.2554 6.09033C18.1979 6.09033 19.1189 6.17136 19.9925 6.3316C22.1964 6.72857 24.1008 7.80292 25.501 9.43812C26.3764 10.4615 27.0965 11.5103 27.6854 12.6293V12.6302ZM12.7554 6.66392C7.54366 8.05421 3.90698 12.3052 3.1376 17.219C3.15434 17.0287 3.17481 16.8393 3.199 16.6527C3.45019 14.7234 4.06142 13.0481 5.01594 11.6733C5.88394 10.4323 7.03384 9.35891 8.43306 8.48122C9.72716 7.66999 11.1803 7.05907 12.7554 6.66301V6.66392ZM3.03526 24.3525C3.22319 25.3877 3.53578 26.3337 3.96373 27.1658C4.3982 28.0098 4.96477 28.7628 5.64764 29.4028C6.33981 30.0511 7.17339 30.6056 8.12605 31.049C9.28432 31.5871 10.4547 31.8802 11.6883 32.0705C10.2584 31.8784 8.93544 31.6016 7.61251 30.9789C6.6524 30.5264 5.82533 29.9628 5.15456 29.3045C4.4931 28.6554 3.95908 27.8906 3.56834 27.0311C3.18318 26.1853 2.92362 25.2174 2.7943 24.154C2.66871 23.1115 2.66406 21.9397 2.78221 20.6706C2.80826 20.3929 2.82221 20.1033 2.82873 19.8029C2.83803 20.2108 2.83803 20.6041 2.82407 20.9783C2.77849 22.1992 2.84919 23.3346 3.03433 24.3516L3.03526 24.3525ZM8.16606 30.9679C7.2227 30.5282 6.39656 29.9801 5.71183 29.3382C5.03548 28.7045 4.47542 27.9607 4.0456 27.1258C3.6223 26.3018 3.3125 25.364 3.1255 24.337C2.9413 23.3255 2.87152 22.1974 2.91711 20.9819C2.92176 20.8472 2.92548 20.7106 2.92641 20.5713C2.93664 20.8171 2.94409 21.0584 2.94874 21.2942C2.972 22.4614 3.10783 23.554 3.35064 24.5419C3.59625 25.5397 3.95815 26.4566 4.42704 27.2669C4.90058 28.0863 5.496 28.8183 6.19561 29.4438C6.90359 30.0757 7.73717 30.6156 8.67402 31.0462C9.71878 31.5261 10.7859 31.8201 11.8976 32.0104C10.5989 31.8229 9.37363 31.5297 8.1642 30.9679H8.16606ZM25.995 9.09487C24.7214 7.19108 22.7825 6.04481 20.3897 5.77804C18.2862 5.54405 15.8823 5.72523 13.0391 6.33342C12.2065 6.51096 11.398 6.73767 10.6361 7.00626C9.82577 7.29123 9.06104 7.6272 8.36329 8.00322C6.82079 8.83448 5.59089 9.86604 4.70614 11.0688C4.20748 11.7471 3.80651 12.5501 3.51438 13.4542C3.24924 14.2727 3.06689 15.1959 2.972 16.1974C2.96456 16.2757 2.95804 16.354 2.95153 16.4342C2.9599 16.1628 2.972 15.8933 2.99154 15.6257C3.1469 13.4342 3.67068 11.7899 4.59264 10.5999C5.48018 9.4536 6.7659 8.4885 8.41352 7.73008C9.76158 7.11005 11.3664 6.62204 13.1852 6.27879C15.2757 5.88365 17.6443 5.43661 19.9562 5.43661C20.2278 5.43661 20.4976 5.44299 20.7572 5.45573C23.2561 5.57591 25.1698 6.76043 26.2908 8.88182C27.1365 10.4824 27.7263 11.8245 28.2306 13.2129C27.6398 11.7917 26.9272 10.4897 25.9941 9.09487H25.995ZM28.0482 12.4163C27.5877 11.239 27.0611 10.1 26.3904 8.83175C25.2498 6.67394 23.3045 5.46939 20.7637 5.34739C18.1885 5.22356 15.5194 5.72796 13.1647 6.17227C11.3376 6.51734 9.72344 7.00808 8.36701 7.63175C6.70264 8.39745 5.40296 9.37347 4.50519 10.5343C3.5702 11.7425 3.03898 13.405 2.88176 15.6184C2.87059 15.7823 2.86129 15.9461 2.85384 16.1109C2.85571 15.4782 2.87896 14.8518 2.93758 14.239C3.11341 12.4062 3.58602 11.0405 4.38239 10.0627C4.85965 9.47636 5.46343 8.94373 6.17793 8.47666C6.81986 8.05785 7.57064 7.68 8.40887 7.35497C9.75321 6.83327 11.3097 6.43722 13.3062 6.11036C13.9239 6.0093 14.5482 5.89276 15.2105 5.76893C17.1484 5.40748 19.1533 5.03419 21.1386 5.01598C21.1638 5.01598 21.1889 5.01598 21.214 5.01598C23.8152 5.01598 25.7094 6.25785 26.6927 8.60686C27.4696 10.4615 27.9561 11.8936 28.4399 13.4697C28.3106 13.1037 28.1813 12.7559 28.0492 12.4172L28.0482 12.4163ZM26.7858 8.56862C26.2759 7.35133 25.5233 6.42174 24.5474 5.80353C23.6171 5.21446 22.496 4.91582 21.2131 4.91582C21.1879 4.91582 21.1619 4.91582 21.1368 4.91582C19.1421 4.93403 17.1336 5.30824 15.191 5.6706C14.5295 5.79352 13.9053 5.91006 13.2894 6.01112C11.2855 6.3398 9.72344 6.73676 8.37166 7.2621C7.52692 7.58987 6.76962 7.97135 6.12211 8.39381C5.39924 8.86543 4.78708 9.40625 4.30424 9.99988C3.49485 10.9932 3.01572 12.3762 2.83803 14.229C2.78965 14.7307 2.76546 15.2423 2.75709 15.7577C2.73941 14.9109 2.75151 14.0724 2.83152 13.2721C2.99712 11.6105 3.43623 10.385 4.17306 9.5237C5.11177 8.4275 6.49611 7.59533 8.40608 6.97894C10.0295 6.45451 11.7795 6.16954 13.4271 5.9401C14.3928 5.80535 15.4003 5.59685 16.4674 5.3747C18.116 5.03236 19.8213 4.6791 21.5164 4.57531C21.6754 4.56529 21.8336 4.56074 21.988 4.56074C23.2272 4.56074 24.2897 4.87394 25.1456 5.49215C26.0257 6.12857 26.6816 7.08456 27.0937 8.33281C27.6975 10.1592 28.051 11.5185 28.4259 12.9571C28.4985 13.2348 28.5711 13.5152 28.6464 13.8011C28.1236 12.0757 27.6231 10.568 26.7858 8.56862ZM2.74593 18.9816C2.75802 19.578 2.74965 20.1434 2.70127 20.6633C2.58219 21.9379 2.58684 23.1152 2.71336 24.1631C2.84268 25.2347 3.10504 26.2108 3.49392 27.0639C3.88931 27.9324 4.42797 28.7054 5.09688 29.361C5.77417 30.0256 6.60868 30.5947 7.57715 31.0508C9.0108 31.7255 10.4398 31.9968 12.0037 32.1916C10.2193 31.9713 8.65448 31.7482 7.05989 30.9898C3.24924 29.1716 1.84815 25.7928 2.64917 20.3574C2.71243 19.9313 2.73941 19.4687 2.745 18.9807L2.74593 18.9816ZM8.71867 30.957C7.79113 30.53 6.96592 29.9965 6.26538 29.371C5.57321 28.7528 4.98524 28.029 4.51635 27.2186C3.59718 25.629 3.10504 23.6505 3.05201 21.3379C3.05201 21.3398 3.05201 21.3407 3.05201 21.3425C3.05945 21.4317 3.06596 21.5209 3.0734 21.6092C3.25296 23.8481 3.86326 25.7865 4.88756 27.3698C5.92395 28.9713 7.38271 30.2077 9.22385 31.0435C9.89834 31.3494 10.5961 31.5898 11.3571 31.7783C11.6148 31.842 11.879 31.9003 12.1497 31.9512C10.9608 31.7637 9.82577 31.4651 8.71867 30.9561V30.957ZM9.27036 30.9452C7.44877 30.1185 6.00582 28.8957 4.98059 27.3115C4.07072 25.9048 3.49019 24.2141 3.25203 22.2784C3.5823 24.2614 4.2847 26.0077 5.34249 27.4736C5.89697 28.242 6.55193 28.933 7.28875 29.5267C8.03023 30.1249 8.86567 30.6338 9.77274 31.0399C10.6147 31.4159 11.5022 31.699 12.4568 31.8957C11.2836 31.6945 10.237 31.3822 9.27036 30.9443V30.9452ZM9.82298 30.9343C8.02185 30.1276 6.54727 28.9412 5.44018 27.4071C4.57031 26.2016 3.94327 24.8041 3.56834 23.2399C3.75534 23.8927 3.98978 24.5227 4.26888 25.1218C4.68102 26.0068 5.19364 26.8353 5.7937 27.5828C6.38912 28.3239 7.07477 28.9931 7.833 29.5722C8.59122 30.1513 9.42945 30.6447 10.3226 31.039C10.9915 31.334 11.6967 31.5752 12.4205 31.7573C12.5275 31.7837 12.6354 31.8092 12.7433 31.8338C11.693 31.6371 10.7245 31.3385 9.82298 30.9361V30.9343ZM10.3756 30.9224C8.59215 30.1358 7.08408 28.9849 5.89511 27.5036C5.09781 26.5094 4.46798 25.3959 4.01211 24.1777C5.6616 28.0544 9.09267 30.815 13.0894 31.7764C12.1404 31.5862 11.2334 31.3003 10.3756 30.9224ZM12.039 31.3367C10.704 30.8933 9.4555 30.2469 8.32979 29.4138C7.192 28.5725 6.20956 27.5646 5.40947 26.4174C4.58148 25.2311 3.9656 23.9191 3.57951 22.5179C3.11899 20.8445 3.00642 19.1337 3.24552 17.432C3.47717 15.7877 4.02421 14.2217 4.8736 12.7768C5.723 11.3319 6.83103 10.0809 8.16699 9.05845C9.55039 8.00049 11.118 7.23479 12.828 6.7841C13.949 6.4882 15.0998 6.33798 16.2507 6.33798C17.6778 6.33798 19.0891 6.5665 20.4455 7.01718C21.7806 7.46058 23.0291 8.10792 24.1548 8.94009C25.2926 9.78136 26.275 10.7893 27.0751 11.9364C27.9031 13.1228 28.519 14.4348 28.9041 15.836C29.3647 17.5094 29.4772 19.2202 29.2381 20.9218C29.0065 22.5662 28.4594 24.1322 27.61 25.5771C26.7607 27.022 25.6526 28.273 24.3167 29.2954C22.9333 30.3534 21.3656 31.1191 19.6557 31.5698C18.5346 31.8657 17.3829 32.0159 16.233 32.0159C14.8059 32.0159 13.3945 31.7874 12.0381 31.3376L12.039 31.3367ZM16.5446 32.4119C17.0331 32.4347 17.5382 32.4593 18.0536 32.4875C18.2323 32.4975 18.41 32.503 18.5849 32.503C19.8138 32.503 20.9582 32.2544 22.0671 31.7482C23.3677 31.1546 24.6339 30.2022 25.9373 28.8356C26.3299 28.4241 26.7244 28.0326 27.1058 27.6538C28.4687 26.3 29.7554 25.0217 30.5918 23.2089C31.3565 21.551 30.7862 19.9841 30.134 18.3352C30.1731 18.4217 30.2122 18.5073 30.2513 18.5929C31.0039 20.2426 31.7138 21.8014 30.8625 23.4684C30.0159 25.1264 28.7804 26.2581 27.4733 27.4563C26.9225 27.9616 26.3522 28.4842 25.7931 29.0623C24.5669 30.3315 23.4021 31.2338 22.2327 31.822C21.1033 32.3901 19.9618 32.666 18.744 32.666C18.3914 32.666 18.0257 32.6423 17.6555 32.5959C16.7828 32.4857 15.9595 32.411 15.1612 32.3427C15.6134 32.3682 16.0739 32.3901 16.5446 32.4119ZM30.028 17.2372C29.2353 14.8026 29.3265 13.2839 29.4512 11.1817C29.5237 9.97074 29.6047 8.59776 29.5507 6.73221C29.4791 4.50065 28.879 2.97289 27.7673 2.18988C26.7904 1.50248 25.4377 1.40597 23.7464 1.904C22.4383 2.28639 21.1507 2.79535 19.9059 3.28791C17.8248 4.11097 15.8571 4.88942 14.2086 4.88942C14.1928 4.88942 14.1769 4.88942 14.1621 4.88942C13.5955 4.88396 12.9154 4.84572 12.1953 4.80475C9.1671 4.63267 5.01873 4.39777 2.89199 6.2615C1.37554 7.59078 1.73093 10.5644 2.07423 13.4414C2.33472 15.6211 2.58033 17.6797 2.08167 19.0863C0.988525 22.1719 0.656395 24.6074 1.0676 26.534C1.49463 28.5361 2.72639 30.0192 4.83174 31.0663C6.22631 31.7601 7.59018 31.9531 9.03406 32.157C10.7645 32.4019 12.7256 32.6796 15.1808 33.8641C16.3121 34.4095 17.3522 34.6781 18.37 34.6781C18.8584 34.6781 19.3422 34.6162 19.8278 34.4933C21.4987 34.0699 23.3184 32.8799 25.3903 30.8541C26.4667 29.7962 27.7189 29.1097 28.9302 28.4469C30.4718 27.6029 31.9277 26.8053 33.0637 25.3057C34.4638 23.4575 33.2144 21.8842 31.8924 20.219C31.7807 20.0788 31.6691 19.9376 31.5575 19.7956C31.7435 20.025 31.9352 20.2508 32.125 20.4757C33.5372 22.1464 34.8704 23.7234 33.3911 25.5871C32.2012 27.093 30.6141 27.8951 29.0781 28.6708C27.7756 29.3291 26.4285 30.0101 25.2889 31.1209C23.083 33.266 21.2447 34.4523 19.5031 34.8529C17.9662 35.2071 16.5102 34.954 14.7845 34.0335C12.1767 32.6423 10.1449 32.3555 8.35212 32.1024C6.96127 31.9057 5.64857 31.7209 4.29586 31.0417C2.16447 29.971 0.955033 28.4578 0.599645 26.4138C0.255421 24.4372 0.709425 21.9407 1.98584 18.7813C2.56823 17.3401 2.26774 15.0603 1.97654 12.856C1.59696 9.98349 1.20529 7.01354 2.70871 5.75072C4.0149 4.66089 6.07466 4.36772 8.18094 4.36772C9.56249 4.36772 10.9654 4.49428 12.1879 4.60353C12.9619 4.67273 13.6932 4.73919 14.2839 4.75922C14.3379 4.76105 14.3919 4.76196 14.4458 4.76196C16.1306 4.76196 18.1569 3.90247 20.2985 2.99383C21.5387 2.46758 22.8216 1.92312 24.1269 1.50339C25.8592 0.943455 27.2323 1.00901 28.2083 1.69823C29.334 2.49307 29.907 4.09914 29.9117 6.46999C29.9117 8.48577 29.7666 9.93341 29.6372 11.2108C29.414 13.4223 29.266 14.8836 30.0847 17.3774C30.1275 17.5067 30.1759 17.6341 30.2299 17.7598C30.1517 17.5877 30.0819 17.4138 30.0252 17.2372H30.028ZM31.8635 20.2408C32.5334 21.0839 33.166 21.8806 33.4665 22.7064C33.6265 23.1479 33.6777 23.5576 33.6228 23.9619C33.5614 24.4126 33.3688 24.8451 33.0348 25.2857C31.9035 26.7789 30.4504 27.5746 28.9125 28.4177C27.6994 29.0824 26.4453 29.7689 25.3651 30.8305C23.9808 32.1834 22.7388 33.1449 21.5675 33.7676C20.4576 34.3585 19.4082 34.6453 18.3597 34.6453C17.3112 34.6453 16.3446 34.3877 15.1966 33.8332C12.7359 32.6459 10.7719 32.3682 9.03871 32.1224C7.59762 31.9185 6.23747 31.7264 4.84755 31.0353C2.75244 29.9928 1.52719 28.5179 1.10296 26.5267C0.693609 24.6065 1.02481 22.1765 2.11516 19.0973C2.61661 17.6833 2.37007 15.6202 2.10865 13.4369C1.76628 10.5689 1.41183 7.60444 2.91432 6.28699C3.58974 5.69519 4.49217 5.28365 5.67369 5.02872C6.6217 4.82387 7.74461 4.72463 9.10662 4.72463C10.1765 4.72463 11.2473 4.78563 12.1925 4.83935C12.9126 4.88032 13.5936 4.91856 14.1611 4.92402C14.1769 4.92402 14.1928 4.92402 14.2086 4.92402C15.8636 4.92402 17.8341 4.14466 19.919 3.31978C21.1628 2.82721 22.4495 2.31917 23.7566 1.93769C24.4581 1.73101 25.1084 1.62631 25.6917 1.62631C26.8704 1.62631 27.7943 2.05058 28.4371 2.88639C29.0977 3.74587 29.4605 5.04056 29.5154 6.73312C29.5693 8.59776 29.4875 9.96892 29.4158 11.1798C29.2902 13.2858 29.2 14.8071 29.9945 17.2481C30.0243 17.3401 30.0578 17.4311 30.0931 17.5212C30.0354 17.3847 29.9843 17.2472 29.9387 17.107C29.1767 14.7443 29.2 13.2584 29.2307 11.2008C29.2484 10.0454 29.2679 8.73706 29.1563 6.99442C29.0232 4.91674 28.4036 3.47547 27.3151 2.71158C26.3429 2.02873 25.0163 1.90127 23.3742 2.33465C22.056 2.67699 20.7553 3.15316 19.4975 3.61295C17.5113 4.33859 15.6357 5.02508 14.0374 5.04966C13.5071 5.05786 12.8931 5.0442 12.2437 5.02963C9.26571 4.96317 5.18712 4.87303 3.09387 6.79594C1.57743 8.18896 1.89374 11.1635 2.19982 14.0405C2.41845 16.0909 2.62405 18.0275 2.20633 19.4023C1.29461 22.4023 1.08435 24.7713 1.56347 26.646C2.06213 28.5989 3.31157 30.0438 5.38157 31.0645C6.82544 31.7746 8.24979 31.9749 9.75693 32.1861C11.4166 32.4192 13.2978 32.6833 15.592 33.6684C16.6247 34.1118 17.5801 34.3303 18.5123 34.3303C19.0612 34.3303 19.6017 34.2547 20.145 34.1036C21.7638 33.6547 23.5045 32.4975 25.4684 30.5664C26.4816 29.5622 27.638 28.8748 28.7562 28.2101C30.2345 27.3315 31.631 26.5012 32.7101 25.0062C34.0191 23.1926 32.8609 21.6311 31.6347 19.9777C31.51 19.8102 31.3853 19.6408 31.2616 19.4706C31.4579 19.731 31.6617 19.9868 31.8635 20.2408ZM31.5984 20.0032C32.2189 20.8399 32.805 21.6293 33.0813 22.4451C33.3911 23.3592 33.2618 24.1649 32.6739 24.9798C31.6003 26.4675 30.2075 27.2951 28.733 28.171C27.6119 28.8374 26.4536 29.5258 25.4368 30.5337C24.0831 31.8648 22.8625 32.8089 21.7052 33.4217C20.6065 34.0025 19.5599 34.2857 18.5067 34.2857C17.5913 34.2857 16.6442 34.0699 15.6106 33.6265C13.3108 32.6396 11.4259 32.3746 9.76344 32.1415C8.19397 31.9212 6.83847 31.7309 5.40203 31.0235C3.34413 30.0092 2.10214 28.5734 1.6072 26.6341C1.13087 24.7677 1.34112 22.4059 2.25006 19.4141C2.67057 18.0311 2.46404 16.0909 2.24541 14.036C1.94026 11.1698 1.62487 8.20534 3.1255 6.82781C3.8921 6.12402 4.96105 5.6442 6.39377 5.36013C7.8116 5.07971 9.36154 5.04693 10.4044 5.04693C11.0408 5.04693 11.6529 5.06059 12.2446 5.07334C12.761 5.08517 13.2485 5.09519 13.6913 5.09519C13.816 5.09519 13.9304 5.09519 14.0402 5.09246C15.6459 5.06696 17.5261 4.38047 19.5152 3.65301C20.7721 3.19322 22.0708 2.71887 23.3873 2.37653C24.0152 2.21083 24.6032 2.12706 25.1372 2.12706C26.316 2.12706 27.2519 2.53131 27.9198 3.32797C28.6074 4.1483 29.0083 5.38289 29.1116 6.99624C29.2232 8.73615 29.2037 10.0445 29.186 11.199C29.1553 13.2357 29.133 14.7143 29.8689 17.0341C29.8624 17.015 29.8549 16.995 29.8494 16.9759C29.12 14.6897 29.0716 13.2375 29.0055 11.2272C28.9693 10.1264 28.9283 8.87818 28.7618 7.25573C28.5646 5.33191 27.9264 3.97986 26.8648 3.23601C25.8982 2.55862 24.5986 2.4002 23.0021 2.76348C21.6717 3.06667 20.3544 3.50642 19.0807 3.93252C17.2117 4.5571 15.4469 5.14708 13.9127 5.209C13.4383 5.22812 12.908 5.2354 12.347 5.24268C10.8268 5.26271 9.1029 5.28547 7.47482 5.55224C5.58252 5.86271 4.21492 6.44359 3.29482 7.32947C1.7728 8.79442 2.05097 11.7798 2.31983 14.666C2.49846 16.5771 2.66685 18.3835 2.32914 19.7164C1.59417 22.6244 1.50393 24.9261 2.0519 26.7525C2.62405 28.6572 3.8921 30.0666 5.92953 31.0599C7.43574 31.7928 8.86846 31.9904 10.5282 32.218C12.1032 32.4347 13.8876 32.6796 16.0013 33.4699C16.9307 33.8177 17.7978 33.9907 18.6407 33.9907C19.2566 33.9907 19.8594 33.8987 20.466 33.7148C22.0355 33.2405 23.6971 32.116 25.5456 30.276C26.4899 29.3364 27.5431 28.6554 28.5608 27.9971C29.9852 27.0757 31.3295 26.2062 32.3566 24.7048C33.5744 22.9231 32.5073 21.3707 31.377 19.7264C31.2886 19.5971 31.1993 19.4678 31.1109 19.3376C31.2709 19.5616 31.4347 19.7829 31.5975 20.0014L31.5984 20.0032ZM31.3323 19.7583C31.9035 20.5895 32.4431 21.3743 32.6962 22.1819C32.9799 23.086 32.8571 23.879 32.312 24.6775C31.2914 26.1698 29.9508 27.0365 28.532 27.9552C27.5114 28.6153 26.4564 29.2981 25.5075 30.2414C24.1892 31.5534 22.99 32.4839 21.8429 33.0875C20.7535 33.6602 19.705 33.9388 18.6388 33.9388C17.808 33.9388 16.9521 33.7695 16.0218 33.4217C13.9016 32.6286 12.1135 32.3828 10.5365 32.1661C8.88241 31.9385 7.45342 31.7428 5.95465 31.0126C3.9321 30.0256 2.67243 28.628 2.10493 26.7379C1.55975 24.9206 1.64999 22.6281 2.38217 19.73C2.57754 18.9552 2.60452 18.0247 2.55707 17.0077C2.62126 18.1313 2.62591 19.1692 2.45287 20.0332C1.88909 22.8438 1.917 25.0772 2.53753 26.859C3.18411 28.7173 4.47356 30.0903 6.47843 31.0581C8.06651 31.8229 9.59691 32.025 11.3692 32.2581C12.8382 32.452 14.5026 32.6705 16.4125 33.2751C17.2284 33.5327 17.9941 33.662 18.7374 33.662C19.4315 33.662 20.1069 33.55 20.786 33.3261C22.3025 32.8262 23.885 31.7355 25.6247 29.9901C26.4927 29.1188 27.4407 28.4514 28.3562 27.8059C29.7303 26.8372 31.029 25.9221 32.004 24.408C33.1325 22.6554 32.1547 21.1076 31.1202 19.4687C31.056 19.3677 30.9918 19.2657 30.9286 19.1637C31.0616 19.364 31.1974 19.5616 31.3332 19.7583H31.3323ZM31.0662 19.5006C31.5891 20.3282 32.0822 21.1103 32.3129 21.9115C32.5706 22.8074 32.4552 23.5904 31.951 24.3734C30.9825 25.8775 29.6893 26.7889 28.3199 27.754C27.4017 28.4013 26.4518 29.0705 25.5801 29.9455C24.2897 31.2402 23.1072 32.1597 21.9648 32.7552C20.8781 33.3224 19.8222 33.5974 18.7365 33.5974C18.0006 33.5974 17.247 33.4726 16.433 33.215C14.5174 32.6095 12.8503 32.3901 11.3785 32.1962C9.6118 31.9631 8.08698 31.7628 6.50727 31.0016C4.51821 30.042 3.23993 28.6799 2.598 26.839C1.98119 25.0672 1.95421 22.8448 2.5152 20.0451C2.63149 19.4642 2.66871 18.8068 2.66034 18.0994C2.68732 18.9161 2.67522 19.6772 2.57568 20.3483C1.76908 25.8183 3.18318 29.2208 7.0264 31.0544C8.72519 31.8629 10.3858 32.0669 12.3088 32.3018C13.7053 32.4729 15.1491 32.6496 16.821 33.0775C17.5103 33.2541 18.1634 33.3424 18.7979 33.3424C19.5841 33.3424 20.3413 33.2068 21.1042 32.9336C22.5667 32.4101 24.0701 31.3522 25.701 29.7006C26.4834 28.9085 27.3179 28.2666 28.1245 27.6456C29.4596 26.6186 30.7211 25.6481 31.6486 24.1067C32.6887 22.3786 31.7993 20.8308 30.8588 19.192C30.8178 19.12 30.7769 19.0481 30.735 18.9762C30.8439 19.1519 30.9537 19.3267 31.0634 19.5006H31.0662ZM30.7974 19.2275C31.2718 20.0542 31.7212 20.8363 31.9287 21.6338C32.1603 22.5261 32.0524 23.3 31.5882 24.0711C30.6671 25.6016 29.4112 26.5677 28.0817 27.5901C27.2733 28.212 26.4369 28.8557 25.6508 29.6514C24.3855 30.9324 23.2151 31.8429 22.0727 32.4329C20.9823 32.9965 19.9106 33.2705 18.7951 33.2705C18.1662 33.2705 17.5271 33.1849 16.8414 33.0101C15.165 32.5813 13.6532 32.3965 12.3191 32.2335C12.2474 32.2244 12.1758 32.2162 12.1051 32.2071C12.5265 32.259 12.9582 32.3054 13.4029 32.3528C14.6049 32.4821 15.8478 32.6159 17.2331 32.8827C17.769 32.9855 18.29 33.0374 18.7979 33.0374C19.705 33.0374 20.5749 32.8726 21.4261 32.5412C22.8346 31.9931 24.259 30.9707 25.781 29.4129C26.4629 28.7154 27.1728 28.1182 27.8603 27.5409C29.1721 26.4393 30.4113 25.3977 31.2979 23.808C32.2515 22.0973 31.4495 20.5413 30.6001 18.8933C30.5797 18.8533 30.5592 18.8141 30.5387 18.7741C30.6243 18.9261 30.7118 19.0772 30.7974 19.2275ZM30.5266 18.9288C31.3658 20.5567 32.1585 22.0954 31.2253 23.768C30.3462 25.3449 29.1125 26.381 27.8073 27.4781C27.1188 28.0572 26.4062 28.6554 25.7224 29.3555C24.4785 30.6283 23.3147 31.5315 22.1648 32.1188C21.0614 32.6824 19.9618 32.9555 18.8054 32.9555C18.3002 32.9555 17.7922 32.9045 17.2508 32.8007C16.0488 32.5695 14.9556 32.4383 13.9025 32.3227C14.1797 32.3473 14.4607 32.371 14.7472 32.3956C15.6711 32.4739 16.6256 32.5549 17.6452 32.6833C18.0183 32.7306 18.383 32.7534 18.7412 32.7534C19.7897 32.7534 20.7814 32.5512 21.7489 32.1434C23.1035 31.5725 24.4488 30.5837 25.861 29.1224C26.4183 28.5461 26.9867 28.0244 27.5375 27.52C28.8511 26.3155 30.0922 25.1783 30.9462 23.5067C31.817 21.8023 31.0979 20.2253 30.3369 18.5555C30.4001 18.6803 30.4643 18.805 30.5285 18.9279L30.5266 18.9288ZM33.7428 25.8848C32.4915 27.4016 30.8374 28.1755 29.2372 28.9249C27.8463 29.5758 26.4071 30.2487 25.2098 31.4086C22.8942 33.6502 20.9814 34.8675 19.1887 35.2408C17.6229 35.5667 16.139 35.2544 14.3779 34.2283C11.6334 32.6295 9.54202 32.3373 7.69717 32.0796C6.34725 31.8912 5.07176 31.7127 3.75069 31.0426C1.58394 29.9446 0.39125 28.3922 0.103776 26.2972C-0.175324 24.2614 0.401483 21.7003 1.86676 18.4681C2.53195 17.0023 2.18494 14.6059 1.84908 12.2879C1.64069 10.8457 1.42485 9.35344 1.45462 8.10246C1.48811 6.70307 1.8342 5.75983 2.51055 5.21901C3.70045 4.26757 5.5053 3.98351 7.41155 3.98351C9.04522 3.98351 10.7533 4.19291 12.213 4.37137C13.0671 4.47607 13.8048 4.56621 14.4105 4.60171C14.4961 4.60718 14.5826 4.609 14.671 4.609C16.3856 4.609 18.4667 3.66848 20.6632 2.67607C21.9062 2.11432 23.1919 1.53344 24.5037 1.07456C26.2871 0.450892 27.6901 0.487311 28.6725 1.182C29.8205 1.99505 30.3703 3.68487 30.3071 6.20596C30.2522 8.37924 30.0298 9.97074 29.8522 11.249C29.5396 13.4861 29.334 14.9637 30.1759 17.5085C30.202 17.5868 30.2299 17.6642 30.2606 17.7407C30.2075 17.6178 30.1601 17.493 30.1192 17.3674C29.3023 14.88 29.4502 13.4214 29.6726 11.2135C29.8019 9.93523 29.948 8.48759 29.947 6.46908C29.9424 4.0873 29.3647 2.47304 28.2306 1.67183C27.2463 0.977142 25.8638 0.909768 24.1204 1.47335C22.8132 1.89398 21.5303 2.43844 20.2892 2.96469C18.1513 3.87152 16.1279 4.73009 14.4495 4.73009C14.3956 4.73009 14.3416 4.73009 14.2886 4.72736C13.6988 4.70733 12.9684 4.64177 12.1944 4.57167C9.10197 4.29307 4.86616 3.91249 2.69197 5.72523C1.17552 6.99897 1.56812 9.97802 1.94863 12.8587C2.23889 15.0593 2.53939 17.3346 1.95979 18.7686C0.680584 21.9334 0.22658 24.4353 0.571735 26.4174C0.928983 28.4714 2.144 29.9919 4.2847 31.0672C5.64113 31.7482 6.95755 31.934 8.35026 32.1306C10.1402 32.3837 12.1693 32.6696 14.7714 34.0581C16.006 34.7163 17.1028 35.035 18.1913 35.035C18.6305 35.035 19.0686 34.9831 19.5124 34.8811C21.2596 34.4787 23.1035 33.2905 25.3131 31.1409C26.449 30.0329 27.7933 29.3537 29.0939 28.6963C30.6327 27.9188 32.2236 27.1148 33.4172 25.6035C34.9122 23.7206 33.5707 22.1337 32.1501 20.453C32.1259 20.4247 32.1017 20.3956 32.0775 20.3674C32.178 20.4812 32.2794 20.5941 32.3799 20.7061C33.887 22.3904 35.3104 23.9819 33.7437 25.8812L33.7428 25.8848Z" fill="url(#paint0_radial_1_10993)"/>
  <path d="M51.6876 20.4601L43.9975 14.015H41.3214V25.7046H44.7201V19.2595L52.3934 25.7046H55.0863V14.015H51.6876V20.4601ZM25.9245 25.7046H37.7883V22.8322H29.3232V21.1292H37.6371V18.407H29.3232V16.8874H37.7883V14.015H25.9245V25.7046ZM19.1082 14.015H10.4414V25.7046H13.8401V21.1459H19.1082C21.465 21.1459 23.0636 19.8765 23.0636 17.5899C23.0636 16.9395 22.8955 16.3371 22.5762 15.7868C21.9209 14.7008 20.6752 14.0171 19.1103 14.0171L19.1082 14.015ZM18.6881 18.4403H13.8254V16.7206H18.6881C19.3435 16.7206 19.6649 17.0041 19.6649 17.5899C19.6649 18.1756 19.3456 18.4424 18.6881 18.4424V18.4403ZM103.756 19.7598C105.825 19.643 107.02 18.7738 107.02 17.1042C107.02 16.1849 106.684 15.4345 106.026 14.8655C105.354 14.2985 104.428 14.0129 103.233 14.0129H94.2299V25.7025H103.602C105.875 25.7025 107.407 24.4498 107.407 22.5967C107.407 20.7436 106.026 19.8077 103.754 19.7577L103.756 19.7598ZM102.647 16.8874C103.252 16.8874 103.623 17.0875 103.623 17.6732C103.623 18.259 103.271 18.4424 102.647 18.4424H97.6495L97.6327 16.8895H102.647V16.8874ZM103.016 22.8156H97.6642L97.6474 21.0959H103.016C103.605 21.0959 103.993 21.3961 103.993 21.9985C103.993 22.5488 103.674 22.8176 103.016 22.8176V22.8156ZM68.4163 20.1266C68.4163 21.9797 67.2883 22.9656 65.3873 22.9656C63.4863 22.9656 62.3584 21.9797 62.3584 20.1266V14.015H58.9597V19.6264C58.9597 24.4685 61.3669 25.9714 65.3873 25.9714C69.4078 25.9714 71.815 24.4685 71.815 19.6264V14.015H68.4163V20.1266ZM118.617 20.0432H119.829C122.136 20.0432 123.616 18.9572 123.616 17.1042C123.616 15.2511 122.203 14.015 119.829 14.015H110.322V25.7046H113.721L113.704 20.9958H115.891C116.512 20.9958 117.035 21.1126 117.439 21.3627C117.842 21.6128 118.247 22.0297 118.668 22.6321C119.088 23.2491 119.695 24.2684 120.501 25.7046H124.641C123.969 24.3184 123.362 23.2491 122.825 22.4821C121.747 20.9458 120.518 20.16 118.617 20.0432ZM113.702 18.4403L113.685 16.7206H119.239C119.894 16.7206 120.216 16.9874 120.216 17.5899C120.216 18.1923 119.896 18.4424 119.239 18.4424H113.702V18.4403ZM137.448 14.015H133.796L126.744 25.7046H130.767L131.878 23.7348H139.366L140.477 25.7046H144.5L137.448 14.015ZM133.493 20.8624L135.629 17.0541L137.749 20.8624H133.491H133.493ZM82.9394 20.9792L78.2279 14.015H75.5182V25.7046H78.9169V20.1266L82.5844 25.7046H83.2923L86.9599 20.1266V25.7046H90.3586V14.015H87.6488L82.9373 20.9792H82.9394Z" fill="white"/>
  <defs>
    <radialGradient id="paint0_radial_1_10993" cx="0" cy="0" r="1" gradientUnits="userSpaceOnUse" gradientTransform="translate(17.2303 17.9983) scale(17.507 17.1332)">
      <stop offset="0.13" stop-color="#563C70"/>
      <stop offset="0.32" stop-color="#E1813B"/>
      <stop offset="0.74" stop-color="#FF902F"/>
      <stop offset="0.76" stop-color="#F99336"/>
      <stop offset="0.8" stop-color="#EA9E4C"/>
      <stop offset="0.84" stop-color="#D2B070"/>
      <stop offset="0.89" stop-color="#B1C8A0"/>
      <stop offset="0.94" stop-color="#8BE4D9"/>
    </radialGradient>
  </defs>
</svg>