<svg xmlns="http://www.w3.org/2000/svg" width="40" height="40" viewBox="0 0 40 40" fill="none">
  <path d="M11.6666 12.5C16.269 12.5 19.9999 10.6345 19.9999 8.33335C19.9999 6.03217 16.269 4.16669 11.6666 4.16669C7.06421 4.16669 3.33325 6.03217 3.33325 8.33335C3.33325 10.6345 7.06421 12.5 11.6666 12.5Z" stroke="url(#paint0_linear_2918_4206)" stroke-width="1.66667" stroke-linecap="round" stroke-linejoin="round"/>
  <path d="M3.33325 8.33337C3.33325 8.33337 3.33325 11.8655 3.33325 14.1667C3.33325 16.4679 7.06421 18.3334 11.6666 18.3334C16.2689 18.3334 19.9999 16.4679 19.9999 14.1667C19.9999 12.8037 19.9999 8.33337 19.9999 8.33337" stroke="url(#paint1_linear_2918_4206)" stroke-width="1.66667" stroke-linecap="round" stroke-linejoin="round"/>
  <path d="M3.33325 14.1667C3.33325 14.1667 3.33325 17.6989 3.33325 20C3.33325 22.3012 7.06421 24.1667 11.6666 24.1667C16.2689 24.1667 19.9999 22.3012 19.9999 20C19.9999 18.637 19.9999 14.1667 19.9999 14.1667" stroke="url(#paint2_linear_2918_4206)" stroke-width="1.66667" stroke-linecap="round" stroke-linejoin="round"/>
  <path d="M3.33325 20C3.33325 20 3.33325 23.5322 3.33325 25.8333C3.33325 28.1345 7.06421 30 11.6666 30C16.2689 30 19.9999 28.1345 19.9999 25.8333C19.9999 24.4703 19.9999 20 19.9999 20" stroke="url(#paint3_linear_2918_4206)" stroke-width="1.66667" stroke-linecap="round" stroke-linejoin="round"/>
  <path d="M3.33325 25.8334C3.33325 25.8334 3.33325 29.3655 3.33325 31.6667C3.33325 33.9679 7.06421 35.8334 11.6666 35.8334C16.2689 35.8334 19.9999 33.9679 19.9999 31.6667C19.9999 30.3037 19.9999 25.8334 19.9999 25.8334" stroke="url(#paint4_linear_2918_4206)" stroke-width="1.66667" stroke-linecap="round" stroke-linejoin="round"/>
  <path d="M28.3333 24.1667C32.9357 24.1667 36.6667 22.3012 36.6667 20C36.6667 17.6989 32.9357 15.8334 28.3333 15.8334C23.731 15.8334 20 17.6989 20 20C20 22.3012 23.731 24.1667 28.3333 24.1667Z" stroke="url(#paint5_linear_2918_4206)" stroke-width="1.66667" stroke-linecap="round" stroke-linejoin="round"/>
  <path d="M20 20C20 20 20 23.5322 20 25.8333C20 28.1345 23.731 30 28.3333 30C32.9357 30 36.6667 28.1345 36.6667 25.8333C36.6667 24.4703 36.6667 20 36.6667 20" stroke="url(#paint6_linear_2918_4206)" stroke-width="1.66667" stroke-linecap="round" stroke-linejoin="round"/>
  <path d="M20 25.8334C20 25.8334 20 29.3655 20 31.6667C20 33.9679 23.731 35.8334 28.3333 35.8334C32.9357 35.8334 36.6667 33.9679 36.6667 31.6667C36.6667 30.3037 36.6667 25.8334 36.6667 25.8334" stroke="url(#paint7_linear_2918_4206)" stroke-width="1.66667" stroke-linecap="round" stroke-linejoin="round"/>
  <defs>
    <linearGradient id="paint0_linear_2918_4206" x1="3.33325" y1="8.33335" x2="21.858" y2="8.33335" gradientUnits="userSpaceOnUse">
      <stop stop-color="#8BE4D9" stop-opacity="0.7"/>
      <stop offset="0.526042" stop-color="#C8B880" stop-opacity="0.7"/>
      <stop offset="1" stop-color="#FF902F" stop-opacity="0.6"/>
    </linearGradient>
    <linearGradient id="paint1_linear_2918_4206" x1="3.33325" y1="13.3334" x2="21.858" y2="13.3334" gradientUnits="userSpaceOnUse">
      <stop stop-color="#8BE4D9" stop-opacity="0.7"/>
      <stop offset="0.526042" stop-color="#C8B880" stop-opacity="0.7"/>
      <stop offset="1" stop-color="#FF902F" stop-opacity="0.6"/>
    </linearGradient>
    <linearGradient id="paint2_linear_2918_4206" x1="3.33325" y1="19.1667" x2="21.858" y2="19.1667" gradientUnits="userSpaceOnUse">
      <stop stop-color="#8BE4D9" stop-opacity="0.7"/>
      <stop offset="0.526042" stop-color="#C8B880" stop-opacity="0.7"/>
      <stop offset="1" stop-color="#FF902F" stop-opacity="0.6"/>
    </linearGradient>
    <linearGradient id="paint3_linear_2918_4206" x1="3.33325" y1="25" x2="21.858" y2="25" gradientUnits="userSpaceOnUse">
      <stop stop-color="#8BE4D9" stop-opacity="0.7"/>
      <stop offset="0.526042" stop-color="#C8B880" stop-opacity="0.7"/>
      <stop offset="1" stop-color="#FF902F" stop-opacity="0.6"/>
    </linearGradient>
    <linearGradient id="paint4_linear_2918_4206" x1="3.33325" y1="30.8334" x2="21.858" y2="30.8334" gradientUnits="userSpaceOnUse">
      <stop stop-color="#8BE4D9" stop-opacity="0.7"/>
      <stop offset="0.526042" stop-color="#C8B880" stop-opacity="0.7"/>
      <stop offset="1" stop-color="#FF902F" stop-opacity="0.6"/>
    </linearGradient>
    <linearGradient id="paint5_linear_2918_4206" x1="20" y1="20" x2="38.5248" y2="20" gradientUnits="userSpaceOnUse">
      <stop stop-color="#8BE4D9" stop-opacity="0.7"/>
      <stop offset="0.526042" stop-color="#C8B880" stop-opacity="0.7"/>
      <stop offset="1" stop-color="#FF902F" stop-opacity="0.6"/>
    </linearGradient>
    <linearGradient id="paint6_linear_2918_4206" x1="20" y1="25" x2="38.5248" y2="25" gradientUnits="userSpaceOnUse">
      <stop stop-color="#8BE4D9" stop-opacity="0.7"/>
      <stop offset="0.526042" stop-color="#C8B880" stop-opacity="0.7"/>
      <stop offset="1" stop-color="#FF902F" stop-opacity="0.6"/>
    </linearGradient>
    <linearGradient id="paint7_linear_2918_4206" x1="20" y1="30.8334" x2="38.5248" y2="30.8334" gradientUnits="userSpaceOnUse">
      <stop stop-color="#8BE4D9" stop-opacity="0.7"/>
      <stop offset="0.526042" stop-color="#C8B880" stop-opacity="0.7"/>
      <stop offset="1" stop-color="#FF902F" stop-opacity="0.6"/>
    </linearGradient>
  </defs>
</svg>