<svg xmlns="http://www.w3.org/2000/svg" width="40" height="40" viewBox="0 0 40 40" fill="none">
  <path d="M7.3499 24.21L13.0199 18.54L17.7349 23.255L22.9966 17.9933L20.0082 15.005H28.3416V23.3383L25.3532 20.35L17.7349 27.9683L13.0199 23.255L8.89657 27.3783C10.7689 30.1964 13.6426 32.1973 16.9353 32.9756C20.228 33.7538 23.6934 33.2511 26.6293 31.5695C29.5651 29.8878 31.7519 27.1529 32.7465 23.919C33.741 20.6851 33.4689 17.194 31.9853 14.1532C30.5017 11.1124 27.9176 8.74936 24.7566 7.54289C21.5956 6.33642 18.0942 6.37677 14.9619 7.65577C11.8295 8.93476 9.30057 11.3567 7.88745 14.4309C6.47434 17.5051 6.28277 21.0015 7.35157 24.2117L7.3499 24.21ZM4.78823 26.8067L4.77157 26.79L4.77823 26.7833C3.82811 24.65 3.33857 22.3403 3.34157 20.005C3.34157 10.8 10.8032 3.33832 20.0082 3.33832C29.2132 3.33832 36.6749 10.8 36.6749 20.005C36.6749 29.21 29.2132 36.6716 20.0082 36.6716C13.2249 36.6716 7.39157 32.6216 4.78823 26.8067Z" fill="url(#paint0_linear_2916_4199)"/>
  <defs>
    <linearGradient id="paint0_linear_2916_4199" x1="3.34155" y1="20.005" x2="40.3911" y2="20.005" gradientUnits="userSpaceOnUse">
      <stop stop-color="#8BE4D9" stop-opacity="0.7"/>
      <stop offset="0.526042" stop-color="#C8B880" stop-opacity="0.7"/>
      <stop offset="1" stop-color="#FF902F" stop-opacity="0.6"/>
    </linearGradient>
  </defs>
</svg>