<svg xmlns="http://www.w3.org/2000/svg" width="20" height="21" viewBox="0 0 20 21" fill="none">
<path fill-rule="evenodd" clip-rule="evenodd" d="M3.84496 7.62081L3.48996 9.04165H1.66663C1.50087 9.04165 1.34189 9.10749 1.22468 9.2247C1.10747 9.34192 1.04163 9.50089 1.04163 9.66665C1.04163 9.83241 1.10747 9.99138 1.22468 10.1086C1.34189 10.2258 1.50087 10.2916 1.66663 10.2916H18.3333C18.4991 10.2916 18.658 10.2258 18.7752 10.1086C18.8924 9.99138 18.9583 9.83241 18.9583 9.66665C18.9583 9.50089 18.8924 9.34192 18.7752 9.2247C18.658 9.10749 18.4991 9.04165 18.3333 9.04165H16.51L16.155 7.62081C15.7 5.80165 15.4733 4.89248 14.795 4.36248C14.1166 3.83331 13.1791 3.83331 11.3041 3.83331H8.69579C6.82079 3.83331 5.88329 3.83331 5.20496 4.36248C4.52663 4.89248 4.29913 5.80165 3.84496 7.62081ZM5.41663 18C6.0602 18 6.6857 17.7871 7.19574 17.3947C7.70578 17.0022 8.07173 16.4521 8.23663 15.83L9.16163 15.3675C9.42193 15.2374 9.70895 15.1696 9.99996 15.1696C10.291 15.1696 10.578 15.2374 10.8383 15.3675L11.7633 15.83C11.9455 16.5139 12.3701 17.1083 12.9581 17.5024C13.546 17.8965 14.2571 18.0634 14.959 17.972C15.6609 17.8807 16.3056 17.5373 16.7731 17.0058C17.2406 16.4744 17.4989 15.7911 17.5 15.0833C17.5011 14.3666 17.2383 13.6746 16.7617 13.1394C16.2852 12.6041 15.6282 12.263 14.9162 12.1812C14.2043 12.0994 13.4871 12.2826 12.9015 12.6958C12.316 13.1091 11.9031 13.7234 11.7416 14.4216L11.3975 14.25C10.9635 14.033 10.4851 13.9201 9.99996 13.9201C9.51483 13.9201 9.03637 14.033 8.60246 14.25L8.25829 14.4216C8.09532 13.7248 7.68192 13.1122 7.09672 12.7003C6.51153 12.2884 5.79536 12.106 5.08441 12.1876C4.37347 12.2693 3.71734 12.6095 3.24082 13.1434C2.76431 13.6773 2.50064 14.3677 2.49996 15.0833C2.49996 15.8569 2.80725 16.5987 3.35423 17.1457C3.90121 17.6927 4.64308 18 5.41663 18Z" fill="#847A5B"/>
</svg>