<svg xmlns="http://www.w3.org/2000/svg" width="81" height="80" viewBox="0 0 81 80" fill="none">
  <mask id="path-1-inside-1_2861_4529" fill="white">
    <path fill-rule="evenodd" clip-rule="evenodd" d="M59.7155 9.66675C59.7155 8.00989 58.3724 6.66675 56.7156 6.66675H24.2842C22.6273 6.66675 21.2842 8.0099 21.2842 9.66675V26.6226C21.2842 27.1531 21.4949 27.6618 21.87 28.0368L33.8332 40.0001L21.87 51.9633C21.4949 52.3384 21.2842 52.8471 21.2842 53.3775V70.3334C21.2842 71.9903 22.6273 73.3334 24.2842 73.3334H56.7155C58.3724 73.3334 59.7155 71.9903 59.7155 70.3334V53.3775C59.7155 52.8471 59.5048 52.3384 59.1298 51.9633L47.1665 40.0001L59.1298 28.0368C59.5048 27.6618 59.7155 27.1531 59.7155 26.6226V9.66675Z"/>
  </mask>
  <path d="M21.87 28.0368L21.1629 28.744L21.1629 28.744L21.87 28.0368ZM33.8332 40.0001L34.5403 40.7072C34.7278 40.5196 34.8332 40.2653 34.8332 40.0001C34.8332 39.7349 34.7278 39.4805 34.5403 39.293L33.8332 40.0001ZM21.87 51.9633L22.5771 52.6704H22.5771L21.87 51.9633ZM59.1298 51.9633L58.4227 52.6704L59.1298 51.9633ZM47.1665 40.0001L46.4594 39.293C46.0689 39.6835 46.0689 40.3167 46.4594 40.7072L47.1665 40.0001ZM56.7156 7.66675C57.8201 7.66675 58.7155 8.56218 58.7155 9.66675H60.7155C60.7155 7.45761 58.9247 5.66675 56.7156 5.66675V7.66675ZM24.2842 7.66675H56.7156V5.66675H24.2842V7.66675ZM22.2842 9.66675C22.2842 8.56218 23.1796 7.66675 24.2842 7.66675V5.66675C22.075 5.66675 20.2842 7.45761 20.2842 9.66675H22.2842ZM22.2842 26.6226V9.66675H20.2842V26.6226H22.2842ZM22.5771 27.3297C22.3895 27.1422 22.2842 26.8879 22.2842 26.6226H20.2842C20.2842 27.4183 20.6002 28.1813 21.1629 28.744L22.5771 27.3297ZM34.5403 39.293L22.5771 27.3297L21.1629 28.744L33.1261 40.7072L34.5403 39.293ZM22.5771 52.6704L34.5403 40.7072L33.1261 39.293L21.1629 51.2562L22.5771 52.6704ZM22.2842 53.3775C22.2842 53.1123 22.3895 52.858 22.5771 52.6704L21.1629 51.2562C20.6002 51.8188 20.2842 52.5819 20.2842 53.3775H22.2842ZM22.2842 70.3334V53.3775H20.2842V70.3334H22.2842ZM24.2842 72.3334C23.1796 72.3334 22.2842 71.438 22.2842 70.3334H20.2842C20.2842 72.5425 22.075 74.3334 24.2842 74.3334V72.3334ZM56.7155 72.3334H24.2842V74.3334H56.7155V72.3334ZM58.7155 70.3334C58.7155 71.438 57.8201 72.3334 56.7155 72.3334V74.3334C58.9247 74.3334 60.7155 72.5425 60.7155 70.3334H58.7155ZM58.7155 53.3775V70.3334H60.7155V53.3775H58.7155ZM58.4227 52.6704C58.6102 52.858 58.7155 53.1123 58.7155 53.3775H60.7155C60.7155 52.5819 60.3995 51.8188 59.8369 51.2562L58.4227 52.6704ZM46.4594 40.7072L58.4227 52.6704L59.8369 51.2562L47.8736 39.293L46.4594 40.7072ZM58.4227 27.3297L46.4594 39.293L47.8736 40.7072L59.8369 28.744L58.4227 27.3297ZM58.7155 26.6226C58.7155 26.8879 58.6102 27.1422 58.4227 27.3297L59.8369 28.744C60.3995 28.1813 60.7155 27.4183 60.7155 26.6226H58.7155ZM58.7155 9.66675V26.6226H60.7155V9.66675H58.7155Z" fill="url(#paint0_linear_2861_4529)" mask="url(#path-1-inside-1_2861_4529)"/>
  <defs>
    <linearGradient id="paint0_linear_2861_4529" x1="21.2842" y1="40.0001" x2="64.0001" y2="40.0001" gradientUnits="userSpaceOnUse">
      <stop stop-color="#8BE4D9" stop-opacity="0.7"/>
      <stop offset="0.526042" stop-color="#C8B880" stop-opacity="0.7"/>
      <stop offset="1" stop-color="#FF902F" stop-opacity="0.6"/>
    </linearGradient>
  </defs>
</svg>